ISO-10303-21;
HEADER;
/* Generated by software containing ST-Developer
 * from STEP Tools, Inc. (www.steptools.com) 
 */
/* OPTION: using custom renumber hook */

FILE_DESCRIPTION(
/* description */ ('STEP AP242 Edition 2',
'CAx-IF Rec.Pracs.---Representation and Presentation of Product Manufa
cturing Information (PMI)---4.0---2014-10-13',
'CAx-IF Rec.Pracs.---3D Tessellated Geometry---0.4---2014-09-14','2;1',
'CAx-IF Rec.Pracs.---User Defined Attributes---1.5---2016-08-15'),
/* implementation_level */ '2;1');

FILE_NAME(
/* name */ 'Part Studio 1 - enclosure base',
/* time_stamp */ '2026-05-03T23:45:49Z',
/* author */ (''),
/* organization */ (''),
/* preprocessor_version */ 'ST-DEVELOPER v20',
/* originating_system */ 'ONSHAPE BY PTC INC, 1.214',
/* authorisation */ '  ');

FILE_SCHEMA (('AP242_MANAGED_MODEL_BASED_3D_ENGINEERING_MIM_LF { 1 0 10303 442 3 1 4 }'));
ENDSEC;

DATA;
#10=SHAPE_REPRESENTATION_RELATIONSHIP('','',#1075,#11);
#11=ADVANCED_BREP_SHAPE_REPRESENTATION('',(#1073),#1893);
#12=CONICAL_SURFACE('',#1144,0.0021,0.785398163397448);
#13=CONICAL_SURFACE('',#1145,0.0026,0.785398163397448);
#14=CONICAL_SURFACE('',#1146,0.0026,0.785398163397448);
#15=CONICAL_SURFACE('',#1147,0.0021,0.785398163397448);
#16=CONICAL_SURFACE('',#1148,0.0021,0.785398163397448);
#17=CONICAL_SURFACE('',#1149,0.0026,0.785398163397448);
#18=CONICAL_SURFACE('',#1150,0.0026,0.785398163397448);
#19=CONICAL_SURFACE('',#1151,0.0021,0.785398163397448);
#20=B_SPLINE_SURFACE_WITH_KNOTS('',3,1,((#1743,#1744),(#1745,#1746),(#1747,
#1748),(#1749,#1750)),.SURF_OF_LINEAR_EXTRUSION.,.F.,.F.,.F.,(4,4),(2,2),
(-2.13625959462003E-15,0.999999999999999),(0.,1.),
 .PIECEWISE_BEZIER_KNOTS.);
#21=B_SPLINE_SURFACE_WITH_KNOTS('',3,1,((#1751,#1752),(#1753,#1754),(#1755,
#1756),(#1757,#1758)),.SURF_OF_LINEAR_EXTRUSION.,.F.,.F.,.F.,(4,4),(2,2),
(-1.82156736156258E-15,1.),(0.,1.),.PIECEWISE_BEZIER_KNOTS.);
#22=B_SPLINE_SURFACE_WITH_KNOTS('',3,1,((#1759,#1760),(#1761,#1762),(#1763,
#1764),(#1765,#1766)),.SURF_OF_LINEAR_EXTRUSION.,.F.,.F.,.F.,(4,4),(2,2),
(5.43965313997261E-15,0.999999999999998),(0.,1.),
 .PIECEWISE_BEZIER_KNOTS.);
#23=B_SPLINE_SURFACE_WITH_KNOTS('',3,1,((#1767,#1768),(#1769,#1770),(#1771,
#1772),(#1773,#1774)),.SURF_OF_LINEAR_EXTRUSION.,.F.,.F.,.F.,(4,4),(2,2),
(-5.4199773435192E-15,1.),(0.,1.),.PIECEWISE_BEZIER_KNOTS.);
#24=B_SPLINE_SURFACE_WITH_KNOTS('',3,1,((#1819,#1820),(#1821,#1822),(#1823,
#1824),(#1825,#1826)),.SURF_OF_LINEAR_EXTRUSION.,.F.,.F.,.F.,(4,4),(2,2),
(-1.73075839839225E-14,0.999999999999999),(0.,1.),
 .PIECEWISE_BEZIER_KNOTS.);
#25=B_SPLINE_SURFACE_WITH_KNOTS('',3,1,((#1827,#1828),(#1829,#1830),(#1831,
#1832),(#1833,#1834)),.SURF_OF_LINEAR_EXTRUSION.,.F.,.F.,.F.,(4,4),(2,2),
(-4.05655079942231E-17,1.),(0.,1.),.PIECEWISE_BEZIER_KNOTS.);
#26=B_SPLINE_SURFACE_WITH_KNOTS('',3,1,((#1835,#1836),(#1837,#1838),(#1839,
#1840),(#1841,#1842)),.SURF_OF_LINEAR_EXTRUSION.,.F.,.F.,.F.,(4,4),(2,2),
(-2.38481951854812E-14,1.),(0.,1.),.PIECEWISE_BEZIER_KNOTS.);
#27=B_SPLINE_SURFACE_WITH_KNOTS('',3,1,((#1843,#1844),(#1845,#1846),(#1847,
#1848),(#1849,#1850)),.SURF_OF_LINEAR_EXTRUSION.,.F.,.F.,.F.,(4,4),(2,2),
(-3.58319163361145E-15,1.),(0.,1.),.PIECEWISE_BEZIER_KNOTS.);
#28=CYLINDRICAL_SURFACE('',#1091,0.0021);
#29=CYLINDRICAL_SURFACE('',#1094,0.0021);
#30=CYLINDRICAL_SURFACE('',#1097,0.0021);
#31=CYLINDRICAL_SURFACE('',#1100,0.0021);
#32=CYLINDRICAL_SURFACE('',#1112,0.0021);
#33=CYLINDRICAL_SURFACE('',#1115,0.0036);
#34=CYLINDRICAL_SURFACE('',#1120,0.0021);
#35=CYLINDRICAL_SURFACE('',#1123,0.0036);
#36=CYLINDRICAL_SURFACE('',#1128,0.0036);
#37=CYLINDRICAL_SURFACE('',#1130,0.0021);
#38=CYLINDRICAL_SURFACE('',#1135,0.0036);
#39=CYLINDRICAL_SURFACE('',#1137,0.0021);
#40=CIRCLE('',#1081,0.0036);
#41=CIRCLE('',#1082,0.0036);
#42=CIRCLE('',#1083,0.0036);
#43=CIRCLE('',#1084,0.0036);
#44=CIRCLE('',#1092,0.0021);
#45=CIRCLE('',#1093,0.0021);
#46=CIRCLE('',#1095,0.0021);
#47=CIRCLE('',#1096,0.0021);
#48=CIRCLE('',#1098,0.0021);
#49=CIRCLE('',#1099,0.0021);
#50=CIRCLE('',#1101,0.0021);
#51=CIRCLE('',#1102,0.0021);
#52=CIRCLE('',#1104,0.0026);
#53=CIRCLE('',#1105,0.0026);
#54=CIRCLE('',#1106,0.0026);
#55=CIRCLE('',#1107,0.0026);
#56=CIRCLE('',#1113,0.0021);
#57=CIRCLE('',#1114,0.0021);
#58=CIRCLE('',#1116,0.0036);
#59=CIRCLE('',#1118,0.0026);
#60=CIRCLE('',#1121,0.0021);
#61=CIRCLE('',#1122,0.0021);
#62=CIRCLE('',#1124,0.0036);
#63=CIRCLE('',#1126,0.0026);
#64=CIRCLE('',#1129,0.0036);
#65=CIRCLE('',#1131,0.0021);
#66=CIRCLE('',#1132,0.0021);
#67=CIRCLE('',#1134,0.0026);
#68=CIRCLE('',#1136,0.0036);
#69=CIRCLE('',#1138,0.0021);
#70=CIRCLE('',#1139,0.0021);
#71=CIRCLE('',#1141,0.0026);
#72=B_SPLINE_CURVE_WITH_KNOTS('',3,(#1462,#1463,#1464,#1465),
 .UNSPECIFIED.,.F.,.F.,(4,4),(0.,1.),.UNSPECIFIED.);
#73=B_SPLINE_CURVE_WITH_KNOTS('',3,(#1469,#1470,#1471,#1472),
 .UNSPECIFIED.,.F.,.F.,(4,4),(0.,1.),.UNSPECIFIED.);
#74=B_SPLINE_CURVE_WITH_KNOTS('',3,(#1476,#1477,#1478,#1479,#1480),
 .UNSPECIFIED.,.F.,.F.,(4,1,4),(0.,0.000600950997332216,0.00120190199466443),
 .UNSPECIFIED.);
#75=B_SPLINE_CURVE_WITH_KNOTS('',3,(#1484,#1485,#1486,#1487,#1488),
 .UNSPECIFIED.,.F.,.F.,(4,1,4),(0.,0.0006009509973322,0.0012019019946644),
 .UNSPECIFIED.);
#76=B_SPLINE_CURVE_WITH_KNOTS('',3,(#1492,#1493,#1494,#1495,#1496),
 .UNSPECIFIED.,.F.,.F.,(4,1,4),(0.,0.000600950997332209,0.00120190199466442),
 .UNSPECIFIED.);
#77=B_SPLINE_CURVE_WITH_KNOTS('',3,(#1500,#1501,#1502,#1503,#1504),
 .UNSPECIFIED.,.F.,.F.,(4,1,4),(0.,0.00060095099733222,0.00120190199466444),
 .UNSPECIFIED.);
#78=B_SPLINE_CURVE_WITH_KNOTS('',3,(#1525,#1526,#1527,#1528,#1529),
 .UNSPECIFIED.,.F.,.F.,(4,1,4),(0.,0.000600950997332218,0.00120190199466444),
 .UNSPECIFIED.);
#79=B_SPLINE_CURVE_WITH_KNOTS('',3,(#1533,#1534,#1535,#1536,#1537),
 .UNSPECIFIED.,.F.,.F.,(4,1,4),(0.,0.000600950997332211,0.00120190199466442),
 .UNSPECIFIED.);
#80=B_SPLINE_CURVE_WITH_KNOTS('',3,(#1541,#1542,#1543,#1544,#1545),
 .UNSPECIFIED.,.F.,.F.,(4,1,4),(0.,0.000600950997332217,0.00120190199466443),
 .UNSPECIFIED.);
#81=B_SPLINE_CURVE_WITH_KNOTS('',3,(#1549,#1550,#1551,#1552,#1553),
 .UNSPECIFIED.,.F.,.F.,(4,1,4),(0.,0.000600950997332202,0.0012019019946644),
 .UNSPECIFIED.);
#82=B_SPLINE_CURVE_WITH_KNOTS('',3,(#1569,#1570,#1571,#1572),
 .UNSPECIFIED.,.F.,.F.,(4,4),(0.,1.),.UNSPECIFIED.);
#83=B_SPLINE_CURVE_WITH_KNOTS('',3,(#1576,#1577,#1578,#1579),
 .UNSPECIFIED.,.F.,.F.,(4,4),(0.,1.),.UNSPECIFIED.);
#84=B_SPLINE_CURVE_WITH_KNOTS('',3,(#1584,#1585,#1586,#1587),
 .UNSPECIFIED.,.F.,.F.,(4,4),(0.,1.),.UNSPECIFIED.);
#85=B_SPLINE_CURVE_WITH_KNOTS('',3,(#1591,#1592,#1593,#1594),
 .UNSPECIFIED.,.F.,.F.,(4,4),(0.,1.),.UNSPECIFIED.);
#86=B_SPLINE_CURVE_WITH_KNOTS('',3,(#1599,#1600,#1601,#1602),
 .UNSPECIFIED.,.F.,.F.,(4,4),(0.,1.),.UNSPECIFIED.);
#87=B_SPLINE_CURVE_WITH_KNOTS('',3,(#1606,#1607,#1608,#1609),
 .UNSPECIFIED.,.F.,.F.,(4,4),(0.,1.),.UNSPECIFIED.);
#88=B_SPLINE_CURVE_WITH_KNOTS('',3,(#1611,#1612,#1613,#1614),
 .UNSPECIFIED.,.F.,.F.,(4,4),(0.,1.),.UNSPECIFIED.);
#89=B_SPLINE_CURVE_WITH_KNOTS('',3,(#1615,#1616,#1617,#1618),
 .UNSPECIFIED.,.F.,.F.,(4,4),(0.,1.),.UNSPECIFIED.);
#90=B_SPLINE_CURVE_WITH_KNOTS('',3,(#1619,#1620,#1621,#1622),
 .UNSPECIFIED.,.F.,.F.,(4,4),(0.,1.),.UNSPECIFIED.);
#91=B_SPLINE_CURVE_WITH_KNOTS('',3,(#1623,#1624,#1625,#1626),
 .UNSPECIFIED.,.F.,.F.,(4,4),(0.,1.),.UNSPECIFIED.);
#92=B_SPLINE_CURVE_WITH_KNOTS('',3,(#1675,#1676,#1677,#1678),
 .UNSPECIFIED.,.F.,.F.,(4,4),(0.,1.),.UNSPECIFIED.);
#93=B_SPLINE_CURVE_WITH_KNOTS('',3,(#1679,#1680,#1681,#1682),
 .UNSPECIFIED.,.F.,.F.,(4,4),(0.,1.),.UNSPECIFIED.);
#94=B_SPLINE_CURVE_WITH_KNOTS('',3,(#1683,#1684,#1685,#1686),
 .UNSPECIFIED.,.F.,.F.,(4,4),(0.,1.),.UNSPECIFIED.);
#95=B_SPLINE_CURVE_WITH_KNOTS('',3,(#1687,#1688,#1689,#1690),
 .UNSPECIFIED.,.F.,.F.,(4,4),(0.,1.),.UNSPECIFIED.);
#96=B_SPLINE_CURVE_WITH_KNOTS('',3,(#1784,#1785,#1786,#1787),
 .UNSPECIFIED.,.F.,.F.,(4,4),(0.,1.),.UNSPECIFIED.);
#97=B_SPLINE_CURVE_WITH_KNOTS('',3,(#1788,#1789,#1790,#1791),
 .UNSPECIFIED.,.F.,.F.,(4,4),(0.,1.),.UNSPECIFIED.);
#98=B_SPLINE_CURVE_WITH_KNOTS('',3,(#1793,#1794,#1795,#1796),
 .UNSPECIFIED.,.F.,.F.,(4,4),(0.,1.),.UNSPECIFIED.);
#99=B_SPLINE_CURVE_WITH_KNOTS('',3,(#1797,#1798,#1799,#1800),
 .UNSPECIFIED.,.F.,.F.,(4,4),(0.,1.),.UNSPECIFIED.);
#100=B_SPLINE_CURVE_WITH_KNOTS('',3,(#1802,#1803,#1804,#1805),
 .UNSPECIFIED.,.F.,.F.,(4,4),(0.,1.),.UNSPECIFIED.);
#101=B_SPLINE_CURVE_WITH_KNOTS('',3,(#1806,#1807,#1808,#1809),
 .UNSPECIFIED.,.F.,.F.,(4,4),(0.,1.),.UNSPECIFIED.);
#102=B_SPLINE_CURVE_WITH_KNOTS('',3,(#1811,#1812,#1813,#1814),
 .UNSPECIFIED.,.F.,.F.,(4,4),(0.,1.),.UNSPECIFIED.);
#103=B_SPLINE_CURVE_WITH_KNOTS('',3,(#1815,#1816,#1817,#1818),
 .UNSPECIFIED.,.F.,.F.,(4,4),(0.,1.),.UNSPECIFIED.);
#104=ORIENTED_EDGE('',*,*,#372,.F.);
#105=ORIENTED_EDGE('',*,*,#373,.F.);
#106=ORIENTED_EDGE('',*,*,#374,.T.);
#107=ORIENTED_EDGE('',*,*,#375,.F.);
#108=ORIENTED_EDGE('',*,*,#376,.T.);
#109=ORIENTED_EDGE('',*,*,#377,.T.);
#110=ORIENTED_EDGE('',*,*,#378,.T.);
#111=ORIENTED_EDGE('',*,*,#379,.F.);
#112=ORIENTED_EDGE('',*,*,#380,.F.);
#113=ORIENTED_EDGE('',*,*,#381,.F.);
#114=ORIENTED_EDGE('',*,*,#382,.T.);
#115=ORIENTED_EDGE('',*,*,#383,.T.);
#116=ORIENTED_EDGE('',*,*,#384,.F.);
#117=ORIENTED_EDGE('',*,*,#385,.F.);
#118=ORIENTED_EDGE('',*,*,#386,.T.);
#119=ORIENTED_EDGE('',*,*,#387,.T.);
#120=ORIENTED_EDGE('',*,*,#388,.F.);
#121=ORIENTED_EDGE('',*,*,#389,.T.);
#122=ORIENTED_EDGE('',*,*,#390,.F.);
#123=ORIENTED_EDGE('',*,*,#391,.T.);
#124=ORIENTED_EDGE('',*,*,#392,.T.);
#125=ORIENTED_EDGE('',*,*,#393,.T.);
#126=ORIENTED_EDGE('',*,*,#394,.T.);
#127=ORIENTED_EDGE('',*,*,#395,.T.);
#128=ORIENTED_EDGE('',*,*,#396,.F.);
#129=ORIENTED_EDGE('',*,*,#397,.T.);
#130=ORIENTED_EDGE('',*,*,#398,.F.);
#131=ORIENTED_EDGE('',*,*,#399,.F.);
#132=ORIENTED_EDGE('',*,*,#400,.T.);
#133=ORIENTED_EDGE('',*,*,#401,.F.);
#134=ORIENTED_EDGE('',*,*,#402,.T.);
#135=ORIENTED_EDGE('',*,*,#403,.T.);
#136=ORIENTED_EDGE('',*,*,#404,.T.);
#137=ORIENTED_EDGE('',*,*,#405,.F.);
#138=ORIENTED_EDGE('',*,*,#406,.F.);
#139=ORIENTED_EDGE('',*,*,#407,.T.);
#140=ORIENTED_EDGE('',*,*,#408,.F.);
#141=ORIENTED_EDGE('',*,*,#409,.T.);
#142=ORIENTED_EDGE('',*,*,#410,.T.);
#143=ORIENTED_EDGE('',*,*,#411,.T.);
#144=ORIENTED_EDGE('',*,*,#412,.T.);
#145=ORIENTED_EDGE('',*,*,#413,.T.);
#146=ORIENTED_EDGE('',*,*,#414,.F.);
#147=ORIENTED_EDGE('',*,*,#415,.F.);
#148=ORIENTED_EDGE('',*,*,#416,.F.);
#149=ORIENTED_EDGE('',*,*,#417,.F.);
#150=ORIENTED_EDGE('',*,*,#404,.F.);
#151=ORIENTED_EDGE('',*,*,#418,.F.);
#152=ORIENTED_EDGE('',*,*,#379,.T.);
#153=ORIENTED_EDGE('',*,*,#419,.F.);
#154=ORIENTED_EDGE('',*,*,#420,.T.);
#155=ORIENTED_EDGE('',*,*,#421,.T.);
#156=ORIENTED_EDGE('',*,*,#422,.F.);
#157=ORIENTED_EDGE('',*,*,#423,.T.);
#158=ORIENTED_EDGE('',*,*,#424,.T.);
#159=ORIENTED_EDGE('',*,*,#425,.T.);
#160=ORIENTED_EDGE('',*,*,#426,.F.);
#161=ORIENTED_EDGE('',*,*,#427,.T.);
#162=ORIENTED_EDGE('',*,*,#428,.T.);
#163=ORIENTED_EDGE('',*,*,#429,.T.);
#164=ORIENTED_EDGE('',*,*,#430,.F.);
#165=ORIENTED_EDGE('',*,*,#431,.T.);
#166=ORIENTED_EDGE('',*,*,#430,.T.);
#167=ORIENTED_EDGE('',*,*,#432,.T.);
#168=ORIENTED_EDGE('',*,*,#424,.F.);
#169=ORIENTED_EDGE('',*,*,#433,.T.);
#170=ORIENTED_EDGE('',*,*,#420,.F.);
#171=ORIENTED_EDGE('',*,*,#434,.T.);
#172=ORIENTED_EDGE('',*,*,#388,.T.);
#173=ORIENTED_EDGE('',*,*,#435,.T.);
#174=ORIENTED_EDGE('',*,*,#436,.F.);
#175=ORIENTED_EDGE('',*,*,#437,.F.);
#176=ORIENTED_EDGE('',*,*,#438,.T.);
#177=ORIENTED_EDGE('',*,*,#374,.F.);
#178=ORIENTED_EDGE('',*,*,#439,.T.);
#179=ORIENTED_EDGE('',*,*,#401,.T.);
#180=ORIENTED_EDGE('',*,*,#440,.T.);
#181=ORIENTED_EDGE('',*,*,#441,.T.);
#182=ORIENTED_EDGE('',*,*,#442,.F.);
#183=ORIENTED_EDGE('',*,*,#405,.T.);
#184=ORIENTED_EDGE('',*,*,#417,.T.);
#185=ORIENTED_EDGE('',*,*,#378,.F.);
#186=ORIENTED_EDGE('',*,*,#380,.T.);
#187=ORIENTED_EDGE('',*,*,#418,.T.);
#188=ORIENTED_EDGE('',*,*,#403,.F.);
#189=ORIENTED_EDGE('',*,*,#443,.T.);
#190=ORIENTED_EDGE('',*,*,#444,.T.);
#191=ORIENTED_EDGE('',*,*,#445,.F.);
#192=ORIENTED_EDGE('',*,*,#446,.T.);
#193=ORIENTED_EDGE('',*,*,#447,.T.);
#194=ORIENTED_EDGE('',*,*,#448,.T.);
#195=ORIENTED_EDGE('',*,*,#449,.F.);
#196=ORIENTED_EDGE('',*,*,#450,.T.);
#197=ORIENTED_EDGE('',*,*,#451,.T.);
#198=ORIENTED_EDGE('',*,*,#452,.T.);
#199=ORIENTED_EDGE('',*,*,#453,.T.);
#200=ORIENTED_EDGE('',*,*,#454,.T.);
#201=ORIENTED_EDGE('',*,*,#455,.T.);
#202=ORIENTED_EDGE('',*,*,#439,.F.);
#203=ORIENTED_EDGE('',*,*,#373,.T.);
#204=ORIENTED_EDGE('',*,*,#456,.F.);
#205=ORIENTED_EDGE('',*,*,#457,.T.);
#206=ORIENTED_EDGE('',*,*,#458,.F.);
#207=ORIENTED_EDGE('',*,*,#381,.T.);
#208=ORIENTED_EDGE('',*,*,#443,.F.);
#209=ORIENTED_EDGE('',*,*,#402,.F.);
#210=ORIENTED_EDGE('',*,*,#426,.T.);
#211=ORIENTED_EDGE('',*,*,#459,.T.);
#212=ORIENTED_EDGE('',*,*,#428,.F.);
#213=ORIENTED_EDGE('',*,*,#460,.T.);
#214=ORIENTED_EDGE('',*,*,#386,.F.);
#215=ORIENTED_EDGE('',*,*,#461,.T.);
#216=ORIENTED_EDGE('',*,*,#422,.T.);
#217=ORIENTED_EDGE('',*,*,#462,.T.);
#218=ORIENTED_EDGE('',*,*,#451,.F.);
#219=ORIENTED_EDGE('',*,*,#449,.T.);
#220=ORIENTED_EDGE('',*,*,#447,.F.);
#221=ORIENTED_EDGE('',*,*,#445,.T.);
#222=ORIENTED_EDGE('',*,*,#463,.T.);
#223=ORIENTED_EDGE('',*,*,#464,.T.);
#224=ORIENTED_EDGE('',*,*,#465,.F.);
#225=ORIENTED_EDGE('',*,*,#416,.T.);
#226=ORIENTED_EDGE('',*,*,#466,.T.);
#227=ORIENTED_EDGE('',*,*,#465,.T.);
#228=ORIENTED_EDGE('',*,*,#464,.F.);
#229=ORIENTED_EDGE('',*,*,#467,.T.);
#230=ORIENTED_EDGE('',*,*,#468,.T.);
#231=ORIENTED_EDGE('',*,*,#469,.F.);
#232=ORIENTED_EDGE('',*,*,#415,.T.);
#233=ORIENTED_EDGE('',*,*,#470,.T.);
#234=ORIENTED_EDGE('',*,*,#469,.T.);
#235=ORIENTED_EDGE('',*,*,#468,.F.);
#236=ORIENTED_EDGE('',*,*,#471,.T.);
#237=ORIENTED_EDGE('',*,*,#414,.T.);
#238=ORIENTED_EDGE('',*,*,#472,.T.);
#239=ORIENTED_EDGE('',*,*,#473,.T.);
#240=ORIENTED_EDGE('',*,*,#474,.T.);
#241=ORIENTED_EDGE('',*,*,#471,.F.);
#242=ORIENTED_EDGE('',*,*,#475,.T.);
#243=ORIENTED_EDGE('',*,*,#419,.T.);
#244=ORIENTED_EDGE('',*,*,#476,.T.);
#245=ORIENTED_EDGE('',*,*,#477,.T.);
#246=ORIENTED_EDGE('',*,*,#478,.T.);
#247=ORIENTED_EDGE('',*,*,#475,.F.);
#248=ORIENTED_EDGE('',*,*,#473,.F.);
#249=ORIENTED_EDGE('',*,*,#477,.F.);
#250=ORIENTED_EDGE('',*,*,#459,.F.);
#251=ORIENTED_EDGE('',*,*,#425,.F.);
#252=ORIENTED_EDGE('',*,*,#432,.F.);
#253=ORIENTED_EDGE('',*,*,#429,.F.);
#254=ORIENTED_EDGE('',*,*,#460,.F.);
#255=ORIENTED_EDGE('',*,*,#431,.F.);
#256=ORIENTED_EDGE('',*,*,#435,.F.);
#257=ORIENTED_EDGE('',*,*,#387,.F.);
#258=ORIENTED_EDGE('',*,*,#462,.F.);
#259=ORIENTED_EDGE('',*,*,#421,.F.);
#260=ORIENTED_EDGE('',*,*,#433,.F.);
#261=ORIENTED_EDGE('',*,*,#427,.F.);
#262=ORIENTED_EDGE('',*,*,#461,.F.);
#263=ORIENTED_EDGE('',*,*,#389,.F.);
#264=ORIENTED_EDGE('',*,*,#434,.F.);
#265=ORIENTED_EDGE('',*,*,#423,.F.);
#266=ORIENTED_EDGE('',*,*,#470,.F.);
#267=ORIENTED_EDGE('',*,*,#467,.F.);
#268=ORIENTED_EDGE('',*,*,#472,.F.);
#269=ORIENTED_EDGE('',*,*,#474,.F.);
#270=ORIENTED_EDGE('',*,*,#476,.F.);
#271=ORIENTED_EDGE('',*,*,#478,.F.);
#272=ORIENTED_EDGE('',*,*,#466,.F.);
#273=ORIENTED_EDGE('',*,*,#463,.F.);
#274=ORIENTED_EDGE('',*,*,#452,.F.);
#275=ORIENTED_EDGE('',*,*,#446,.F.);
#276=ORIENTED_EDGE('',*,*,#444,.F.);
#277=ORIENTED_EDGE('',*,*,#453,.F.);
#278=ORIENTED_EDGE('',*,*,#448,.F.);
#279=ORIENTED_EDGE('',*,*,#454,.F.);
#280=ORIENTED_EDGE('',*,*,#455,.F.);
#281=ORIENTED_EDGE('',*,*,#450,.F.);
#282=ORIENTED_EDGE('',*,*,#408,.T.);
#283=ORIENTED_EDGE('',*,*,#479,.T.);
#284=ORIENTED_EDGE('',*,*,#392,.F.);
#285=ORIENTED_EDGE('',*,*,#480,.T.);
#286=ORIENTED_EDGE('',*,*,#390,.T.);
#287=ORIENTED_EDGE('',*,*,#481,.T.);
#288=ORIENTED_EDGE('',*,*,#410,.F.);
#289=ORIENTED_EDGE('',*,*,#482,.T.);
#290=ORIENTED_EDGE('',*,*,#396,.T.);
#291=ORIENTED_EDGE('',*,*,#483,.T.);
#292=ORIENTED_EDGE('',*,*,#412,.F.);
#293=ORIENTED_EDGE('',*,*,#484,.T.);
#294=ORIENTED_EDGE('',*,*,#406,.T.);
#295=ORIENTED_EDGE('',*,*,#485,.T.);
#296=ORIENTED_EDGE('',*,*,#394,.F.);
#297=ORIENTED_EDGE('',*,*,#486,.T.);
#298=ORIENTED_EDGE('',*,*,#413,.F.);
#299=ORIENTED_EDGE('',*,*,#483,.F.);
#300=ORIENTED_EDGE('',*,*,#395,.F.);
#301=ORIENTED_EDGE('',*,*,#485,.F.);
#302=ORIENTED_EDGE('',*,*,#407,.F.);
#303=ORIENTED_EDGE('',*,*,#486,.F.);
#304=ORIENTED_EDGE('',*,*,#393,.F.);
#305=ORIENTED_EDGE('',*,*,#479,.F.);
#306=ORIENTED_EDGE('',*,*,#411,.F.);
#307=ORIENTED_EDGE('',*,*,#481,.F.);
#308=ORIENTED_EDGE('',*,*,#397,.F.);
#309=ORIENTED_EDGE('',*,*,#484,.F.);
#310=ORIENTED_EDGE('',*,*,#409,.F.);
#311=ORIENTED_EDGE('',*,*,#480,.F.);
#312=ORIENTED_EDGE('',*,*,#391,.F.);
#313=ORIENTED_EDGE('',*,*,#482,.F.);
#314=ORIENTED_EDGE('',*,*,#487,.F.);
#315=ORIENTED_EDGE('',*,*,#488,.F.);
#316=ORIENTED_EDGE('',*,*,#457,.F.);
#317=ORIENTED_EDGE('',*,*,#489,.T.);
#318=ORIENTED_EDGE('',*,*,#490,.T.);
#319=ORIENTED_EDGE('',*,*,#491,.T.);
#320=ORIENTED_EDGE('',*,*,#492,.T.);
#321=ORIENTED_EDGE('',*,*,#491,.F.);
#322=ORIENTED_EDGE('',*,*,#493,.F.);
#323=ORIENTED_EDGE('',*,*,#384,.T.);
#324=ORIENTED_EDGE('',*,*,#490,.F.);
#325=ORIENTED_EDGE('',*,*,#494,.T.);
#326=ORIENTED_EDGE('',*,*,#385,.T.);
#327=ORIENTED_EDGE('',*,*,#493,.T.);
#328=ORIENTED_EDGE('',*,*,#487,.T.);
#329=ORIENTED_EDGE('',*,*,#492,.F.);
#330=ORIENTED_EDGE('',*,*,#383,.F.);
#331=ORIENTED_EDGE('',*,*,#495,.T.);
#332=ORIENTED_EDGE('',*,*,#496,.T.);
#333=ORIENTED_EDGE('',*,*,#497,.F.);
#334=ORIENTED_EDGE('',*,*,#498,.F.);
#335=ORIENTED_EDGE('',*,*,#437,.T.);
#336=ORIENTED_EDGE('',*,*,#499,.F.);
#337=ORIENTED_EDGE('',*,*,#376,.F.);
#338=ORIENTED_EDGE('',*,*,#500,.T.);
#339=ORIENTED_EDGE('',*,*,#497,.T.);
#340=ORIENTED_EDGE('',*,*,#438,.F.);
#341=ORIENTED_EDGE('',*,*,#498,.T.);
#342=ORIENTED_EDGE('',*,*,#500,.F.);
#343=ORIENTED_EDGE('',*,*,#375,.T.);
#344=ORIENTED_EDGE('',*,*,#436,.T.);
#345=ORIENTED_EDGE('',*,*,#377,.F.);
#346=ORIENTED_EDGE('',*,*,#499,.T.);
#347=ORIENTED_EDGE('',*,*,#496,.F.);
#348=ORIENTED_EDGE('',*,*,#501,.T.);
#349=ORIENTED_EDGE('',*,*,#502,.F.);
#350=ORIENTED_EDGE('',*,*,#503,.F.);
#351=ORIENTED_EDGE('',*,*,#399,.T.);
#352=ORIENTED_EDGE('',*,*,#504,.F.);
#353=ORIENTED_EDGE('',*,*,#441,.F.);
#354=ORIENTED_EDGE('',*,*,#505,.T.);
#355=ORIENTED_EDGE('',*,*,#502,.T.);
#356=ORIENTED_EDGE('',*,*,#400,.F.);
#357=ORIENTED_EDGE('',*,*,#503,.T.);
#358=ORIENTED_EDGE('',*,*,#505,.F.);
#359=ORIENTED_EDGE('',*,*,#440,.F.);
#360=ORIENTED_EDGE('',*,*,#398,.T.);
#361=ORIENTED_EDGE('',*,*,#442,.T.);
#362=ORIENTED_EDGE('',*,*,#504,.T.);
#363=ORIENTED_EDGE('',*,*,#501,.F.);
#364=ORIENTED_EDGE('',*,*,#494,.F.);
#365=ORIENTED_EDGE('',*,*,#489,.F.);
#366=ORIENTED_EDGE('',*,*,#456,.T.);
#367=ORIENTED_EDGE('',*,*,#372,.T.);
#368=ORIENTED_EDGE('',*,*,#495,.F.);
#369=ORIENTED_EDGE('',*,*,#382,.F.);
#370=ORIENTED_EDGE('',*,*,#458,.T.);
#371=ORIENTED_EDGE('',*,*,#488,.T.);
#372=EDGE_CURVE('',#506,#507,#606,.T.);
#373=EDGE_CURVE('',#508,#506,#607,.T.);
#374=EDGE_CURVE('',#508,#509,#608,.T.);
#375=EDGE_CURVE('',#510,#509,#609,.T.);
#376=EDGE_CURVE('',#510,#511,#610,.T.);
#377=EDGE_CURVE('',#511,#512,#611,.T.);
#378=EDGE_CURVE('',#512,#513,#612,.T.);
#379=EDGE_CURVE('',#514,#513,#613,.T.);
#380=EDGE_CURVE('',#515,#514,#614,.T.);
#381=EDGE_CURVE('',#516,#515,#615,.T.);
#382=EDGE_CURVE('',#516,#517,#616,.T.);
#383=EDGE_CURVE('',#517,#518,#617,.T.);
#384=EDGE_CURVE('',#519,#518,#618,.T.);
#385=EDGE_CURVE('',#507,#519,#619,.T.);
#386=EDGE_CURVE('',#520,#521,#620,.T.);
#387=EDGE_CURVE('',#521,#522,#72,.T.);
#388=EDGE_CURVE('',#523,#522,#621,.T.);
#389=EDGE_CURVE('',#523,#520,#73,.T.);
#390=EDGE_CURVE('',#524,#525,#622,.T.);
#391=EDGE_CURVE('',#524,#526,#74,.T.);
#392=EDGE_CURVE('',#526,#527,#623,.T.);
#393=EDGE_CURVE('',#527,#528,#75,.T.);
#394=EDGE_CURVE('',#528,#529,#624,.T.);
#395=EDGE_CURVE('',#529,#530,#76,.T.);
#396=EDGE_CURVE('',#531,#530,#625,.T.);
#397=EDGE_CURVE('',#531,#525,#77,.T.);
#398=EDGE_CURVE('',#532,#533,#626,.T.);
#399=EDGE_CURVE('',#534,#532,#627,.T.);
#400=EDGE_CURVE('',#534,#535,#628,.T.);
#401=EDGE_CURVE('',#536,#535,#629,.T.);
#402=EDGE_CURVE('',#536,#537,#630,.T.);
#403=EDGE_CURVE('',#537,#538,#631,.T.);
#404=EDGE_CURVE('',#538,#539,#632,.T.);
#405=EDGE_CURVE('',#533,#539,#633,.T.);
#406=EDGE_CURVE('',#540,#541,#634,.T.);
#407=EDGE_CURVE('',#540,#542,#78,.T.);
#408=EDGE_CURVE('',#543,#542,#635,.T.);
#409=EDGE_CURVE('',#543,#544,#79,.T.);
#410=EDGE_CURVE('',#544,#545,#636,.T.);
#411=EDGE_CURVE('',#545,#546,#80,.T.);
#412=EDGE_CURVE('',#546,#547,#637,.T.);
#413=EDGE_CURVE('',#547,#541,#81,.T.);
#414=EDGE_CURVE('',#548,#548,#40,.T.);
#415=EDGE_CURVE('',#549,#549,#41,.T.);
#416=EDGE_CURVE('',#550,#550,#42,.T.);
#417=EDGE_CURVE('',#539,#513,#638,.T.);
#418=EDGE_CURVE('',#514,#538,#639,.T.);
#419=EDGE_CURVE('',#551,#551,#43,.T.);
#420=EDGE_CURVE('',#552,#553,#640,.T.);
#421=EDGE_CURVE('',#553,#554,#82,.T.);
#422=EDGE_CURVE('',#555,#554,#641,.T.);
#423=EDGE_CURVE('',#555,#552,#83,.T.);
#424=EDGE_CURVE('',#556,#557,#642,.T.);
#425=EDGE_CURVE('',#557,#558,#84,.T.);
#426=EDGE_CURVE('',#559,#558,#643,.T.);
#427=EDGE_CURVE('',#559,#556,#85,.T.);
#428=EDGE_CURVE('',#560,#561,#644,.T.);
#429=EDGE_CURVE('',#561,#562,#86,.T.);
#430=EDGE_CURVE('',#563,#562,#645,.T.);
#431=EDGE_CURVE('',#563,#560,#87,.T.);
#432=EDGE_CURVE('',#562,#557,#88,.T.);
#433=EDGE_CURVE('',#556,#553,#89,.T.);
#434=EDGE_CURVE('',#552,#523,#90,.T.);
#435=EDGE_CURVE('',#522,#563,#91,.T.);
#436=EDGE_CURVE('',#564,#512,#646,.T.);
#437=EDGE_CURVE('',#565,#564,#647,.T.);
#438=EDGE_CURVE('',#565,#509,#648,.T.);
#439=EDGE_CURVE('',#508,#536,#649,.T.);
#440=EDGE_CURVE('',#535,#566,#650,.T.);
#441=EDGE_CURVE('',#566,#567,#651,.T.);
#442=EDGE_CURVE('',#533,#567,#652,.T.);
#443=EDGE_CURVE('',#537,#515,#653,.T.);
#444=EDGE_CURVE('',#568,#568,#44,.T.);
#445=EDGE_CURVE('',#569,#569,#45,.T.);
#446=EDGE_CURVE('',#570,#570,#46,.T.);
#447=EDGE_CURVE('',#571,#571,#47,.F.);
#448=EDGE_CURVE('',#572,#572,#48,.T.);
#449=EDGE_CURVE('',#573,#573,#49,.T.);
#450=EDGE_CURVE('',#574,#574,#50,.T.);
#451=EDGE_CURVE('',#575,#575,#51,.F.);
#452=EDGE_CURVE('',#576,#576,#52,.F.);
#453=EDGE_CURVE('',#577,#577,#53,.F.);
#454=EDGE_CURVE('',#578,#578,#54,.F.);
#455=EDGE_CURVE('',#579,#579,#55,.F.);
#456=EDGE_CURVE('',#580,#506,#654,.T.);
#457=EDGE_CURVE('',#580,#581,#655,.T.);
#458=EDGE_CURVE('',#516,#581,#656,.T.);
#459=EDGE_CURVE('',#558,#561,#92,.T.);
#460=EDGE_CURVE('',#560,#521,#93,.T.);
#461=EDGE_CURVE('',#520,#555,#94,.T.);
#462=EDGE_CURVE('',#554,#559,#95,.T.);
#463=EDGE_CURVE('',#582,#582,#56,.T.);
#464=EDGE_CURVE('',#583,#583,#57,.F.);
#465=EDGE_CURVE('',#584,#584,#58,.T.);
#466=EDGE_CURVE('',#585,#585,#59,.F.);
#467=EDGE_CURVE('',#586,#586,#60,.T.);
#468=EDGE_CURVE('',#587,#587,#61,.F.);
#469=EDGE_CURVE('',#588,#588,#62,.T.);
#470=EDGE_CURVE('',#589,#589,#63,.F.);
#471=EDGE_CURVE('',#590,#590,#64,.T.);
#472=EDGE_CURVE('',#591,#591,#65,.T.);
#473=EDGE_CURVE('',#592,#592,#66,.T.);
#474=EDGE_CURVE('',#593,#593,#67,.F.);
#475=EDGE_CURVE('',#594,#594,#68,.T.);
#476=EDGE_CURVE('',#595,#595,#69,.T.);
#477=EDGE_CURVE('',#596,#596,#70,.T.);
#478=EDGE_CURVE('',#597,#597,#71,.F.);
#479=EDGE_CURVE('',#542,#527,#96,.T.);
#480=EDGE_CURVE('',#526,#543,#97,.T.);
#481=EDGE_CURVE('',#525,#545,#98,.T.);
#482=EDGE_CURVE('',#544,#524,#99,.T.);
#483=EDGE_CURVE('',#530,#547,#100,.T.);
#484=EDGE_CURVE('',#546,#531,#101,.T.);
#485=EDGE_CURVE('',#541,#529,#102,.T.);
#486=EDGE_CURVE('',#528,#540,#103,.T.);
#487=EDGE_CURVE('',#598,#599,#657,.T.);
#488=EDGE_CURVE('',#581,#598,#658,.T.);
#489=EDGE_CURVE('',#580,#600,#659,.T.);
#490=EDGE_CURVE('',#600,#601,#660,.T.);
#491=EDGE_CURVE('',#601,#599,#661,.T.);
#492=EDGE_CURVE('',#518,#599,#662,.T.);
#493=EDGE_CURVE('',#519,#601,#663,.T.);
#494=EDGE_CURVE('',#600,#507,#664,.T.);
#495=EDGE_CURVE('',#517,#598,#665,.T.);
#496=EDGE_CURVE('',#564,#602,#666,.T.);
#497=EDGE_CURVE('',#603,#602,#667,.T.);
#498=EDGE_CURVE('',#565,#603,#668,.T.);
#499=EDGE_CURVE('',#511,#602,#669,.T.);
#500=EDGE_CURVE('',#510,#603,#670,.T.);
#501=EDGE_CURVE('',#532,#604,#671,.T.);
#502=EDGE_CURVE('',#605,#604,#672,.T.);
#503=EDGE_CURVE('',#534,#605,#673,.T.);
#504=EDGE_CURVE('',#567,#604,#674,.T.);
#505=EDGE_CURVE('',#566,#605,#675,.T.);
#506=VERTEX_POINT('',#1431);
#507=VERTEX_POINT('',#1432);
#508=VERTEX_POINT('',#1434);
#509=VERTEX_POINT('',#1436);
#510=VERTEX_POINT('',#1438);
#511=VERTEX_POINT('',#1440);
#512=VERTEX_POINT('',#1442);
#513=VERTEX_POINT('',#1444);
#514=VERTEX_POINT('',#1446);
#515=VERTEX_POINT('',#1448);
#516=VERTEX_POINT('',#1450);
#517=VERTEX_POINT('',#1452);
#518=VERTEX_POINT('',#1454);
#519=VERTEX_POINT('',#1456);
#520=VERTEX_POINT('',#1460);
#521=VERTEX_POINT('',#1461);
#522=VERTEX_POINT('',#1466);
#523=VERTEX_POINT('',#1468);
#524=VERTEX_POINT('',#1474);
#525=VERTEX_POINT('',#1475);
#526=VERTEX_POINT('',#1481);
#527=VERTEX_POINT('',#1483);
#528=VERTEX_POINT('',#1489);
#529=VERTEX_POINT('',#1491);
#530=VERTEX_POINT('',#1497);
#531=VERTEX_POINT('',#1499);
#532=VERTEX_POINT('',#1507);
#533=VERTEX_POINT('',#1508);
#534=VERTEX_POINT('',#1510);
#535=VERTEX_POINT('',#1512);
#536=VERTEX_POINT('',#1514);
#537=VERTEX_POINT('',#1516);
#538=VERTEX_POINT('',#1518);
#539=VERTEX_POINT('',#1520);
#540=VERTEX_POINT('',#1523);
#541=VERTEX_POINT('',#1524);
#542=VERTEX_POINT('',#1530);
#543=VERTEX_POINT('',#1532);
#544=VERTEX_POINT('',#1538);
#545=VERTEX_POINT('',#1540);
#546=VERTEX_POINT('',#1546);
#547=VERTEX_POINT('',#1548);
#548=VERTEX_POINT('',#1556);
#549=VERTEX_POINT('',#1558);
#550=VERTEX_POINT('',#1560);
#551=VERTEX_POINT('',#1564);
#552=VERTEX_POINT('',#1567);
#553=VERTEX_POINT('',#1568);
#554=VERTEX_POINT('',#1573);
#555=VERTEX_POINT('',#1575);
#556=VERTEX_POINT('',#1582);
#557=VERTEX_POINT('',#1583);
#558=VERTEX_POINT('',#1588);
#559=VERTEX_POINT('',#1590);
#560=VERTEX_POINT('',#1597);
#561=VERTEX_POINT('',#1598);
#562=VERTEX_POINT('',#1603);
#563=VERTEX_POINT('',#1605);
#564=VERTEX_POINT('',#1629);
#565=VERTEX_POINT('',#1631);
#566=VERTEX_POINT('',#1635);
#567=VERTEX_POINT('',#1637);
#568=VERTEX_POINT('',#1643);
#569=VERTEX_POINT('',#1645);
#570=VERTEX_POINT('',#1648);
#571=VERTEX_POINT('',#1650);
#572=VERTEX_POINT('',#1653);
#573=VERTEX_POINT('',#1655);
#574=VERTEX_POINT('',#1658);
#575=VERTEX_POINT('',#1660);
#576=VERTEX_POINT('',#1663);
#577=VERTEX_POINT('',#1665);
#578=VERTEX_POINT('',#1667);
#579=VERTEX_POINT('',#1669);
#580=VERTEX_POINT('',#1671);
#581=VERTEX_POINT('',#1673);
#582=VERTEX_POINT('',#1697);
#583=VERTEX_POINT('',#1699);
#584=VERTEX_POINT('',#1702);
#585=VERTEX_POINT('',#1705);
#586=VERTEX_POINT('',#1709);
#587=VERTEX_POINT('',#1711);
#588=VERTEX_POINT('',#1714);
#589=VERTEX_POINT('',#1717);
#590=VERTEX_POINT('',#1721);
#591=VERTEX_POINT('',#1724);
#592=VERTEX_POINT('',#1726);
#593=VERTEX_POINT('',#1729);
#594=VERTEX_POINT('',#1732);
#595=VERTEX_POINT('',#1735);
#596=VERTEX_POINT('',#1737);
#597=VERTEX_POINT('',#1740);
#598=VERTEX_POINT('',#1853);
#599=VERTEX_POINT('',#1854);
#600=VERTEX_POINT('',#1857);
#601=VERTEX_POINT('',#1859);
#602=VERTEX_POINT('',#1870);
#603=VERTEX_POINT('',#1872);
#604=VERTEX_POINT('',#1881);
#605=VERTEX_POINT('',#1883);
#606=LINE('',#1430,#676);
#607=LINE('',#1433,#677);
#608=LINE('',#1435,#678);
#609=LINE('',#1437,#679);
#610=LINE('',#1439,#680);
#611=LINE('',#1441,#681);
#612=LINE('',#1443,#682);
#613=LINE('',#1445,#683);
#614=LINE('',#1447,#684);
#615=LINE('',#1449,#685);
#616=LINE('',#1451,#686);
#617=LINE('',#1453,#687);
#618=LINE('',#1455,#688);
#619=LINE('',#1457,#689);
#620=LINE('',#1459,#690);
#621=LINE('',#1467,#691);
#622=LINE('',#1473,#692);
#623=LINE('',#1482,#693);
#624=LINE('',#1490,#694);
#625=LINE('',#1498,#695);
#626=LINE('',#1506,#696);
#627=LINE('',#1509,#697);
#628=LINE('',#1511,#698);
#629=LINE('',#1513,#699);
#630=LINE('',#1515,#700);
#631=LINE('',#1517,#701);
#632=LINE('',#1519,#702);
#633=LINE('',#1521,#703);
#634=LINE('',#1522,#704);
#635=LINE('',#1531,#705);
#636=LINE('',#1539,#706);
#637=LINE('',#1547,#707);
#638=LINE('',#1561,#708);
#639=LINE('',#1562,#709);
#640=LINE('',#1566,#710);
#641=LINE('',#1574,#711);
#642=LINE('',#1581,#712);
#643=LINE('',#1589,#713);
#644=LINE('',#1596,#714);
#645=LINE('',#1604,#715);
#646=LINE('',#1628,#716);
#647=LINE('',#1630,#717);
#648=LINE('',#1632,#718);
#649=LINE('',#1633,#719);
#650=LINE('',#1634,#720);
#651=LINE('',#1636,#721);
#652=LINE('',#1638,#722);
#653=LINE('',#1640,#723);
#654=LINE('',#1670,#724);
#655=LINE('',#1672,#725);
#656=LINE('',#1674,#726);
#657=LINE('',#1852,#727);
#658=LINE('',#1855,#728);
#659=LINE('',#1856,#729);
#660=LINE('',#1858,#730);
#661=LINE('',#1860,#731);
#662=LINE('',#1862,#732);
#663=LINE('',#1863,#733);
#664=LINE('',#1865,#734);
#665=LINE('',#1867,#735);
#666=LINE('',#1869,#736);
#667=LINE('',#1871,#737);
#668=LINE('',#1873,#738);
#669=LINE('',#1875,#739);
#670=LINE('',#1876,#740);
#671=LINE('',#1880,#741);
#672=LINE('',#1882,#742);
#673=LINE('',#1884,#743);
#674=LINE('',#1886,#744);
#675=LINE('',#1887,#745);
#676=VECTOR('',#1174,1.);
#677=VECTOR('',#1175,1.);
#678=VECTOR('',#1176,1.);
#679=VECTOR('',#1177,1.);
#680=VECTOR('',#1178,1.);
#681=VECTOR('',#1179,1.);
#682=VECTOR('',#1180,1.);
#683=VECTOR('',#1181,1.);
#684=VECTOR('',#1182,1.);
#685=VECTOR('',#1183,1.);
#686=VECTOR('',#1184,1.);
#687=VECTOR('',#1185,1.);
#688=VECTOR('',#1186,1.);
#689=VECTOR('',#1187,1.);
#690=VECTOR('',#1190,1.);
#691=VECTOR('',#1191,1.);
#692=VECTOR('',#1192,1.);
#693=VECTOR('',#1193,1.);
#694=VECTOR('',#1194,1.);
#695=VECTOR('',#1195,1.);
#696=VECTOR('',#1198,1.);
#697=VECTOR('',#1199,1.);
#698=VECTOR('',#1200,1.);
#699=VECTOR('',#1201,1.);
#700=VECTOR('',#1202,1.);
#701=VECTOR('',#1203,1.);
#702=VECTOR('',#1204,1.);
#703=VECTOR('',#1205,1.);
#704=VECTOR('',#1206,1.);
#705=VECTOR('',#1207,1.);
#706=VECTOR('',#1208,1.);
#707=VECTOR('',#1209,1.);
#708=VECTOR('',#1218,1.);
#709=VECTOR('',#1219,1.);
#710=VECTOR('',#1224,1.);
#711=VECTOR('',#1225,1.);
#712=VECTOR('',#1228,1.);
#713=VECTOR('',#1229,1.);
#714=VECTOR('',#1232,1.);
#715=VECTOR('',#1233,1.);
#716=VECTOR('',#1238,1.);
#717=VECTOR('',#1239,1.);
#718=VECTOR('',#1240,1.);
#719=VECTOR('',#1241,1.);
#720=VECTOR('',#1242,1.);
#721=VECTOR('',#1243,1.);
#722=VECTOR('',#1244,1.);
#723=VECTOR('',#1247,1.);
#724=VECTOR('',#1282,1.);
#725=VECTOR('',#1283,1.);
#726=VECTOR('',#1284,1.);
#727=VECTOR('',#1383,1.);
#728=VECTOR('',#1384,1.);
#729=VECTOR('',#1385,1.);
#730=VECTOR('',#1386,1.);
#731=VECTOR('',#1387,1.);
#732=VECTOR('',#1390,1.);
#733=VECTOR('',#1391,1.);
#734=VECTOR('',#1394,1.);
#735=VECTOR('',#1397,1.);
#736=VECTOR('',#1400,1.);
#737=VECTOR('',#1401,1.);
#738=VECTOR('',#1402,1.);
#739=VECTOR('',#1405,1.);
#740=VECTOR('',#1406,1.);
#741=VECTOR('',#1413,1.);
#742=VECTOR('',#1414,1.);
#743=VECTOR('',#1415,1.);
#744=VECTOR('',#1418,1.);
#745=VECTOR('',#1419,1.);
#746=EDGE_LOOP('',(#104,#105,#106,#107,#108,#109,#110,#111,#112,#113,#114,
#115,#116,#117));
#747=EDGE_LOOP('',(#118,#119,#120,#121));
#748=EDGE_LOOP('',(#122,#123,#124,#125,#126,#127,#128,#129));
#749=EDGE_LOOP('',(#130,#131,#132,#133,#134,#135,#136,#137));
#750=EDGE_LOOP('',(#138,#139,#140,#141,#142,#143,#144,#145));
#751=EDGE_LOOP('',(#146));
#752=EDGE_LOOP('',(#147));
#753=EDGE_LOOP('',(#148));
#754=EDGE_LOOP('',(#149,#150,#151,#152));
#755=EDGE_LOOP('',(#153));
#756=EDGE_LOOP('',(#154,#155,#156,#157));
#757=EDGE_LOOP('',(#158,#159,#160,#161));
#758=EDGE_LOOP('',(#162,#163,#164,#165));
#759=EDGE_LOOP('',(#166,#167,#168,#169,#170,#171,#172,#173));
#760=EDGE_LOOP('',(#174,#175,#176,#177,#178,#179,#180,#181,#182,#183,#184,
#185));
#761=EDGE_LOOP('',(#186,#187,#188,#189));
#762=EDGE_LOOP('',(#190));
#763=EDGE_LOOP('',(#191));
#764=EDGE_LOOP('',(#192));
#765=EDGE_LOOP('',(#193));
#766=EDGE_LOOP('',(#194));
#767=EDGE_LOOP('',(#195));
#768=EDGE_LOOP('',(#196));
#769=EDGE_LOOP('',(#197));
#770=EDGE_LOOP('',(#198));
#771=EDGE_LOOP('',(#199));
#772=EDGE_LOOP('',(#200));
#773=EDGE_LOOP('',(#201));
#774=EDGE_LOOP('',(#202,#203,#204,#205,#206,#207,#208,#209));
#775=EDGE_LOOP('',(#210,#211,#212,#213,#214,#215,#216,#217));
#776=EDGE_LOOP('',(#218));
#777=EDGE_LOOP('',(#219));
#778=EDGE_LOOP('',(#220));
#779=EDGE_LOOP('',(#221));
#780=EDGE_LOOP('',(#222));
#781=EDGE_LOOP('',(#223));
#782=EDGE_LOOP('',(#224));
#783=EDGE_LOOP('',(#225));
#784=EDGE_LOOP('',(#226));
#785=EDGE_LOOP('',(#227));
#786=EDGE_LOOP('',(#228));
#787=EDGE_LOOP('',(#229));
#788=EDGE_LOOP('',(#230));
#789=EDGE_LOOP('',(#231));
#790=EDGE_LOOP('',(#232));
#791=EDGE_LOOP('',(#233));
#792=EDGE_LOOP('',(#234));
#793=EDGE_LOOP('',(#235));
#794=EDGE_LOOP('',(#236));
#795=EDGE_LOOP('',(#237));
#796=EDGE_LOOP('',(#238));
#797=EDGE_LOOP('',(#239));
#798=EDGE_LOOP('',(#240));
#799=EDGE_LOOP('',(#241));
#800=EDGE_LOOP('',(#242));
#801=EDGE_LOOP('',(#243));
#802=EDGE_LOOP('',(#244));
#803=EDGE_LOOP('',(#245));
#804=EDGE_LOOP('',(#246));
#805=EDGE_LOOP('',(#247));
#806=EDGE_LOOP('',(#248));
#807=EDGE_LOOP('',(#249));
#808=EDGE_LOOP('',(#250,#251,#252,#253));
#809=EDGE_LOOP('',(#254,#255,#256,#257));
#810=EDGE_LOOP('',(#258,#259,#260,#261));
#811=EDGE_LOOP('',(#262,#263,#264,#265));
#812=EDGE_LOOP('',(#266));
#813=EDGE_LOOP('',(#267));
#814=EDGE_LOOP('',(#268));
#815=EDGE_LOOP('',(#269));
#816=EDGE_LOOP('',(#270));
#817=EDGE_LOOP('',(#271));
#818=EDGE_LOOP('',(#272));
#819=EDGE_LOOP('',(#273));
#820=EDGE_LOOP('',(#274));
#821=EDGE_LOOP('',(#275));
#822=EDGE_LOOP('',(#276));
#823=EDGE_LOOP('',(#277));
#824=EDGE_LOOP('',(#278));
#825=EDGE_LOOP('',(#279));
#826=EDGE_LOOP('',(#280));
#827=EDGE_LOOP('',(#281));
#828=EDGE_LOOP('',(#282,#283,#284,#285));
#829=EDGE_LOOP('',(#286,#287,#288,#289));
#830=EDGE_LOOP('',(#290,#291,#292,#293));
#831=EDGE_LOOP('',(#294,#295,#296,#297));
#832=EDGE_LOOP('',(#298,#299,#300,#301));
#833=EDGE_LOOP('',(#302,#303,#304,#305));
#834=EDGE_LOOP('',(#306,#307,#308,#309));
#835=EDGE_LOOP('',(#310,#311,#312,#313));
#836=EDGE_LOOP('',(#314,#315,#316,#317,#318,#319));
#837=EDGE_LOOP('',(#320,#321,#322,#323));
#838=EDGE_LOOP('',(#324,#325,#326,#327));
#839=EDGE_LOOP('',(#328,#329,#330,#331));
#840=EDGE_LOOP('',(#332,#333,#334,#335));
#841=EDGE_LOOP('',(#336,#337,#338,#339));
#842=EDGE_LOOP('',(#340,#341,#342,#343));
#843=EDGE_LOOP('',(#344,#345,#346,#347));
#844=EDGE_LOOP('',(#348,#349,#350,#351));
#845=EDGE_LOOP('',(#352,#353,#354,#355));
#846=EDGE_LOOP('',(#356,#357,#358,#359));
#847=EDGE_LOOP('',(#360,#361,#362,#363));
#848=EDGE_LOOP('',(#364,#365,#366,#367));
#849=EDGE_LOOP('',(#368,#369,#370,#371));
#850=FACE_BOUND('',#746,.T.);
#851=FACE_BOUND('',#747,.T.);
#852=FACE_BOUND('',#748,.T.);
#853=FACE_BOUND('',#749,.T.);
#854=FACE_BOUND('',#750,.T.);
#855=FACE_BOUND('',#751,.T.);
#856=FACE_BOUND('',#752,.T.);
#857=FACE_BOUND('',#753,.T.);
#858=FACE_BOUND('',#754,.T.);
#859=FACE_BOUND('',#755,.T.);
#860=FACE_BOUND('',#756,.T.);
#861=FACE_BOUND('',#757,.T.);
#862=FACE_BOUND('',#758,.T.);
#863=FACE_BOUND('',#759,.T.);
#864=FACE_BOUND('',#760,.T.);
#865=FACE_BOUND('',#761,.T.);
#866=FACE_BOUND('',#762,.T.);
#867=FACE_BOUND('',#763,.T.);
#868=FACE_BOUND('',#764,.T.);
#869=FACE_BOUND('',#765,.T.);
#870=FACE_BOUND('',#766,.T.);
#871=FACE_BOUND('',#767,.T.);
#872=FACE_BOUND('',#768,.T.);
#873=FACE_BOUND('',#769,.T.);
#874=FACE_BOUND('',#770,.T.);
#875=FACE_BOUND('',#771,.T.);
#876=FACE_BOUND('',#772,.T.);
#877=FACE_BOUND('',#773,.T.);
#878=FACE_BOUND('',#774,.T.);
#879=FACE_BOUND('',#775,.T.);
#880=FACE_BOUND('',#776,.T.);
#881=FACE_BOUND('',#777,.T.);
#882=FACE_BOUND('',#778,.T.);
#883=FACE_BOUND('',#779,.T.);
#884=FACE_BOUND('',#780,.T.);
#885=FACE_BOUND('',#781,.T.);
#886=FACE_BOUND('',#782,.T.);
#887=FACE_BOUND('',#783,.T.);
#888=FACE_BOUND('',#784,.T.);
#889=FACE_BOUND('',#785,.T.);
#890=FACE_BOUND('',#786,.T.);
#891=FACE_BOUND('',#787,.T.);
#892=FACE_BOUND('',#788,.T.);
#893=FACE_BOUND('',#789,.T.);
#894=FACE_BOUND('',#790,.T.);
#895=FACE_BOUND('',#791,.T.);
#896=FACE_BOUND('',#792,.T.);
#897=FACE_BOUND('',#793,.T.);
#898=FACE_BOUND('',#794,.T.);
#899=FACE_BOUND('',#795,.T.);
#900=FACE_BOUND('',#796,.T.);
#901=FACE_BOUND('',#797,.T.);
#902=FACE_BOUND('',#798,.T.);
#903=FACE_BOUND('',#799,.T.);
#904=FACE_BOUND('',#800,.T.);
#905=FACE_BOUND('',#801,.T.);
#906=FACE_BOUND('',#802,.T.);
#907=FACE_BOUND('',#803,.T.);
#908=FACE_BOUND('',#804,.T.);
#909=FACE_BOUND('',#805,.T.);
#910=FACE_BOUND('',#806,.T.);
#911=FACE_BOUND('',#807,.T.);
#912=FACE_BOUND('',#808,.T.);
#913=FACE_BOUND('',#809,.T.);
#914=FACE_BOUND('',#810,.T.);
#915=FACE_BOUND('',#811,.T.);
#916=FACE_BOUND('',#812,.T.);
#917=FACE_BOUND('',#813,.T.);
#918=FACE_BOUND('',#814,.T.);
#919=FACE_BOUND('',#815,.T.);
#920=FACE_BOUND('',#816,.T.);
#921=FACE_BOUND('',#817,.T.);
#922=FACE_BOUND('',#818,.T.);
#923=FACE_BOUND('',#819,.T.);
#924=FACE_BOUND('',#820,.T.);
#925=FACE_BOUND('',#821,.T.);
#926=FACE_BOUND('',#822,.T.);
#927=FACE_BOUND('',#823,.T.);
#928=FACE_BOUND('',#824,.T.);
#929=FACE_BOUND('',#825,.T.);
#930=FACE_BOUND('',#826,.T.);
#931=FACE_BOUND('',#827,.T.);
#932=FACE_BOUND('',#828,.T.);
#933=FACE_BOUND('',#829,.T.);
#934=FACE_BOUND('',#830,.T.);
#935=FACE_BOUND('',#831,.T.);
#936=FACE_BOUND('',#832,.T.);
#937=FACE_BOUND('',#833,.T.);
#938=FACE_BOUND('',#834,.T.);
#939=FACE_BOUND('',#835,.T.);
#940=FACE_BOUND('',#836,.T.);
#941=FACE_BOUND('',#837,.T.);
#942=FACE_BOUND('',#838,.T.);
#943=FACE_BOUND('',#839,.T.);
#944=FACE_BOUND('',#840,.T.);
#945=FACE_BOUND('',#841,.T.);
#946=FACE_BOUND('',#842,.T.);
#947=FACE_BOUND('',#843,.T.);
#948=FACE_BOUND('',#844,.T.);
#949=FACE_BOUND('',#845,.T.);
#950=FACE_BOUND('',#846,.T.);
#951=FACE_BOUND('',#847,.T.);
#952=FACE_BOUND('',#848,.T.);
#953=FACE_BOUND('',#849,.T.);
#954=PLANE('',#1077);
#955=PLANE('',#1078);
#956=PLANE('',#1079);
#957=PLANE('',#1080);
#958=PLANE('',#1085);
#959=PLANE('',#1086);
#960=PLANE('',#1087);
#961=PLANE('',#1088);
#962=PLANE('',#1089);
#963=PLANE('',#1090);
#964=PLANE('',#1103);
#965=PLANE('',#1108);
#966=PLANE('',#1109);
#967=PLANE('',#1110);
#968=PLANE('',#1111);
#969=PLANE('',#1117);
#970=PLANE('',#1119);
#971=PLANE('',#1125);
#972=PLANE('',#1127);
#973=PLANE('',#1133);
#974=PLANE('',#1140);
#975=PLANE('',#1142);
#976=PLANE('',#1143);
#977=PLANE('',#1152);
#978=PLANE('',#1153);
#979=PLANE('',#1154);
#980=PLANE('',#1155);
#981=PLANE('',#1156);
#982=PLANE('',#1157);
#983=PLANE('',#1158);
#984=PLANE('',#1159);
#985=PLANE('',#1160);
#986=PLANE('',#1161);
#987=PLANE('',#1162);
#988=PLANE('',#1163);
#989=PLANE('',#1164);
#990=PLANE('',#1165);
#991=PLANE('',#1166);
#992=PLANE('',#1167);
#993=PLANE('',#1168);
#994=PLANE('',#1169);
#995=ADVANCED_FACE('',(#850),#954,.F.);
#996=ADVANCED_FACE('',(#851,#852),#955,.T.);
#997=ADVANCED_FACE('',(#853,#854),#956,.T.);
#998=ADVANCED_FACE('',(#855,#856,#857,#858,#859),#957,.T.);
#999=ADVANCED_FACE('',(#860),#958,.F.);
#1000=ADVANCED_FACE('',(#861),#959,.F.);
#1001=ADVANCED_FACE('',(#862),#960,.T.);
#1002=ADVANCED_FACE('',(#863),#961,.F.);
#1003=ADVANCED_FACE('',(#864),#962,.T.);
#1004=ADVANCED_FACE('',(#865),#963,.T.);
#1005=ADVANCED_FACE('',(#866,#867),#28,.F.);
#1006=ADVANCED_FACE('',(#868,#869),#29,.F.);
#1007=ADVANCED_FACE('',(#870,#871),#30,.F.);
#1008=ADVANCED_FACE('',(#872,#873),#31,.F.);
#1009=ADVANCED_FACE('',(#874,#875,#876,#877,#878,#879),#964,.T.);
#1010=ADVANCED_FACE('',(#880),#965,.T.);
#1011=ADVANCED_FACE('',(#881),#966,.T.);
#1012=ADVANCED_FACE('',(#882),#967,.T.);
#1013=ADVANCED_FACE('',(#883),#968,.T.);
#1014=ADVANCED_FACE('',(#884,#885),#32,.F.);
#1015=ADVANCED_FACE('',(#886,#887),#33,.T.);
#1016=ADVANCED_FACE('',(#888,#889),#969,.T.);
#1017=ADVANCED_FACE('',(#890),#970,.T.);
#1018=ADVANCED_FACE('',(#891,#892),#34,.F.);
#1019=ADVANCED_FACE('',(#893,#894),#35,.T.);
#1020=ADVANCED_FACE('',(#895,#896),#971,.T.);
#1021=ADVANCED_FACE('',(#897),#972,.T.);
#1022=ADVANCED_FACE('',(#898,#899),#36,.T.);
#1023=ADVANCED_FACE('',(#900,#901),#37,.F.);
#1024=ADVANCED_FACE('',(#902,#903),#973,.T.);
#1025=ADVANCED_FACE('',(#904,#905),#38,.T.);
#1026=ADVANCED_FACE('',(#906,#907),#39,.F.);
#1027=ADVANCED_FACE('',(#908,#909),#974,.T.);
#1028=ADVANCED_FACE('',(#910),#975,.T.);
#1029=ADVANCED_FACE('',(#911),#976,.T.);
#1030=ADVANCED_FACE('',(#912),#20,.T.);
#1031=ADVANCED_FACE('',(#913),#21,.T.);
#1032=ADVANCED_FACE('',(#914),#22,.T.);
#1033=ADVANCED_FACE('',(#915),#23,.T.);
#1034=ADVANCED_FACE('',(#916,#917),#12,.F.);
#1035=ADVANCED_FACE('',(#918,#919),#13,.F.);
#1036=ADVANCED_FACE('',(#920,#921),#14,.F.);
#1037=ADVANCED_FACE('',(#922,#923),#15,.F.);
#1038=ADVANCED_FACE('',(#924,#925),#16,.F.);
#1039=ADVANCED_FACE('',(#926,#927),#17,.F.);
#1040=ADVANCED_FACE('',(#928,#929),#18,.F.);
#1041=ADVANCED_FACE('',(#930,#931),#19,.F.);
#1042=ADVANCED_FACE('',(#932),#977,.T.);
#1043=ADVANCED_FACE('',(#933),#978,.F.);
#1044=ADVANCED_FACE('',(#934),#979,.F.);
#1045=ADVANCED_FACE('',(#935),#980,.T.);
#1046=ADVANCED_FACE('',(#936),#24,.F.);
#1047=ADVANCED_FACE('',(#937),#25,.F.);
#1048=ADVANCED_FACE('',(#938),#26,.F.);
#1049=ADVANCED_FACE('',(#939),#27,.F.);
#1050=ADVANCED_FACE('',(#940),#981,.T.);
#1051=ADVANCED_FACE('',(#941),#982,.F.);
#1052=ADVANCED_FACE('',(#942),#983,.T.);
#1053=ADVANCED_FACE('',(#943),#984,.F.);
#1054=ADVANCED_FACE('',(#944),#985,.F.);
#1055=ADVANCED_FACE('',(#945),#986,.T.);
#1056=ADVANCED_FACE('',(#946),#987,.T.);
#1057=ADVANCED_FACE('',(#947),#988,.F.);
#1058=ADVANCED_FACE('',(#948),#989,.F.);
#1059=ADVANCED_FACE('',(#949),#990,.T.);
#1060=ADVANCED_FACE('',(#950),#991,.T.);
#1061=ADVANCED_FACE('',(#951),#992,.F.);
#1062=ADVANCED_FACE('',(#952),#993,.T.);
#1063=ADVANCED_FACE('',(#953),#994,.T.);
#1064=CLOSED_SHELL('',(#995,#996,#997,#998,#999,#1000,#1001,#1002,#1003,
#1004,#1005,#1006,#1007,#1008,#1009,#1010,#1011,#1012,#1013,#1014,#1015,
#1016,#1017,#1018,#1019,#1020,#1021,#1022,#1023,#1024,#1025,#1026,#1027,
#1028,#1029,#1030,#1031,#1032,#1033,#1034,#1035,#1036,#1037,#1038,#1039,
#1040,#1041,#1042,#1043,#1044,#1045,#1046,#1047,#1048,#1049,#1050,#1051,
#1052,#1053,#1054,#1055,#1056,#1057,#1058,#1059,#1060,#1061,#1062,#1063));
#1065=STYLED_ITEM('',(#1066),#1073);
#1066=PRESENTATION_STYLE_ASSIGNMENT((#1067));
#1067=SURFACE_STYLE_USAGE(.BOTH.,#1068);
#1068=SURFACE_SIDE_STYLE('',(#1069));
#1069=SURFACE_STYLE_FILL_AREA(#1070);
#1070=FILL_AREA_STYLE('',(#1071));
#1071=FILL_AREA_STYLE_COLOUR('',#1072);
#1072=COLOUR_RGB('',0.615686274509804,0.811764705882353,0.929411764705882);
#1073=MANIFOLD_SOLID_BREP('enclosure base',#1064);
#1074=SHAPE_DEFINITION_REPRESENTATION(#1898,#1075);
#1075=SHAPE_REPRESENTATION('enclosure base',(#1076),#1893);
#1076=AXIS2_PLACEMENT_3D('',#1428,#1170,#1171);
#1077=AXIS2_PLACEMENT_3D('',#1429,#1172,#1173);
#1078=AXIS2_PLACEMENT_3D('',#1458,#1188,#1189);
#1079=AXIS2_PLACEMENT_3D('',#1505,#1196,#1197);
#1080=AXIS2_PLACEMENT_3D('',#1554,#1210,#1211);
#1081=AXIS2_PLACEMENT_3D('',#1555,#1212,#1213);
#1082=AXIS2_PLACEMENT_3D('',#1557,#1214,#1215);
#1083=AXIS2_PLACEMENT_3D('',#1559,#1216,#1217);
#1084=AXIS2_PLACEMENT_3D('',#1563,#1220,#1221);
#1085=AXIS2_PLACEMENT_3D('',#1565,#1222,#1223);
#1086=AXIS2_PLACEMENT_3D('',#1580,#1226,#1227);
#1087=AXIS2_PLACEMENT_3D('',#1595,#1230,#1231);
#1088=AXIS2_PLACEMENT_3D('',#1610,#1234,#1235);
#1089=AXIS2_PLACEMENT_3D('',#1627,#1236,#1237);
#1090=AXIS2_PLACEMENT_3D('',#1639,#1245,#1246);
#1091=AXIS2_PLACEMENT_3D('',#1641,#1248,#1249);
#1092=AXIS2_PLACEMENT_3D('',#1642,#1250,#1251);
#1093=AXIS2_PLACEMENT_3D('',#1644,#1252,#1253);
#1094=AXIS2_PLACEMENT_3D('',#1646,#1254,#1255);
#1095=AXIS2_PLACEMENT_3D('',#1647,#1256,#1257);
#1096=AXIS2_PLACEMENT_3D('',#1649,#1258,#1259);
#1097=AXIS2_PLACEMENT_3D('',#1651,#1260,#1261);
#1098=AXIS2_PLACEMENT_3D('',#1652,#1262,#1263);
#1099=AXIS2_PLACEMENT_3D('',#1654,#1264,#1265);
#1100=AXIS2_PLACEMENT_3D('',#1656,#1266,#1267);
#1101=AXIS2_PLACEMENT_3D('',#1657,#1268,#1269);
#1102=AXIS2_PLACEMENT_3D('',#1659,#1270,#1271);
#1103=AXIS2_PLACEMENT_3D('',#1661,#1272,#1273);
#1104=AXIS2_PLACEMENT_3D('',#1662,#1274,#1275);
#1105=AXIS2_PLACEMENT_3D('',#1664,#1276,#1277);
#1106=AXIS2_PLACEMENT_3D('',#1666,#1278,#1279);
#1107=AXIS2_PLACEMENT_3D('',#1668,#1280,#1281);
#1108=AXIS2_PLACEMENT_3D('',#1691,#1285,#1286);
#1109=AXIS2_PLACEMENT_3D('',#1692,#1287,#1288);
#1110=AXIS2_PLACEMENT_3D('',#1693,#1289,#1290);
#1111=AXIS2_PLACEMENT_3D('',#1694,#1291,#1292);
#1112=AXIS2_PLACEMENT_3D('',#1695,#1293,#1294);
#1113=AXIS2_PLACEMENT_3D('',#1696,#1295,#1296);
#1114=AXIS2_PLACEMENT_3D('',#1698,#1297,#1298);
#1115=AXIS2_PLACEMENT_3D('',#1700,#1299,#1300);
#1116=AXIS2_PLACEMENT_3D('',#1701,#1301,#1302);
#1117=AXIS2_PLACEMENT_3D('',#1703,#1303,#1304);
#1118=AXIS2_PLACEMENT_3D('',#1704,#1305,#1306);
#1119=AXIS2_PLACEMENT_3D('',#1706,#1307,#1308);
#1120=AXIS2_PLACEMENT_3D('',#1707,#1309,#1310);
#1121=AXIS2_PLACEMENT_3D('',#1708,#1311,#1312);
#1122=AXIS2_PLACEMENT_3D('',#1710,#1313,#1314);
#1123=AXIS2_PLACEMENT_3D('',#1712,#1315,#1316);
#1124=AXIS2_PLACEMENT_3D('',#1713,#1317,#1318);
#1125=AXIS2_PLACEMENT_3D('',#1715,#1319,#1320);
#1126=AXIS2_PLACEMENT_3D('',#1716,#1321,#1322);
#1127=AXIS2_PLACEMENT_3D('',#1718,#1323,#1324);
#1128=AXIS2_PLACEMENT_3D('',#1719,#1325,#1326);
#1129=AXIS2_PLACEMENT_3D('',#1720,#1327,#1328);
#1130=AXIS2_PLACEMENT_3D('',#1722,#1329,#1330);
#1131=AXIS2_PLACEMENT_3D('',#1723,#1331,#1332);
#1132=AXIS2_PLACEMENT_3D('',#1725,#1333,#1334);
#1133=AXIS2_PLACEMENT_3D('',#1727,#1335,#1336);
#1134=AXIS2_PLACEMENT_3D('',#1728,#1337,#1338);
#1135=AXIS2_PLACEMENT_3D('',#1730,#1339,#1340);
#1136=AXIS2_PLACEMENT_3D('',#1731,#1341,#1342);
#1137=AXIS2_PLACEMENT_3D('',#1733,#1343,#1344);
#1138=AXIS2_PLACEMENT_3D('',#1734,#1345,#1346);
#1139=AXIS2_PLACEMENT_3D('',#1736,#1347,#1348);
#1140=AXIS2_PLACEMENT_3D('',#1738,#1349,#1350);
#1141=AXIS2_PLACEMENT_3D('',#1739,#1351,#1352);
#1142=AXIS2_PLACEMENT_3D('',#1741,#1353,#1354);
#1143=AXIS2_PLACEMENT_3D('',#1742,#1355,#1356);
#1144=AXIS2_PLACEMENT_3D('',#1775,#1357,#1358);
#1145=AXIS2_PLACEMENT_3D('',#1776,#1359,#1360);
#1146=AXIS2_PLACEMENT_3D('',#1777,#1361,#1362);
#1147=AXIS2_PLACEMENT_3D('',#1778,#1363,#1364);
#1148=AXIS2_PLACEMENT_3D('',#1779,#1365,#1366);
#1149=AXIS2_PLACEMENT_3D('',#1780,#1367,#1368);
#1150=AXIS2_PLACEMENT_3D('',#1781,#1369,#1370);
#1151=AXIS2_PLACEMENT_3D('',#1782,#1371,#1372);
#1152=AXIS2_PLACEMENT_3D('',#1783,#1373,#1374);
#1153=AXIS2_PLACEMENT_3D('',#1792,#1375,#1376);
#1154=AXIS2_PLACEMENT_3D('',#1801,#1377,#1378);
#1155=AXIS2_PLACEMENT_3D('',#1810,#1379,#1380);
#1156=AXIS2_PLACEMENT_3D('',#1851,#1381,#1382);
#1157=AXIS2_PLACEMENT_3D('',#1861,#1388,#1389);
#1158=AXIS2_PLACEMENT_3D('',#1864,#1392,#1393);
#1159=AXIS2_PLACEMENT_3D('',#1866,#1395,#1396);
#1160=AXIS2_PLACEMENT_3D('',#1868,#1398,#1399);
#1161=AXIS2_PLACEMENT_3D('',#1874,#1403,#1404);
#1162=AXIS2_PLACEMENT_3D('',#1877,#1407,#1408);
#1163=AXIS2_PLACEMENT_3D('',#1878,#1409,#1410);
#1164=AXIS2_PLACEMENT_3D('',#1879,#1411,#1412);
#1165=AXIS2_PLACEMENT_3D('',#1885,#1416,#1417);
#1166=AXIS2_PLACEMENT_3D('',#1888,#1420,#1421);
#1167=AXIS2_PLACEMENT_3D('',#1889,#1422,#1423);
#1168=AXIS2_PLACEMENT_3D('',#1890,#1424,#1425);
#1169=AXIS2_PLACEMENT_3D('',#1891,#1426,#1427);
#1170=DIRECTION('',(0.,0.,1.));
#1171=DIRECTION('',(1.,0.,0.));
#1172=DIRECTION('',(1.,0.,0.));
#1173=DIRECTION('',(0.,0.,-1.));
#1174=DIRECTION('',(0.,0.,-1.));
#1175=DIRECTION('',(0.,-1.,0.));
#1176=DIRECTION('',(0.,0.,-1.));
#1177=DIRECTION('',(0.,1.,0.));
#1178=DIRECTION('',(0.,0.,-1.));
#1179=DIRECTION('',(0.,1.,0.));
#1180=DIRECTION('',(0.,0.,-1.));
#1181=DIRECTION('',(0.,1.,0.));
#1182=DIRECTION('',(0.,0.,-1.));
#1183=DIRECTION('',(0.,-1.,0.));
#1184=DIRECTION('',(0.,0.,-1.));
#1185=DIRECTION('',(0.,1.,0.));
#1186=DIRECTION('',(0.,0.,-1.));
#1187=DIRECTION('',(0.,1.,0.));
#1188=DIRECTION('',(-1.,-4.47670574445628E-16,0.));
#1189=DIRECTION('',(4.47670574445628E-16,-1.,0.));
#1190=DIRECTION('',(-4.47670574445628E-16,1.,0.));
#1191=DIRECTION('',(-4.47670574445628E-16,1.,0.));
#1192=DIRECTION('',(4.47670574445628E-16,-1.,2.66880534765662E-16));
#1193=DIRECTION('',(0.,0.,1.));
#1194=DIRECTION('',(4.47670574445628E-16,-1.,2.66880534765662E-16));
#1195=DIRECTION('',(0.,0.,1.));
#1196=DIRECTION('',(1.,0.,0.));
#1197=DIRECTION('',(0.,0.,-1.));
#1198=DIRECTION('',(0.,1.,0.));
#1199=DIRECTION('',(0.,0.,-1.));
#1200=DIRECTION('',(0.,1.,0.));
#1201=DIRECTION('',(0.,0.,-1.));
#1202=DIRECTION('',(0.,-1.,0.));
#1203=DIRECTION('',(0.,0.,-1.));
#1204=DIRECTION('',(0.,1.,0.));
#1205=DIRECTION('',(0.,0.,-1.));
#1206=DIRECTION('',(4.47670574445628E-16,-1.,2.66880534765662E-16));
#1207=DIRECTION('',(0.,0.,1.));
#1208=DIRECTION('',(4.47670574445628E-16,-1.,2.66880534765662E-16));
#1209=DIRECTION('',(0.,0.,1.));
#1210=DIRECTION('',(0.,0.,1.));
#1211=DIRECTION('',(1.,0.,0.));
#1212=DIRECTION('',(0.,0.,1.));
#1213=DIRECTION('',(1.,0.,0.));
#1214=DIRECTION('',(0.,0.,1.));
#1215=DIRECTION('',(1.,0.,0.));
#1216=DIRECTION('',(0.,0.,1.));
#1217=DIRECTION('',(1.,0.,0.));
#1218=DIRECTION('',(1.,0.,0.));
#1219=DIRECTION('',(-1.,0.,0.));
#1220=DIRECTION('',(0.,0.,1.));
#1221=DIRECTION('',(1.,0.,0.));
#1222=DIRECTION('',(0.,1.,0.));
#1223=DIRECTION('',(0.,0.,1.));
#1224=DIRECTION('',(1.,0.,0.));
#1225=DIRECTION('',(1.,0.,0.));
#1226=DIRECTION('',(-1.,-4.47670574445628E-16,0.));
#1227=DIRECTION('',(4.47670574445628E-16,-1.,0.));
#1228=DIRECTION('',(-4.47670574445628E-16,1.,0.));
#1229=DIRECTION('',(-4.47670574445628E-16,1.,0.));
#1230=DIRECTION('',(0.,1.,0.));
#1231=DIRECTION('',(0.,0.,1.));
#1232=DIRECTION('',(1.,0.,0.));
#1233=DIRECTION('',(1.,0.,0.));
#1234=DIRECTION('',(0.,0.,1.));
#1235=DIRECTION('',(1.,0.,0.));
#1236=DIRECTION('',(0.,-1.,0.));
#1237=DIRECTION('',(0.,0.,-1.));
#1238=DIRECTION('',(1.,0.,0.));
#1239=DIRECTION('',(0.,0.,-1.));
#1240=DIRECTION('',(1.,0.,0.));
#1241=DIRECTION('',(-1.,0.,0.));
#1242=DIRECTION('',(1.,0.,0.));
#1243=DIRECTION('',(0.,0.,-1.));
#1244=DIRECTION('',(1.,0.,0.));
#1245=DIRECTION('',(0.,1.,0.));
#1246=DIRECTION('',(0.,0.,1.));
#1247=DIRECTION('',(1.,0.,0.));
#1248=DIRECTION('',(0.,0.,-1.));
#1249=DIRECTION('',(-1.,0.,0.));
#1250=DIRECTION('',(0.,0.,1.));
#1251=DIRECTION('',(1.,0.,0.));
#1252=DIRECTION('',(0.,0.,1.));
#1253=DIRECTION('',(1.,0.,0.));
#1254=DIRECTION('',(0.,0.,-1.));
#1255=DIRECTION('',(-1.,0.,0.));
#1256=DIRECTION('',(0.,0.,1.));
#1257=DIRECTION('',(1.,0.,0.));
#1258=DIRECTION('',(0.,0.,1.));
#1259=DIRECTION('',(1.,0.,0.));
#1260=DIRECTION('',(0.,0.,-1.));
#1261=DIRECTION('',(-1.,0.,0.));
#1262=DIRECTION('',(0.,0.,1.));
#1263=DIRECTION('',(1.,0.,0.));
#1264=DIRECTION('',(0.,0.,1.));
#1265=DIRECTION('',(1.,0.,0.));
#1266=DIRECTION('',(0.,0.,-1.));
#1267=DIRECTION('',(-1.,0.,0.));
#1268=DIRECTION('',(0.,0.,1.));
#1269=DIRECTION('',(1.,0.,0.));
#1270=DIRECTION('',(0.,0.,1.));
#1271=DIRECTION('',(1.,0.,0.));
#1272=DIRECTION('',(0.,0.,1.));
#1273=DIRECTION('',(1.,0.,0.));
#1274=DIRECTION('',(0.,0.,1.));
#1275=DIRECTION('',(1.,0.,0.));
#1276=DIRECTION('',(0.,0.,1.));
#1277=DIRECTION('',(1.,0.,0.));
#1278=DIRECTION('',(0.,0.,1.));
#1279=DIRECTION('',(1.,0.,0.));
#1280=DIRECTION('',(0.,0.,1.));
#1281=DIRECTION('',(1.,0.,0.));
#1282=DIRECTION('',(1.,0.,0.));
#1283=DIRECTION('',(0.,-1.,0.));
#1284=DIRECTION('',(-1.,0.,0.));
#1285=DIRECTION('',(0.,0.,1.));
#1286=DIRECTION('',(1.,0.,0.));
#1287=DIRECTION('',(0.,0.,1.));
#1288=DIRECTION('',(1.,0.,0.));
#1289=DIRECTION('',(0.,0.,1.));
#1290=DIRECTION('',(1.,0.,0.));
#1291=DIRECTION('',(0.,0.,1.));
#1292=DIRECTION('',(1.,0.,0.));
#1293=DIRECTION('',(0.,0.,-1.));
#1294=DIRECTION('',(-1.,0.,0.));
#1295=DIRECTION('',(0.,0.,1.));
#1296=DIRECTION('',(1.,0.,0.));
#1297=DIRECTION('',(0.,0.,1.));
#1298=DIRECTION('',(1.,0.,0.));
#1299=DIRECTION('',(0.,0.,-1.));
#1300=DIRECTION('',(-1.,0.,0.));
#1301=DIRECTION('',(0.,0.,1.));
#1302=DIRECTION('',(1.,0.,0.));
#1303=DIRECTION('',(0.,0.,1.));
#1304=DIRECTION('',(1.,0.,0.));
#1305=DIRECTION('',(0.,0.,1.));
#1306=DIRECTION('',(1.,0.,0.));
#1307=DIRECTION('',(0.,0.,1.));
#1308=DIRECTION('',(1.,0.,0.));
#1309=DIRECTION('',(0.,0.,-1.));
#1310=DIRECTION('',(-1.,0.,0.));
#1311=DIRECTION('',(0.,0.,1.));
#1312=DIRECTION('',(1.,0.,0.));
#1313=DIRECTION('',(0.,0.,1.));
#1314=DIRECTION('',(1.,0.,0.));
#1315=DIRECTION('',(0.,0.,-1.));
#1316=DIRECTION('',(-1.,0.,0.));
#1317=DIRECTION('',(0.,0.,1.));
#1318=DIRECTION('',(1.,0.,0.));
#1319=DIRECTION('',(0.,0.,1.));
#1320=DIRECTION('',(1.,0.,0.));
#1321=DIRECTION('',(0.,0.,1.));
#1322=DIRECTION('',(1.,0.,0.));
#1323=DIRECTION('',(0.,0.,1.));
#1324=DIRECTION('',(1.,0.,0.));
#1325=DIRECTION('',(0.,0.,-1.));
#1326=DIRECTION('',(-1.,0.,0.));
#1327=DIRECTION('',(0.,0.,-1.));
#1328=DIRECTION('',(1.,0.,0.));
#1329=DIRECTION('',(0.,0.,-1.));
#1330=DIRECTION('',(-1.,0.,0.));
#1331=DIRECTION('',(0.,0.,1.));
#1332=DIRECTION('',(1.,0.,0.));
#1333=DIRECTION('',(0.,0.,-1.));
#1334=DIRECTION('',(1.,0.,0.));
#1335=DIRECTION('',(0.,0.,1.));
#1336=DIRECTION('',(1.,0.,0.));
#1337=DIRECTION('',(0.,0.,1.));
#1338=DIRECTION('',(1.,0.,0.));
#1339=DIRECTION('',(0.,0.,-1.));
#1340=DIRECTION('',(-1.,0.,0.));
#1341=DIRECTION('',(0.,0.,-1.));
#1342=DIRECTION('',(1.,0.,0.));
#1343=DIRECTION('',(0.,0.,-1.));
#1344=DIRECTION('',(-1.,0.,0.));
#1345=DIRECTION('',(0.,0.,1.));
#1346=DIRECTION('',(1.,0.,0.));
#1347=DIRECTION('',(0.,0.,-1.));
#1348=DIRECTION('',(1.,0.,0.));
#1349=DIRECTION('',(0.,0.,1.));
#1350=DIRECTION('',(1.,0.,0.));
#1351=DIRECTION('',(0.,0.,1.));
#1352=DIRECTION('',(1.,0.,0.));
#1353=DIRECTION('',(0.,0.,1.));
#1354=DIRECTION('',(1.,0.,0.));
#1355=DIRECTION('',(0.,0.,1.));
#1356=DIRECTION('',(1.,0.,0.));
#1357=DIRECTION('',(0.,0.,1.));
#1358=DIRECTION('',(1.,0.,0.));
#1359=DIRECTION('',(0.,0.,1.));
#1360=DIRECTION('',(1.,0.,0.));
#1361=DIRECTION('',(0.,0.,1.));
#1362=DIRECTION('',(1.,0.,0.));
#1363=DIRECTION('',(0.,0.,1.));
#1364=DIRECTION('',(1.,0.,0.));
#1365=DIRECTION('',(0.,0.,1.));
#1366=DIRECTION('',(1.,0.,0.));
#1367=DIRECTION('',(0.,0.,1.));
#1368=DIRECTION('',(1.,0.,0.));
#1369=DIRECTION('',(0.,0.,1.));
#1370=DIRECTION('',(1.,0.,0.));
#1371=DIRECTION('',(0.,0.,1.));
#1372=DIRECTION('',(1.,0.,0.));
#1373=DIRECTION('',(4.47670574445628E-16,-1.,0.));
#1374=DIRECTION('',(1.,4.47670574445628E-16,0.));
#1375=DIRECTION('',(1.194745623069E-31,-2.66880534765662E-16,-1.));
#1376=DIRECTION('',(0.,1.,-2.66880534765662E-16));
#1377=DIRECTION('',(4.47670574445628E-16,-1.,0.));
#1378=DIRECTION('',(1.,4.47670574445628E-16,0.));
#1379=DIRECTION('',(1.194745623069E-31,-2.66880534765662E-16,-1.));
#1380=DIRECTION('',(0.,1.,-2.66880534765662E-16));
#1381=DIRECTION('',(-1.,0.,0.));
#1382=DIRECTION('',(0.,0.,1.));
#1383=DIRECTION('',(0.,1.,0.));
#1384=DIRECTION('',(0.,0.,-1.));
#1385=DIRECTION('',(0.,0.,-1.));
#1386=DIRECTION('',(0.,1.,0.));
#1387=DIRECTION('',(0.,0.,-1.));
#1388=DIRECTION('',(0.,-1.,0.));
#1389=DIRECTION('',(0.,0.,-1.));
#1390=DIRECTION('',(-1.,0.,0.));
#1391=DIRECTION('',(-1.,0.,0.));
#1392=DIRECTION('',(0.,0.,1.));
#1393=DIRECTION('',(1.,0.,0.));
#1394=DIRECTION('',(1.,0.,0.));
#1395=DIRECTION('',(0.,0.,1.));
#1396=DIRECTION('',(1.,0.,0.));
#1397=DIRECTION('',(-1.,0.,0.));
#1398=DIRECTION('',(1.,0.,0.));
#1399=DIRECTION('',(0.,0.,-1.));
#1400=DIRECTION('',(0.,-1.,0.));
#1401=DIRECTION('',(0.,0.,-1.));
#1402=DIRECTION('',(0.,-1.,0.));
#1403=DIRECTION('',(0.,-1.,0.));
#1404=DIRECTION('',(0.,0.,-1.));
#1405=DIRECTION('',(-1.,0.,0.));
#1406=DIRECTION('',(-1.,0.,0.));
#1407=DIRECTION('',(0.,0.,1.));
#1408=DIRECTION('',(1.,0.,0.));
#1409=DIRECTION('',(0.,0.,1.));
#1410=DIRECTION('',(1.,0.,0.));
#1411=DIRECTION('',(0.,1.,0.));
#1412=DIRECTION('',(0.,0.,1.));
#1413=DIRECTION('',(1.,0.,0.));
#1414=DIRECTION('',(0.,0.,-1.));
#1415=DIRECTION('',(1.,0.,0.));
#1416=DIRECTION('',(1.,0.,0.));
#1417=DIRECTION('',(0.,0.,-1.));
#1418=DIRECTION('',(0.,-1.,0.));
#1419=DIRECTION('',(0.,-1.,0.));
#1420=DIRECTION('',(0.,0.,1.));
#1421=DIRECTION('',(1.,0.,0.));
#1422=DIRECTION('',(0.,0.,1.));
#1423=DIRECTION('',(1.,0.,0.));
#1424=DIRECTION('',(0.,1.,0.));
#1425=DIRECTION('',(0.,0.,1.));
#1426=DIRECTION('',(0.,-1.,0.));
#1427=DIRECTION('',(0.,0.,-1.));
#1428=CARTESIAN_POINT('',(0.,0.,0.));
#1429=CARTESIAN_POINT('',(0.0825,0.,0.025));
#1430=CARTESIAN_POINT('',(0.0825,-0.0495,0.025));
#1431=CARTESIAN_POINT('',(0.0825,-0.0495,0.025));
#1432=CARTESIAN_POINT('',(0.0825,-0.0495,0.0205));
#1433=CARTESIAN_POINT('',(0.0825,0.,0.025));
#1434=CARTESIAN_POINT('',(0.0825,0.0505,0.025));
#1435=CARTESIAN_POINT('',(0.0825,0.0505,0.025));
#1436=CARTESIAN_POINT('',(0.0825,0.0505,0.0205));
#1437=CARTESIAN_POINT('',(0.0825,-0.021,0.0205));
#1438=CARTESIAN_POINT('',(0.0825,0.0305,0.0205));
#1439=CARTESIAN_POINT('',(0.0825,0.0305,0.0205));
#1440=CARTESIAN_POINT('',(0.0825,0.0305,0.0175));
#1441=CARTESIAN_POINT('',(0.0825,-0.021,0.0175));
#1442=CARTESIAN_POINT('',(0.0825,0.0505,0.0175));
#1443=CARTESIAN_POINT('',(0.0825,0.0505,0.025));
#1444=CARTESIAN_POINT('',(0.0825,0.0505,0.002));
#1445=CARTESIAN_POINT('',(0.0825,-0.021,0.002));
#1446=CARTESIAN_POINT('',(0.0825,-0.0925,0.002));
#1447=CARTESIAN_POINT('',(0.0825,-0.0925,0.025));
#1448=CARTESIAN_POINT('',(0.0825,-0.0925,0.025));
#1449=CARTESIAN_POINT('',(0.0825,0.,0.025));
#1450=CARTESIAN_POINT('',(0.0825,-0.0595,0.025));
#1451=CARTESIAN_POINT('',(0.0825,-0.0595,0.025));
#1452=CARTESIAN_POINT('',(0.0825,-0.0595,0.0175));
#1453=CARTESIAN_POINT('',(0.0825,-0.021,0.0175));
#1454=CARTESIAN_POINT('',(0.0825,-0.0295,0.0175));
#1455=CARTESIAN_POINT('',(0.0825,-0.0295,0.0205));
#1456=CARTESIAN_POINT('',(0.0825,-0.0295,0.0205));
#1457=CARTESIAN_POINT('',(0.0825,-0.021,0.0205));
#1458=CARTESIAN_POINT('',(-0.0885,-0.021,0.002));
#1459=CARTESIAN_POINT('',(-0.0885,-0.021,0.025));
#1460=CARTESIAN_POINT('',(-0.0885,-0.0955,0.025));
#1461=CARTESIAN_POINT('',(-0.0885,0.0535,0.025));
#1462=CARTESIAN_POINT('',(-0.0885,0.0535,0.025));
#1463=CARTESIAN_POINT('',(-0.0885,0.0535,0.0166666666666667));
#1464=CARTESIAN_POINT('',(-0.0885,0.0535,0.00833333333333333));
#1465=CARTESIAN_POINT('',(-0.0885,0.0535,0.));
#1466=CARTESIAN_POINT('',(-0.0885,0.0535,0.));
#1467=CARTESIAN_POINT('',(-0.0885,-0.021,0.));
#1468=CARTESIAN_POINT('',(-0.0885,-0.0955,0.));
#1469=CARTESIAN_POINT('',(-0.0885,-0.0955,0.));
#1470=CARTESIAN_POINT('',(-0.0885,-0.0955,0.00833333333333333));
#1471=CARTESIAN_POINT('',(-0.0885,-0.0955,0.0166666666666667));
#1472=CARTESIAN_POINT('',(-0.0885,-0.0955,0.025));
#1473=CARTESIAN_POINT('',(-0.0885,-0.0605,0.004));
#1474=CARTESIAN_POINT('',(-0.0885,-0.05475,0.004));
#1475=CARTESIAN_POINT('',(-0.0885,-0.06625,0.004));
#1476=CARTESIAN_POINT('',(-0.0885,-0.05475,0.004));
#1477=CARTESIAN_POINT('',(-0.0885,-0.0545468505737397,0.004));
#1478=CARTESIAN_POINT('',(-0.0884999999999999,-0.0541038073880296,0.00409992615828031));
#1479=CARTESIAN_POINT('',(-0.0885,-0.054,0.00454569558711466));
#1480=CARTESIAN_POINT('',(-0.0885,-0.054,0.00475));
#1481=CARTESIAN_POINT('',(-0.0885,-0.054,0.00475));
#1482=CARTESIAN_POINT('',(-0.0885,-0.054,0.007125));
#1483=CARTESIAN_POINT('',(-0.0885,-0.054,0.0095));
#1484=CARTESIAN_POINT('',(-0.0885,-0.054,0.0095));
#1485=CARTESIAN_POINT('',(-0.0885,-0.054,0.00970314942626027));
#1486=CARTESIAN_POINT('',(-0.0885,-0.0540999261582803,0.0101461926119704));
#1487=CARTESIAN_POINT('',(-0.0885,-0.0545456955871147,0.01025));
#1488=CARTESIAN_POINT('',(-0.0885,-0.05475,0.01025));
#1489=CARTESIAN_POINT('',(-0.0885,-0.05475,0.01025));
#1490=CARTESIAN_POINT('',(-0.0885,-0.0605,0.01025));
#1491=CARTESIAN_POINT('',(-0.0885,-0.06625,0.01025));
#1492=CARTESIAN_POINT('',(-0.0885,-0.06625,0.01025));
#1493=CARTESIAN_POINT('',(-0.0885,-0.0664531494262603,0.01025));
#1494=CARTESIAN_POINT('',(-0.0884999999999999,-0.0668961926119704,0.0101500738417197));
#1495=CARTESIAN_POINT('',(-0.0885,-0.067,0.00970430441288534));
#1496=CARTESIAN_POINT('',(-0.0885,-0.067,0.0095));
#1497=CARTESIAN_POINT('',(-0.0885,-0.067,0.0095));
#1498=CARTESIAN_POINT('',(-0.0885,-0.067,0.007125));
#1499=CARTESIAN_POINT('',(-0.0885,-0.067,0.00475));
#1500=CARTESIAN_POINT('',(-0.0885,-0.067,0.00475));
#1501=CARTESIAN_POINT('',(-0.0885,-0.067,0.00454685057373972));
#1502=CARTESIAN_POINT('',(-0.0884999999999999,-0.0669000738417197,0.0041038073880296));
#1503=CARTESIAN_POINT('',(-0.0885,-0.0664543044128853,0.004));
#1504=CARTESIAN_POINT('',(-0.0885,-0.06625,0.004));
#1505=CARTESIAN_POINT('',(-0.0825,-0.0715,0.025));
#1506=CARTESIAN_POINT('',(-0.0825,-0.021,0.0175));
#1507=CARTESIAN_POINT('',(-0.0825,0.0305,0.0175));
#1508=CARTESIAN_POINT('',(-0.0825,0.0505,0.0175));
#1509=CARTESIAN_POINT('',(-0.0825,0.0305,0.0205));
#1510=CARTESIAN_POINT('',(-0.0825,0.0305,0.0205));
#1511=CARTESIAN_POINT('',(-0.0825,-0.021,0.0205));
#1512=CARTESIAN_POINT('',(-0.0825,0.0505,0.0205));
#1513=CARTESIAN_POINT('',(-0.0825,0.0505,0.025));
#1514=CARTESIAN_POINT('',(-0.0825,0.0505,0.025));
#1515=CARTESIAN_POINT('',(-0.0825,-0.0715,0.025));
#1516=CARTESIAN_POINT('',(-0.0825,-0.0925,0.025));
#1517=CARTESIAN_POINT('',(-0.0825,-0.0925,0.025));
#1518=CARTESIAN_POINT('',(-0.0825,-0.0925,0.002));
#1519=CARTESIAN_POINT('',(-0.0825,-0.021,0.002));
#1520=CARTESIAN_POINT('',(-0.0825,0.0505,0.002));
#1521=CARTESIAN_POINT('',(-0.0825,0.0505,0.025));
#1522=CARTESIAN_POINT('',(-0.0825,-0.0605,0.01025));
#1523=CARTESIAN_POINT('',(-0.0825,-0.05475,0.01025));
#1524=CARTESIAN_POINT('',(-0.0825,-0.06625,0.01025));
#1525=CARTESIAN_POINT('',(-0.0825,-0.05475,0.01025));
#1526=CARTESIAN_POINT('',(-0.0825,-0.0545468505737397,0.01025));
#1527=CARTESIAN_POINT('',(-0.0825,-0.0541038073880296,0.0101500738417197));
#1528=CARTESIAN_POINT('',(-0.0825,-0.054,0.00970430441288534));
#1529=CARTESIAN_POINT('',(-0.0825,-0.054,0.0095));
#1530=CARTESIAN_POINT('',(-0.0825,-0.054,0.0095));
#1531=CARTESIAN_POINT('',(-0.0825,-0.054,0.007125));
#1532=CARTESIAN_POINT('',(-0.0825,-0.054,0.00475));
#1533=CARTESIAN_POINT('',(-0.0825,-0.054,0.00475));
#1534=CARTESIAN_POINT('',(-0.0825,-0.054,0.00454685057373973));
#1535=CARTESIAN_POINT('',(-0.0825000000000001,-0.0540999261582803,0.00410380738802962));
#1536=CARTESIAN_POINT('',(-0.0825,-0.0545456955871147,0.004));
#1537=CARTESIAN_POINT('',(-0.0825,-0.05475,0.004));
#1538=CARTESIAN_POINT('',(-0.0825,-0.05475,0.004));
#1539=CARTESIAN_POINT('',(-0.0825,-0.0605,0.004));
#1540=CARTESIAN_POINT('',(-0.0825,-0.06625,0.004));
#1541=CARTESIAN_POINT('',(-0.0825,-0.06625,0.004));
#1542=CARTESIAN_POINT('',(-0.0825,-0.0664531494262603,0.004));
#1543=CARTESIAN_POINT('',(-0.0825,-0.0668961926119704,0.00409992615828032));
#1544=CARTESIAN_POINT('',(-0.0825,-0.067,0.00454569558711466));
#1545=CARTESIAN_POINT('',(-0.0825,-0.067,0.00475));
#1546=CARTESIAN_POINT('',(-0.0825,-0.067,0.00475));
#1547=CARTESIAN_POINT('',(-0.0825,-0.067,0.007125));
#1548=CARTESIAN_POINT('',(-0.0825,-0.067,0.0095));
#1549=CARTESIAN_POINT('',(-0.0825,-0.067,0.0095));
#1550=CARTESIAN_POINT('',(-0.0825,-0.067,0.00970314942626027));
#1551=CARTESIAN_POINT('',(-0.0825,-0.0669000738417197,0.0101461926119704));
#1552=CARTESIAN_POINT('',(-0.0825,-0.0664543044128853,0.01025));
#1553=CARTESIAN_POINT('',(-0.0825,-0.06625,0.01025));
#1554=CARTESIAN_POINT('',(1.38777878078145E-17,-0.021,0.002));
#1555=CARTESIAN_POINT('',(0.01115,-0.0441,0.002));
#1556=CARTESIAN_POINT('',(0.01475,-0.0441,0.002));
#1557=CARTESIAN_POINT('',(0.01115,-0.08765,0.002));
#1558=CARTESIAN_POINT('',(0.01475,-0.08765,0.002));
#1559=CARTESIAN_POINT('',(-0.0779,-0.0441,0.002));
#1560=CARTESIAN_POINT('',(-0.0743,-0.0441,0.002));
#1561=CARTESIAN_POINT('',(1.38777878078145E-17,0.0505,0.002));
#1562=CARTESIAN_POINT('',(1.38777878078145E-17,-0.0925,0.002));
#1563=CARTESIAN_POINT('',(-0.0779,-0.08765,0.002));
#1564=CARTESIAN_POINT('',(-0.0743,-0.08765,0.002));
#1565=CARTESIAN_POINT('',(2.77555756156289E-17,-0.0985,0.002));
#1566=CARTESIAN_POINT('',(2.77555756156289E-17,-0.0985,0.));
#1567=CARTESIAN_POINT('',(-0.0855,-0.0985,0.));
#1568=CARTESIAN_POINT('',(0.0855,-0.0985,0.));
#1569=CARTESIAN_POINT('',(0.0855,-0.0985,0.));
#1570=CARTESIAN_POINT('',(0.0855,-0.0985,0.00833333333333333));
#1571=CARTESIAN_POINT('',(0.0855,-0.0985,0.0166666666666667));
#1572=CARTESIAN_POINT('',(0.0855,-0.0985,0.025));
#1573=CARTESIAN_POINT('',(0.0855,-0.0985,0.025));
#1574=CARTESIAN_POINT('',(2.77555756156289E-17,-0.0985,0.025));
#1575=CARTESIAN_POINT('',(-0.0855,-0.0985,0.025));
#1576=CARTESIAN_POINT('',(-0.0855,-0.0985,0.025));
#1577=CARTESIAN_POINT('',(-0.0855,-0.0985,0.0166666666666667));
#1578=CARTESIAN_POINT('',(-0.0855,-0.0985,0.00833333333333333));
#1579=CARTESIAN_POINT('',(-0.0855,-0.0985,0.));
#1580=CARTESIAN_POINT('',(0.0885,-0.021,0.002));
#1581=CARTESIAN_POINT('',(0.0885,-0.021,0.));
#1582=CARTESIAN_POINT('',(0.0885,-0.0955,0.));
#1583=CARTESIAN_POINT('',(0.0885,0.0535,0.));
#1584=CARTESIAN_POINT('',(0.0885,0.0535,0.));
#1585=CARTESIAN_POINT('',(0.0885,0.0535,0.00833333333333333));
#1586=CARTESIAN_POINT('',(0.0885,0.0535,0.0166666666666667));
#1587=CARTESIAN_POINT('',(0.0885,0.0535,0.025));
#1588=CARTESIAN_POINT('',(0.0885,0.0535,0.025));
#1589=CARTESIAN_POINT('',(0.0885,-0.021,0.025));
#1590=CARTESIAN_POINT('',(0.0885,-0.0955,0.025));
#1591=CARTESIAN_POINT('',(0.0885,-0.0955,0.025));
#1592=CARTESIAN_POINT('',(0.0885,-0.0955,0.0166666666666667));
#1593=CARTESIAN_POINT('',(0.0885,-0.0955,0.00833333333333333));
#1594=CARTESIAN_POINT('',(0.0885,-0.0955,0.));
#1595=CARTESIAN_POINT('',(-1.38777878078145E-17,0.0565,0.002));
#1596=CARTESIAN_POINT('',(-1.38777878078145E-17,0.0565,0.025));
#1597=CARTESIAN_POINT('',(-0.0855,0.0565,0.025));
#1598=CARTESIAN_POINT('',(0.0855,0.0565,0.025));
#1599=CARTESIAN_POINT('',(0.0855,0.0565,0.025));
#1600=CARTESIAN_POINT('',(0.0855,0.0565,0.0166666666666667));
#1601=CARTESIAN_POINT('',(0.0855,0.0565,0.00833333333333333));
#1602=CARTESIAN_POINT('',(0.0855,0.0565,0.));
#1603=CARTESIAN_POINT('',(0.0855,0.0565,0.));
#1604=CARTESIAN_POINT('',(-1.38777878078145E-17,0.0565,0.));
#1605=CARTESIAN_POINT('',(-0.0855,0.0565,0.));
#1606=CARTESIAN_POINT('',(-0.0855,0.0565,0.));
#1607=CARTESIAN_POINT('',(-0.0855,0.0565,0.00833333333333333));
#1608=CARTESIAN_POINT('',(-0.0855,0.0565,0.0166666666666667));
#1609=CARTESIAN_POINT('',(-0.0855,0.0565,0.025));
#1610=CARTESIAN_POINT('',(1.38777878078145E-17,-0.021,0.));
#1611=CARTESIAN_POINT('',(0.0855,0.0565,0.));
#1612=CARTESIAN_POINT('',(0.0875,0.0565,0.));
#1613=CARTESIAN_POINT('',(0.0885,0.0555,0.));
#1614=CARTESIAN_POINT('',(0.0885,0.0535,0.));
#1615=CARTESIAN_POINT('',(0.0885,-0.0955,0.));
#1616=CARTESIAN_POINT('',(0.0885,-0.0975,0.));
#1617=CARTESIAN_POINT('',(0.0875,-0.0985,0.));
#1618=CARTESIAN_POINT('',(0.0855,-0.0985,0.));
#1619=CARTESIAN_POINT('',(-0.0855,-0.0985,0.));
#1620=CARTESIAN_POINT('',(-0.0875,-0.0985,0.));
#1621=CARTESIAN_POINT('',(-0.0885,-0.0975,0.));
#1622=CARTESIAN_POINT('',(-0.0885,-0.0955,0.));
#1623=CARTESIAN_POINT('',(-0.0885,0.0535,0.));
#1624=CARTESIAN_POINT('',(-0.0885,0.0555,0.));
#1625=CARTESIAN_POINT('',(-0.0875,0.0565,0.));
#1626=CARTESIAN_POINT('',(-0.0855,0.0565,0.));
#1627=CARTESIAN_POINT('',(0.,0.0505,0.025));
#1628=CARTESIAN_POINT('',(1.38777878078145E-17,0.0505,0.0175));
#1629=CARTESIAN_POINT('',(0.0725,0.0505,0.0175));
#1630=CARTESIAN_POINT('',(0.0725,0.0505,0.0205));
#1631=CARTESIAN_POINT('',(0.0725,0.0505,0.0205));
#1632=CARTESIAN_POINT('',(1.38777878078145E-17,0.0505,0.0205));
#1633=CARTESIAN_POINT('',(0.,0.0505,0.025));
#1634=CARTESIAN_POINT('',(1.38777878078145E-17,0.0505,0.0205));
#1635=CARTESIAN_POINT('',(-0.0725,0.0505,0.0205));
#1636=CARTESIAN_POINT('',(-0.0725,0.0505,0.0205));
#1637=CARTESIAN_POINT('',(-0.0725,0.0505,0.0175));
#1638=CARTESIAN_POINT('',(1.38777878078145E-17,0.0505,0.0175));
#1639=CARTESIAN_POINT('',(2.77555756156289E-17,-0.0925,0.025));
#1640=CARTESIAN_POINT('',(2.77555756156289E-17,-0.0925,0.025));
#1641=CARTESIAN_POINT('',(-0.085,-0.095,0.025));
#1642=CARTESIAN_POINT('',(-0.085,-0.095,0.0245));
#1643=CARTESIAN_POINT('',(-0.0829,-0.095,0.0245));
#1644=CARTESIAN_POINT('',(-0.085,-0.095,0.002));
#1645=CARTESIAN_POINT('',(-0.0829,-0.095,0.002));
#1646=CARTESIAN_POINT('',(0.085,-0.095,0.025));
#1647=CARTESIAN_POINT('',(0.085,-0.095,0.0245));
#1648=CARTESIAN_POINT('',(0.0871,-0.095,0.0245));
#1649=CARTESIAN_POINT('',(0.085,-0.095,0.002));
#1650=CARTESIAN_POINT('',(0.0871,-0.095,0.002));
#1651=CARTESIAN_POINT('',(0.085,0.053,0.025));
#1652=CARTESIAN_POINT('',(0.085,0.053,0.0245));
#1653=CARTESIAN_POINT('',(0.0871,0.053,0.0245));
#1654=CARTESIAN_POINT('',(0.085,0.053,0.002));
#1655=CARTESIAN_POINT('',(0.0871,0.053,0.002));
#1656=CARTESIAN_POINT('',(-0.085,0.053,0.025));
#1657=CARTESIAN_POINT('',(-0.085,0.053,0.0245));
#1658=CARTESIAN_POINT('',(-0.0829,0.053,0.0245));
#1659=CARTESIAN_POINT('',(-0.085,0.053,0.002));
#1660=CARTESIAN_POINT('',(-0.0829,0.053,0.002));
#1661=CARTESIAN_POINT('',(1.38777878078145E-17,-0.021,0.025));
#1662=CARTESIAN_POINT('',(0.085,-0.095,0.025));
#1663=CARTESIAN_POINT('',(0.0876,-0.095,0.025));
#1664=CARTESIAN_POINT('',(-0.085,-0.095,0.025));
#1665=CARTESIAN_POINT('',(-0.0824,-0.095,0.025));
#1666=CARTESIAN_POINT('',(0.085,0.053,0.025));
#1667=CARTESIAN_POINT('',(0.0876,0.053,0.025));
#1668=CARTESIAN_POINT('',(-0.085,0.053,0.025));
#1669=CARTESIAN_POINT('',(-0.0824,0.053,0.025));
#1670=CARTESIAN_POINT('',(0.0775,-0.0495,0.025));
#1671=CARTESIAN_POINT('',(0.0725,-0.0495,0.025));
#1672=CARTESIAN_POINT('',(0.0725,-0.0545,0.025));
#1673=CARTESIAN_POINT('',(0.0725,-0.0595,0.025));
#1674=CARTESIAN_POINT('',(0.0775,-0.0595,0.025));
#1675=CARTESIAN_POINT('',(0.0885,0.0535,0.025));
#1676=CARTESIAN_POINT('',(0.0885,0.0555,0.025));
#1677=CARTESIAN_POINT('',(0.0875,0.0565,0.025));
#1678=CARTESIAN_POINT('',(0.0855,0.0565,0.025));
#1679=CARTESIAN_POINT('',(-0.0855,0.0565,0.025));
#1680=CARTESIAN_POINT('',(-0.0875,0.0565,0.025));
#1681=CARTESIAN_POINT('',(-0.0885,0.0555,0.025));
#1682=CARTESIAN_POINT('',(-0.0885,0.0535,0.025));
#1683=CARTESIAN_POINT('',(-0.0885,-0.0955,0.025));
#1684=CARTESIAN_POINT('',(-0.0885,-0.0975,0.025));
#1685=CARTESIAN_POINT('',(-0.0875,-0.0985,0.025));
#1686=CARTESIAN_POINT('',(-0.0855,-0.0985,0.025));
#1687=CARTESIAN_POINT('',(0.0855,-0.0985,0.025));
#1688=CARTESIAN_POINT('',(0.0875,-0.0985,0.025));
#1689=CARTESIAN_POINT('',(0.0885,-0.0975,0.025));
#1690=CARTESIAN_POINT('',(0.0885,-0.0955,0.025));
#1691=CARTESIAN_POINT('',(1.38777878078145E-17,-0.021,0.002));
#1692=CARTESIAN_POINT('',(1.38777878078145E-17,-0.021,0.002));
#1693=CARTESIAN_POINT('',(1.38777878078145E-17,-0.021,0.002));
#1694=CARTESIAN_POINT('',(1.38777878078145E-17,-0.021,0.002));
#1695=CARTESIAN_POINT('',(-0.0779,-0.0441,0.011));
#1696=CARTESIAN_POINT('',(-0.0779,-0.0441,0.0105));
#1697=CARTESIAN_POINT('',(-0.0758,-0.0441,0.0105));
#1698=CARTESIAN_POINT('',(-0.0779,-0.0441,0.002));
#1699=CARTESIAN_POINT('',(-0.0758,-0.0441,0.002));
#1700=CARTESIAN_POINT('',(-0.0779,-0.0441,0.011));
#1701=CARTESIAN_POINT('',(-0.0779,-0.0441,0.011));
#1702=CARTESIAN_POINT('',(-0.0743,-0.0441,0.011));
#1703=CARTESIAN_POINT('',(1.38777878078145E-17,-0.021,0.011));
#1704=CARTESIAN_POINT('',(-0.0779,-0.0441,0.011));
#1705=CARTESIAN_POINT('',(-0.0753,-0.0441,0.011));
#1706=CARTESIAN_POINT('',(1.38777878078145E-17,-0.021,0.002));
#1707=CARTESIAN_POINT('',(0.01115,-0.08765,0.011));
#1708=CARTESIAN_POINT('',(0.01115,-0.08765,0.0105));
#1709=CARTESIAN_POINT('',(0.01325,-0.08765,0.0105));
#1710=CARTESIAN_POINT('',(0.01115,-0.08765,0.002));
#1711=CARTESIAN_POINT('',(0.01325,-0.08765,0.002));
#1712=CARTESIAN_POINT('',(0.01115,-0.08765,0.011));
#1713=CARTESIAN_POINT('',(0.01115,-0.08765,0.011));
#1714=CARTESIAN_POINT('',(0.01475,-0.08765,0.011));
#1715=CARTESIAN_POINT('',(1.38777878078145E-17,-0.021,0.011));
#1716=CARTESIAN_POINT('',(0.01115,-0.08765,0.011));
#1717=CARTESIAN_POINT('',(0.01375,-0.08765,0.011));
#1718=CARTESIAN_POINT('',(1.38777878078145E-17,-0.021,0.002));
#1719=CARTESIAN_POINT('',(0.01115,-0.0441,0.011));
#1720=CARTESIAN_POINT('',(0.01115,-0.0441,0.011));
#1721=CARTESIAN_POINT('',(0.01475,-0.0441,0.011));
#1722=CARTESIAN_POINT('',(0.01115,-0.0441,0.011));
#1723=CARTESIAN_POINT('',(0.01115,-0.0441,0.0105));
#1724=CARTESIAN_POINT('',(0.01325,-0.0441,0.0105));
#1725=CARTESIAN_POINT('',(0.01115,-0.0441,0.002));
#1726=CARTESIAN_POINT('',(0.01325,-0.0441,0.002));
#1727=CARTESIAN_POINT('',(1.38777878078145E-17,-0.021,0.011));
#1728=CARTESIAN_POINT('',(0.01115,-0.0441,0.011));
#1729=CARTESIAN_POINT('',(0.01375,-0.0441,0.011));
#1730=CARTESIAN_POINT('',(-0.0779,-0.08765,0.011));
#1731=CARTESIAN_POINT('',(-0.0779,-0.08765,0.011));
#1732=CARTESIAN_POINT('',(-0.0743,-0.08765,0.011));
#1733=CARTESIAN_POINT('',(-0.0779,-0.08765,0.011));
#1734=CARTESIAN_POINT('',(-0.0779,-0.08765,0.0105));
#1735=CARTESIAN_POINT('',(-0.0758,-0.08765,0.0105));
#1736=CARTESIAN_POINT('',(-0.0779,-0.08765,0.002));
#1737=CARTESIAN_POINT('',(-0.0758,-0.08765,0.002));
#1738=CARTESIAN_POINT('',(1.38777878078145E-17,-0.021,0.011));
#1739=CARTESIAN_POINT('',(-0.0779,-0.08765,0.011));
#1740=CARTESIAN_POINT('',(-0.0753,-0.08765,0.011));
#1741=CARTESIAN_POINT('',(1.38777878078145E-17,-0.021,0.002));
#1742=CARTESIAN_POINT('',(1.38777878078145E-17,-0.021,0.002));
#1743=CARTESIAN_POINT('',(0.0885,0.0535,-8.44662188371654E-19));
#1744=CARTESIAN_POINT('',(0.0885,0.0535,0.025));
#1745=CARTESIAN_POINT('',(0.0884999999999999,0.0554999999999999,3.32488666228888E-18));
#1746=CARTESIAN_POINT('',(0.0884999999999999,0.0554999999999999,0.025));
#1747=CARTESIAN_POINT('',(0.0875000000000001,0.0565,1.87928376564155E-18));
#1748=CARTESIAN_POINT('',(0.0875000000000001,0.0565,0.025));
#1749=CARTESIAN_POINT('',(0.0855,0.0565,-1.11944621004838E-18));
#1750=CARTESIAN_POINT('',(0.0855,0.0565,0.025));
#1751=CARTESIAN_POINT('',(-0.0885,0.0535,0.025));
#1752=CARTESIAN_POINT('',(-0.0885,0.0535,0.));
#1753=CARTESIAN_POINT('',(-0.0884999999999999,0.0555,0.025));
#1754=CARTESIAN_POINT('',(-0.0884999999999999,0.0555,-2.42861286636753E-17));
#1755=CARTESIAN_POINT('',(-0.0874999999999999,0.0564999999999999,0.025));
#1756=CARTESIAN_POINT('',(-0.0874999999999999,0.0564999999999999,-2.77555756156289E-17));
#1757=CARTESIAN_POINT('',(-0.0855,0.0565,0.025));
#1758=CARTESIAN_POINT('',(-0.0855,0.0565,0.));
#1759=CARTESIAN_POINT('',(0.0885,-0.0955,0.025));
#1760=CARTESIAN_POINT('',(0.0885,-0.0955,0.));
#1761=CARTESIAN_POINT('',(0.0884999999999998,-0.0974999999999999,0.025));
#1762=CARTESIAN_POINT('',(0.0884999999999998,-0.0974999999999999,-2.77555756156289E-17));
#1763=CARTESIAN_POINT('',(0.0874999999999999,-0.0984999999999999,0.025));
#1764=CARTESIAN_POINT('',(0.0874999999999999,-0.0984999999999999,-2.77555756156289E-17));
#1765=CARTESIAN_POINT('',(0.0855,-0.0985,0.025));
#1766=CARTESIAN_POINT('',(0.0855,-0.0985,-6.93889390390723E-18));
#1767=CARTESIAN_POINT('',(-0.0885,-0.0955,-8.44662188371695E-19));
#1768=CARTESIAN_POINT('',(-0.0885,-0.0955,0.025));
#1769=CARTESIAN_POINT('',(-0.0884999999999999,-0.0975000000000001,3.32488666228891E-18));
#1770=CARTESIAN_POINT('',(-0.0884999999999999,-0.0975000000000001,0.025));
#1771=CARTESIAN_POINT('',(-0.0875000000000001,-0.0984999999999999,1.87928376564155E-18));
#1772=CARTESIAN_POINT('',(-0.0875000000000001,-0.0984999999999999,0.025));
#1773=CARTESIAN_POINT('',(-0.0855,-0.0985,-1.11944621004843E-18));
#1774=CARTESIAN_POINT('',(-0.0855,-0.0985,0.025));
#1775=CARTESIAN_POINT('',(0.01115,-0.08765,0.0105));
#1776=CARTESIAN_POINT('',(0.01115,-0.0441,0.011));
#1777=CARTESIAN_POINT('',(-0.0779,-0.08765,0.011));
#1778=CARTESIAN_POINT('',(-0.0779,-0.0441,0.0105));
#1779=CARTESIAN_POINT('',(0.085,-0.095,0.0245));
#1780=CARTESIAN_POINT('',(-0.085,-0.095,0.025));
#1781=CARTESIAN_POINT('',(0.085,0.053,0.025));
#1782=CARTESIAN_POINT('',(-0.085,0.053,0.0245));
#1783=CARTESIAN_POINT('',(-0.0825,-0.054,0.007125));
#1784=CARTESIAN_POINT('',(-0.0825,-0.054,0.0095));
#1785=CARTESIAN_POINT('',(-0.0845,-0.054,0.0095));
#1786=CARTESIAN_POINT('',(-0.0865,-0.054,0.0095));
#1787=CARTESIAN_POINT('',(-0.0885,-0.054,0.0095));
#1788=CARTESIAN_POINT('',(-0.0885,-0.054,0.00475));
#1789=CARTESIAN_POINT('',(-0.0865,-0.054,0.00475));
#1790=CARTESIAN_POINT('',(-0.0845,-0.054,0.00475));
#1791=CARTESIAN_POINT('',(-0.0825,-0.054,0.00475));
#1792=CARTESIAN_POINT('',(-0.0825,-0.0605,0.004));
#1793=CARTESIAN_POINT('',(-0.0885,-0.06625,0.004));
#1794=CARTESIAN_POINT('',(-0.0865,-0.06625,0.004));
#1795=CARTESIAN_POINT('',(-0.0845,-0.06625,0.004));
#1796=CARTESIAN_POINT('',(-0.0825,-0.06625,0.004));
#1797=CARTESIAN_POINT('',(-0.0825,-0.05475,0.004));
#1798=CARTESIAN_POINT('',(-0.0845,-0.05475,0.004));
#1799=CARTESIAN_POINT('',(-0.0865,-0.05475,0.004));
#1800=CARTESIAN_POINT('',(-0.0885,-0.05475,0.004));
#1801=CARTESIAN_POINT('',(-0.0825,-0.067,0.007125));
#1802=CARTESIAN_POINT('',(-0.0885,-0.067,0.0095));
#1803=CARTESIAN_POINT('',(-0.0865,-0.067,0.0095));
#1804=CARTESIAN_POINT('',(-0.0845,-0.067,0.0095));
#1805=CARTESIAN_POINT('',(-0.0825,-0.067,0.0095));
#1806=CARTESIAN_POINT('',(-0.0825,-0.067,0.00475));
#1807=CARTESIAN_POINT('',(-0.0845,-0.067,0.00475));
#1808=CARTESIAN_POINT('',(-0.0865,-0.067,0.00475));
#1809=CARTESIAN_POINT('',(-0.0885,-0.067,0.00475));
#1810=CARTESIAN_POINT('',(-0.0825,-0.0605,0.01025));
#1811=CARTESIAN_POINT('',(-0.0825,-0.06625,0.01025));
#1812=CARTESIAN_POINT('',(-0.0845,-0.06625,0.01025));
#1813=CARTESIAN_POINT('',(-0.0865,-0.06625,0.01025));
#1814=CARTESIAN_POINT('',(-0.0885,-0.06625,0.01025));
#1815=CARTESIAN_POINT('',(-0.0885,-0.05475,0.01025));
#1816=CARTESIAN_POINT('',(-0.0865,-0.05475,0.01025));
#1817=CARTESIAN_POINT('',(-0.0845,-0.05475,0.01025));
#1818=CARTESIAN_POINT('',(-0.0825,-0.05475,0.01025));
#1819=CARTESIAN_POINT('',(-0.0885,-0.06625,0.01025));
#1820=CARTESIAN_POINT('',(-0.0825,-0.06625,0.01025));
#1821=CARTESIAN_POINT('',(-0.0885000000000001,-0.06675,0.01025));
#1822=CARTESIAN_POINT('',(-0.0825000000000001,-0.06675,0.01025));
#1823=CARTESIAN_POINT('',(-0.0885000000000001,-0.067,0.00999999999999999));
#1824=CARTESIAN_POINT('',(-0.0825000000000001,-0.067,0.00999999999999999));
#1825=CARTESIAN_POINT('',(-0.0885,-0.067,0.0095));
#1826=CARTESIAN_POINT('',(-0.0825,-0.067,0.0095));
#1827=CARTESIAN_POINT('',(-0.0825,-0.05475,0.01025));
#1828=CARTESIAN_POINT('',(-0.0885,-0.05475,0.01025));
#1829=CARTESIAN_POINT('',(-0.0825000000000001,-0.05425,0.01025));
#1830=CARTESIAN_POINT('',(-0.0885000000000001,-0.05425,0.01025));
#1831=CARTESIAN_POINT('',(-0.0825000000000001,-0.054,0.00999999999999998));
#1832=CARTESIAN_POINT('',(-0.0885000000000001,-0.054,0.00999999999999998));
#1833=CARTESIAN_POINT('',(-0.0825,-0.054,0.0095));
#1834=CARTESIAN_POINT('',(-0.0885,-0.054,0.0095));
#1835=CARTESIAN_POINT('',(-0.0825,-0.0662499999999999,0.004));
#1836=CARTESIAN_POINT('',(-0.0885,-0.0662499999999999,0.004));
#1837=CARTESIAN_POINT('',(-0.0825000000000001,-0.06675,0.00399999999999998));
#1838=CARTESIAN_POINT('',(-0.0885000000000001,-0.06675,0.00399999999999998));
#1839=CARTESIAN_POINT('',(-0.0825000000000002,-0.0669999999999999,0.00424999999999999));
#1840=CARTESIAN_POINT('',(-0.0885000000000002,-0.0669999999999999,0.00424999999999999));
#1841=CARTESIAN_POINT('',(-0.0825,-0.067,0.00475));
#1842=CARTESIAN_POINT('',(-0.0885,-0.067,0.00475));
#1843=CARTESIAN_POINT('',(-0.0885,-0.05475,0.004));
#1844=CARTESIAN_POINT('',(-0.0825,-0.05475,0.004));
#1845=CARTESIAN_POINT('',(-0.0885000000000001,-0.05425,0.00399999999999999));
#1846=CARTESIAN_POINT('',(-0.0825000000000001,-0.05425,0.00399999999999999));
#1847=CARTESIAN_POINT('',(-0.0885000000000002,-0.0539999999999999,0.00425));
#1848=CARTESIAN_POINT('',(-0.0825000000000002,-0.0539999999999999,0.00425));
#1849=CARTESIAN_POINT('',(-0.0885,-0.054,0.00475));
#1850=CARTESIAN_POINT('',(-0.0825,-0.054,0.00475));
#1851=CARTESIAN_POINT('',(0.0725,-0.0395,0.0205));
#1852=CARTESIAN_POINT('',(0.0725,-0.0395,0.0175));
#1853=CARTESIAN_POINT('',(0.0725,-0.0595,0.0175));
#1854=CARTESIAN_POINT('',(0.0725,-0.0295,0.0175));
#1855=CARTESIAN_POINT('',(0.0725,-0.0595,0.025));
#1856=CARTESIAN_POINT('',(0.0725,-0.0495,0.025));
#1857=CARTESIAN_POINT('',(0.0725,-0.0495,0.0205));
#1858=CARTESIAN_POINT('',(0.0725,-0.0395,0.0205));
#1859=CARTESIAN_POINT('',(0.0725,-0.0295,0.0205));
#1860=CARTESIAN_POINT('',(0.0725,-0.0295,0.0205));
#1861=CARTESIAN_POINT('',(0.0775,-0.0295,0.0205));
#1862=CARTESIAN_POINT('',(0.0775,-0.0295,0.0175));
#1863=CARTESIAN_POINT('',(0.0775,-0.0295,0.0205));
#1864=CARTESIAN_POINT('',(1.38777878078145E-17,-0.021,0.0205));
#1865=CARTESIAN_POINT('',(0.0775,-0.0495,0.0205));
#1866=CARTESIAN_POINT('',(1.38777878078145E-17,-0.021,0.0175));
#1867=CARTESIAN_POINT('',(0.0775,-0.0595,0.0175));
#1868=CARTESIAN_POINT('',(0.0725,0.0405,0.0205));
#1869=CARTESIAN_POINT('',(0.0725,0.0405,0.0175));
#1870=CARTESIAN_POINT('',(0.0725,0.0305,0.0175));
#1871=CARTESIAN_POINT('',(0.0725,0.0305,0.0205));
#1872=CARTESIAN_POINT('',(0.0725,0.0305,0.0205));
#1873=CARTESIAN_POINT('',(0.0725,0.0405,0.0205));
#1874=CARTESIAN_POINT('',(0.0775,0.0305,0.0205));
#1875=CARTESIAN_POINT('',(0.0775,0.0305,0.0175));
#1876=CARTESIAN_POINT('',(0.0775,0.0305,0.0205));
#1877=CARTESIAN_POINT('',(1.38777878078145E-17,-0.021,0.0205));
#1878=CARTESIAN_POINT('',(1.38777878078145E-17,-0.021,0.0175));
#1879=CARTESIAN_POINT('',(-0.0775,0.0305,0.0205));
#1880=CARTESIAN_POINT('',(-0.0775,0.0305,0.0175));
#1881=CARTESIAN_POINT('',(-0.0725,0.0305,0.0175));
#1882=CARTESIAN_POINT('',(-0.0725,0.0305,0.0205));
#1883=CARTESIAN_POINT('',(-0.0725,0.0305,0.0205));
#1884=CARTESIAN_POINT('',(-0.0775,0.0305,0.0205));
#1885=CARTESIAN_POINT('',(-0.0725,0.0405,0.0205));
#1886=CARTESIAN_POINT('',(-0.0725,0.0405,0.0175));
#1887=CARTESIAN_POINT('',(-0.0725,0.0405,0.0205));
#1888=CARTESIAN_POINT('',(1.38777878078145E-17,-0.021,0.0205));
#1889=CARTESIAN_POINT('',(1.38777878078145E-17,-0.021,0.0175));
#1890=CARTESIAN_POINT('',(0.0775,-0.0495,0.025));
#1891=CARTESIAN_POINT('',(0.0775,-0.0595,0.025));
#1892=MECHANICAL_DESIGN_GEOMETRIC_PRESENTATION_REPRESENTATION('',(#1065),
#1893);
#1893=(
GEOMETRIC_REPRESENTATION_CONTEXT(3)
GLOBAL_UNCERTAINTY_ASSIGNED_CONTEXT((#1894))
GLOBAL_UNIT_ASSIGNED_CONTEXT((#1897,#1896,#1895))
REPRESENTATION_CONTEXT('enclosure base','TOP_LEVEL_ASSEMBLY_PART')
);
#1894=UNCERTAINTY_MEASURE_WITH_UNIT(LENGTH_MEASURE(2.E-5),#1897,
'DISTANCE_ACCURACY_VALUE','Maximum Tolerance applied to model');
#1895=(
NAMED_UNIT(*)
SI_UNIT($,.STERADIAN.)
SOLID_ANGLE_UNIT()
);
#1896=(
NAMED_UNIT(*)
PLANE_ANGLE_UNIT()
SI_UNIT($,.RADIAN.)
);
#1897=(
LENGTH_UNIT()
NAMED_UNIT(*)
SI_UNIT($,.METRE.)
);
#1898=PRODUCT_DEFINITION_SHAPE('','',#1899);
#1899=PRODUCT_DEFINITION('','',#1901,#1900);
#1900=PRODUCT_DEFINITION_CONTEXT('',#1907,'design');
#1901=PRODUCT_DEFINITION_FORMATION_WITH_SPECIFIED_SOURCE('','',#1903,
 .NOT_KNOWN.);
#1902=PRODUCT_RELATED_PRODUCT_CATEGORY('','',(#1903));
#1903=PRODUCT('enclosure base','enclosure base','enclosure base',(#1905));
#1904=PRODUCT_CATEGORY('','');
#1905=PRODUCT_CONTEXT('',#1907,'mechanical');
#1906=APPLICATION_PROTOCOL_DEFINITION('international standard',
'ap242_managed_model_based_3d_engineering',2020,#1907);
#1907=APPLICATION_CONTEXT('managed model based 3d engineering');
ENDSEC;
END-ISO-10303-21;
