ISO-10303-21;
HEADER;
/* Generated by software containing ST-Developer
 * from STEP Tools, Inc. (www.steptools.com) 
 */
/* OPTION: using custom renumber hook */

FILE_DESCRIPTION(
/* description */ ('STEP AP242 Edition 2',
'CAx-IF Rec.Pracs.---Representation and Presentation of Product Manufa
cturing Information (PMI)---4.0---2014-10-13',
'CAx-IF Rec.Pracs.---3D Tessellated Geometry---0.4---2014-09-14','2;1',
'CAx-IF Rec.Pracs.---User Defined Attributes---1.5---2016-08-15'),
/* implementation_level */ '2;1');

FILE_NAME(
/* name */ 'Part Studio 1 - lid',
/* time_stamp */ '2026-05-03T23:46:14Z',
/* author */ (''),
/* organization */ (''),
/* preprocessor_version */ 'ST-DEVELOPER v20',
/* originating_system */ 'ONSHAPE BY PTC INC, 1.214',
/* authorisation */ '  ');

FILE_SCHEMA (('AP242_MANAGED_MODEL_BASED_3D_ENGINEERING_MIM_LF { 1 0 10303 442 3 1 4 }'));
ENDSEC;

DATA;
#10=SHAPE_REPRESENTATION_RELATIONSHIP('','',#439,#11);
#11=ADVANCED_BREP_SHAPE_REPRESENTATION('',(#437),#749);
#12=B_SPLINE_SURFACE_WITH_KNOTS('',3,1,((#716,#717),(#718,#719),(#720,#721),
(#722,#723)),.SURF_OF_LINEAR_EXTRUSION.,.F.,.F.,.F.,(4,4),(2,2),(3.73556169321198E-15,
0.999999999999998),(0.,1.),.PIECEWISE_BEZIER_KNOTS.);
#13=B_SPLINE_SURFACE_WITH_KNOTS('',3,1,((#724,#725),(#726,#727),(#728,#729),
(#730,#731)),.SURF_OF_LINEAR_EXTRUSION.,.F.,.F.,.F.,(4,4),(2,2),(-1.1139958505453E-15,
0.999999999999999),(0.,1.),.PIECEWISE_BEZIER_KNOTS.);
#14=B_SPLINE_SURFACE_WITH_KNOTS('',3,1,((#732,#733),(#734,#735),(#736,#737),
(#738,#739)),.SURF_OF_LINEAR_EXTRUSION.,.F.,.F.,.F.,(4,4),(2,2),(1.93192369576192E-15,
1.),(0.,1.),.PIECEWISE_BEZIER_KNOTS.);
#15=B_SPLINE_SURFACE_WITH_KNOTS('',3,1,((#740,#741),(#742,#743),(#744,#745),
(#746,#747)),.SURF_OF_LINEAR_EXTRUSION.,.F.,.F.,.F.,(4,4),(2,2),(-1.91392586911562E-15,
1.),(0.,1.),.PIECEWISE_BEZIER_KNOTS.);
#16=CIRCLE('',#452,0.0021);
#17=CIRCLE('',#453,0.0021);
#18=CIRCLE('',#455,0.0021);
#19=CIRCLE('',#456,0.0021);
#20=CIRCLE('',#458,0.0021);
#21=CIRCLE('',#459,0.0021);
#22=CIRCLE('',#461,0.0021);
#23=CIRCLE('',#462,0.0021);
#24=CYLINDRICAL_SURFACE('',#451,0.0021);
#25=CYLINDRICAL_SURFACE('',#454,0.0021);
#26=CYLINDRICAL_SURFACE('',#457,0.0021);
#27=CYLINDRICAL_SURFACE('',#460,0.0021);
#28=B_SPLINE_CURVE_WITH_KNOTS('',3,(#558,#559,#560,#561),.UNSPECIFIED.,
 .F.,.F.,(4,4),(0.,1.),.UNSPECIFIED.);
#29=B_SPLINE_CURVE_WITH_KNOTS('',3,(#565,#566,#567,#568),.UNSPECIFIED.,
 .F.,.F.,(4,4),(0.,1.),.UNSPECIFIED.);
#30=B_SPLINE_CURVE_WITH_KNOTS('',3,(#573,#574,#575,#576),.UNSPECIFIED.,
 .F.,.F.,(4,4),(0.,1.),.UNSPECIFIED.);
#31=B_SPLINE_CURVE_WITH_KNOTS('',3,(#580,#581,#582,#583),.UNSPECIFIED.,
 .F.,.F.,(4,4),(0.,1.),.UNSPECIFIED.);
#32=B_SPLINE_CURVE_WITH_KNOTS('',3,(#588,#589,#590,#591),.UNSPECIFIED.,
 .F.,.F.,(4,4),(0.,1.),.UNSPECIFIED.);
#33=B_SPLINE_CURVE_WITH_KNOTS('',3,(#595,#596,#597,#598),.UNSPECIFIED.,
 .F.,.F.,(4,4),(0.,1.),.UNSPECIFIED.);
#34=B_SPLINE_CURVE_WITH_KNOTS('',3,(#671,#672,#673,#674),.UNSPECIFIED.,
 .F.,.F.,(4,4),(0.,1.),.UNSPECIFIED.);
#35=B_SPLINE_CURVE_WITH_KNOTS('',3,(#678,#679,#680,#681),.UNSPECIFIED.,
 .F.,.F.,(4,4),(0.,1.),.UNSPECIFIED.);
#36=B_SPLINE_CURVE_WITH_KNOTS('',3,(#683,#684,#685,#686),.UNSPECIFIED.,
 .F.,.F.,(4,4),(0.,1.),.UNSPECIFIED.);
#37=B_SPLINE_CURVE_WITH_KNOTS('',3,(#687,#688,#689,#690),.UNSPECIFIED.,
 .F.,.F.,(4,4),(0.,1.),.UNSPECIFIED.);
#38=B_SPLINE_CURVE_WITH_KNOTS('',3,(#691,#692,#693,#694),.UNSPECIFIED.,
 .F.,.F.,(4,4),(0.,1.),.UNSPECIFIED.);
#39=B_SPLINE_CURVE_WITH_KNOTS('',3,(#695,#696,#697,#698),.UNSPECIFIED.,
 .F.,.F.,(4,4),(0.,1.),.UNSPECIFIED.);
#40=B_SPLINE_CURVE_WITH_KNOTS('',3,(#700,#701,#702,#703),.UNSPECIFIED.,
 .F.,.F.,(4,4),(0.,1.),.UNSPECIFIED.);
#41=B_SPLINE_CURVE_WITH_KNOTS('',3,(#704,#705,#706,#707),.UNSPECIFIED.,
 .F.,.F.,(4,4),(0.,1.),.UNSPECIFIED.);
#42=B_SPLINE_CURVE_WITH_KNOTS('',3,(#708,#709,#710,#711),.UNSPECIFIED.,
 .F.,.F.,(4,4),(0.,1.),.UNSPECIFIED.);
#43=B_SPLINE_CURVE_WITH_KNOTS('',3,(#712,#713,#714,#715),.UNSPECIFIED.,
 .F.,.F.,(4,4),(0.,1.),.UNSPECIFIED.);
#44=ORIENTED_EDGE('',*,*,#156,.T.);
#45=ORIENTED_EDGE('',*,*,#157,.T.);
#46=ORIENTED_EDGE('',*,*,#158,.F.);
#47=ORIENTED_EDGE('',*,*,#159,.T.);
#48=ORIENTED_EDGE('',*,*,#160,.T.);
#49=ORIENTED_EDGE('',*,*,#161,.T.);
#50=ORIENTED_EDGE('',*,*,#162,.F.);
#51=ORIENTED_EDGE('',*,*,#163,.T.);
#52=ORIENTED_EDGE('',*,*,#164,.T.);
#53=ORIENTED_EDGE('',*,*,#165,.T.);
#54=ORIENTED_EDGE('',*,*,#166,.F.);
#55=ORIENTED_EDGE('',*,*,#167,.T.);
#56=ORIENTED_EDGE('',*,*,#168,.F.);
#57=ORIENTED_EDGE('',*,*,#169,.F.);
#58=ORIENTED_EDGE('',*,*,#170,.T.);
#59=ORIENTED_EDGE('',*,*,#171,.T.);
#60=ORIENTED_EDGE('',*,*,#172,.T.);
#61=ORIENTED_EDGE('',*,*,#173,.F.);
#62=ORIENTED_EDGE('',*,*,#174,.F.);
#63=ORIENTED_EDGE('',*,*,#169,.T.);
#64=ORIENTED_EDGE('',*,*,#175,.T.);
#65=ORIENTED_EDGE('',*,*,#176,.F.);
#66=ORIENTED_EDGE('',*,*,#177,.F.);
#67=ORIENTED_EDGE('',*,*,#173,.T.);
#68=ORIENTED_EDGE('',*,*,#178,.F.);
#69=ORIENTED_EDGE('',*,*,#179,.F.);
#70=ORIENTED_EDGE('',*,*,#180,.T.);
#71=ORIENTED_EDGE('',*,*,#181,.T.);
#72=ORIENTED_EDGE('',*,*,#182,.T.);
#73=ORIENTED_EDGE('',*,*,#183,.F.);
#74=ORIENTED_EDGE('',*,*,#184,.F.);
#75=ORIENTED_EDGE('',*,*,#179,.T.);
#76=ORIENTED_EDGE('',*,*,#185,.T.);
#77=ORIENTED_EDGE('',*,*,#186,.F.);
#78=ORIENTED_EDGE('',*,*,#187,.F.);
#79=ORIENTED_EDGE('',*,*,#183,.T.);
#80=ORIENTED_EDGE('',*,*,#188,.F.);
#81=ORIENTED_EDGE('',*,*,#171,.F.);
#82=ORIENTED_EDGE('',*,*,#189,.T.);
#83=ORIENTED_EDGE('',*,*,#176,.T.);
#84=ORIENTED_EDGE('',*,*,#190,.T.);
#85=ORIENTED_EDGE('',*,*,#191,.F.);
#86=ORIENTED_EDGE('',*,*,#192,.T.);
#87=ORIENTED_EDGE('',*,*,#193,.F.);
#88=ORIENTED_EDGE('',*,*,#194,.T.);
#89=ORIENTED_EDGE('',*,*,#195,.F.);
#90=ORIENTED_EDGE('',*,*,#196,.T.);
#91=ORIENTED_EDGE('',*,*,#197,.F.);
#92=ORIENTED_EDGE('',*,*,#198,.F.);
#93=ORIENTED_EDGE('',*,*,#181,.F.);
#94=ORIENTED_EDGE('',*,*,#199,.T.);
#95=ORIENTED_EDGE('',*,*,#186,.T.);
#96=ORIENTED_EDGE('',*,*,#200,.T.);
#97=ORIENTED_EDGE('',*,*,#201,.T.);
#98=ORIENTED_EDGE('',*,*,#202,.F.);
#99=ORIENTED_EDGE('',*,*,#203,.T.);
#100=ORIENTED_EDGE('',*,*,#180,.F.);
#101=ORIENTED_EDGE('',*,*,#184,.T.);
#102=ORIENTED_EDGE('',*,*,#187,.T.);
#103=ORIENTED_EDGE('',*,*,#199,.F.);
#104=ORIENTED_EDGE('',*,*,#196,.F.);
#105=ORIENTED_EDGE('',*,*,#194,.F.);
#106=ORIENTED_EDGE('',*,*,#192,.F.);
#107=ORIENTED_EDGE('',*,*,#190,.F.);
#108=ORIENTED_EDGE('',*,*,#170,.F.);
#109=ORIENTED_EDGE('',*,*,#174,.T.);
#110=ORIENTED_EDGE('',*,*,#177,.T.);
#111=ORIENTED_EDGE('',*,*,#189,.F.);
#112=ORIENTED_EDGE('',*,*,#166,.T.);
#113=ORIENTED_EDGE('',*,*,#204,.T.);
#114=ORIENTED_EDGE('',*,*,#200,.F.);
#115=ORIENTED_EDGE('',*,*,#205,.T.);
#116=ORIENTED_EDGE('',*,*,#156,.F.);
#117=ORIENTED_EDGE('',*,*,#206,.T.);
#118=ORIENTED_EDGE('',*,*,#162,.T.);
#119=ORIENTED_EDGE('',*,*,#207,.T.);
#120=ORIENTED_EDGE('',*,*,#178,.T.);
#121=ORIENTED_EDGE('',*,*,#198,.T.);
#122=ORIENTED_EDGE('',*,*,#185,.F.);
#123=ORIENTED_EDGE('',*,*,#182,.F.);
#124=ORIENTED_EDGE('',*,*,#197,.T.);
#125=ORIENTED_EDGE('',*,*,#195,.T.);
#126=ORIENTED_EDGE('',*,*,#193,.T.);
#127=ORIENTED_EDGE('',*,*,#191,.T.);
#128=ORIENTED_EDGE('',*,*,#168,.T.);
#129=ORIENTED_EDGE('',*,*,#188,.T.);
#130=ORIENTED_EDGE('',*,*,#175,.F.);
#131=ORIENTED_EDGE('',*,*,#172,.F.);
#132=ORIENTED_EDGE('',*,*,#202,.T.);
#133=ORIENTED_EDGE('',*,*,#208,.T.);
#134=ORIENTED_EDGE('',*,*,#164,.F.);
#135=ORIENTED_EDGE('',*,*,#209,.T.);
#136=ORIENTED_EDGE('',*,*,#160,.F.);
#137=ORIENTED_EDGE('',*,*,#210,.T.);
#138=ORIENTED_EDGE('',*,*,#158,.T.);
#139=ORIENTED_EDGE('',*,*,#211,.T.);
#140=ORIENTED_EDGE('',*,*,#204,.F.);
#141=ORIENTED_EDGE('',*,*,#165,.F.);
#142=ORIENTED_EDGE('',*,*,#208,.F.);
#143=ORIENTED_EDGE('',*,*,#201,.F.);
#144=ORIENTED_EDGE('',*,*,#207,.F.);
#145=ORIENTED_EDGE('',*,*,#161,.F.);
#146=ORIENTED_EDGE('',*,*,#209,.F.);
#147=ORIENTED_EDGE('',*,*,#167,.F.);
#148=ORIENTED_EDGE('',*,*,#205,.F.);
#149=ORIENTED_EDGE('',*,*,#203,.F.);
#150=ORIENTED_EDGE('',*,*,#211,.F.);
#151=ORIENTED_EDGE('',*,*,#157,.F.);
#152=ORIENTED_EDGE('',*,*,#206,.F.);
#153=ORIENTED_EDGE('',*,*,#159,.F.);
#154=ORIENTED_EDGE('',*,*,#210,.F.);
#155=ORIENTED_EDGE('',*,*,#163,.F.);
#156=EDGE_CURVE('',#212,#213,#252,.T.);
#157=EDGE_CURVE('',#213,#214,#28,.T.);
#158=EDGE_CURVE('',#215,#214,#253,.T.);
#159=EDGE_CURVE('',#215,#212,#29,.T.);
#160=EDGE_CURVE('',#216,#217,#254,.T.);
#161=EDGE_CURVE('',#217,#218,#30,.T.);
#162=EDGE_CURVE('',#219,#218,#255,.T.);
#163=EDGE_CURVE('',#219,#216,#31,.T.);
#164=EDGE_CURVE('',#220,#221,#256,.T.);
#165=EDGE_CURVE('',#221,#222,#32,.T.);
#166=EDGE_CURVE('',#223,#222,#257,.T.);
#167=EDGE_CURVE('',#223,#220,#33,.T.);
#168=EDGE_CURVE('',#224,#225,#258,.T.);
#169=EDGE_CURVE('',#226,#224,#259,.T.);
#170=EDGE_CURVE('',#226,#227,#260,.T.);
#171=EDGE_CURVE('',#227,#225,#261,.T.);
#172=EDGE_CURVE('',#224,#228,#262,.T.);
#173=EDGE_CURVE('',#229,#228,#263,.T.);
#174=EDGE_CURVE('',#226,#229,#264,.T.);
#175=EDGE_CURVE('',#228,#230,#265,.T.);
#176=EDGE_CURVE('',#231,#230,#266,.T.);
#177=EDGE_CURVE('',#229,#231,#267,.T.);
#178=EDGE_CURVE('',#232,#233,#268,.T.);
#179=EDGE_CURVE('',#234,#232,#269,.T.);
#180=EDGE_CURVE('',#234,#235,#270,.T.);
#181=EDGE_CURVE('',#235,#233,#271,.T.);
#182=EDGE_CURVE('',#232,#236,#272,.T.);
#183=EDGE_CURVE('',#237,#236,#273,.T.);
#184=EDGE_CURVE('',#234,#237,#274,.T.);
#185=EDGE_CURVE('',#236,#238,#275,.T.);
#186=EDGE_CURVE('',#239,#238,#276,.T.);
#187=EDGE_CURVE('',#237,#239,#277,.T.);
#188=EDGE_CURVE('',#225,#230,#278,.T.);
#189=EDGE_CURVE('',#227,#231,#279,.T.);
#190=EDGE_CURVE('',#240,#240,#16,.T.);
#191=EDGE_CURVE('',#241,#241,#17,.T.);
#192=EDGE_CURVE('',#242,#242,#18,.T.);
#193=EDGE_CURVE('',#243,#243,#19,.T.);
#194=EDGE_CURVE('',#244,#244,#20,.T.);
#195=EDGE_CURVE('',#245,#245,#21,.T.);
#196=EDGE_CURVE('',#246,#246,#22,.T.);
#197=EDGE_CURVE('',#247,#247,#23,.T.);
#198=EDGE_CURVE('',#233,#238,#280,.T.);
#199=EDGE_CURVE('',#235,#239,#281,.T.);
#200=EDGE_CURVE('',#248,#249,#282,.T.);
#201=EDGE_CURVE('',#249,#250,#34,.T.);
#202=EDGE_CURVE('',#251,#250,#283,.T.);
#203=EDGE_CURVE('',#251,#248,#35,.T.);
#204=EDGE_CURVE('',#222,#249,#36,.T.);
#205=EDGE_CURVE('',#248,#213,#37,.T.);
#206=EDGE_CURVE('',#212,#219,#38,.T.);
#207=EDGE_CURVE('',#218,#223,#39,.T.);
#208=EDGE_CURVE('',#250,#221,#40,.T.);
#209=EDGE_CURVE('',#220,#217,#41,.T.);
#210=EDGE_CURVE('',#216,#215,#42,.T.);
#211=EDGE_CURVE('',#214,#251,#43,.T.);
#212=VERTEX_POINT('',#556);
#213=VERTEX_POINT('',#557);
#214=VERTEX_POINT('',#562);
#215=VERTEX_POINT('',#564);
#216=VERTEX_POINT('',#571);
#217=VERTEX_POINT('',#572);
#218=VERTEX_POINT('',#577);
#219=VERTEX_POINT('',#579);
#220=VERTEX_POINT('',#586);
#221=VERTEX_POINT('',#587);
#222=VERTEX_POINT('',#592);
#223=VERTEX_POINT('',#594);
#224=VERTEX_POINT('',#601);
#225=VERTEX_POINT('',#602);
#226=VERTEX_POINT('',#604);
#227=VERTEX_POINT('',#606);
#228=VERTEX_POINT('',#610);
#229=VERTEX_POINT('',#612);
#230=VERTEX_POINT('',#616);
#231=VERTEX_POINT('',#618);
#232=VERTEX_POINT('',#622);
#233=VERTEX_POINT('',#623);
#234=VERTEX_POINT('',#625);
#235=VERTEX_POINT('',#627);
#236=VERTEX_POINT('',#631);
#237=VERTEX_POINT('',#633);
#238=VERTEX_POINT('',#637);
#239=VERTEX_POINT('',#639);
#240=VERTEX_POINT('',#646);
#241=VERTEX_POINT('',#648);
#242=VERTEX_POINT('',#651);
#243=VERTEX_POINT('',#653);
#244=VERTEX_POINT('',#656);
#245=VERTEX_POINT('',#658);
#246=VERTEX_POINT('',#661);
#247=VERTEX_POINT('',#663);
#248=VERTEX_POINT('',#669);
#249=VERTEX_POINT('',#670);
#250=VERTEX_POINT('',#675);
#251=VERTEX_POINT('',#677);
#252=LINE('',#555,#284);
#253=LINE('',#563,#285);
#254=LINE('',#570,#286);
#255=LINE('',#578,#287);
#256=LINE('',#585,#288);
#257=LINE('',#593,#289);
#258=LINE('',#600,#290);
#259=LINE('',#603,#291);
#260=LINE('',#605,#292);
#261=LINE('',#607,#293);
#262=LINE('',#609,#294);
#263=LINE('',#611,#295);
#264=LINE('',#613,#296);
#265=LINE('',#615,#297);
#266=LINE('',#617,#298);
#267=LINE('',#619,#299);
#268=LINE('',#621,#300);
#269=LINE('',#624,#301);
#270=LINE('',#626,#302);
#271=LINE('',#628,#303);
#272=LINE('',#630,#304);
#273=LINE('',#632,#305);
#274=LINE('',#634,#306);
#275=LINE('',#636,#307);
#276=LINE('',#638,#308);
#277=LINE('',#640,#309);
#278=LINE('',#642,#310);
#279=LINE('',#643,#311);
#280=LINE('',#665,#312);
#281=LINE('',#666,#313);
#282=LINE('',#668,#314);
#283=LINE('',#676,#315);
#284=VECTOR('',#471,1.);
#285=VECTOR('',#472,1.);
#286=VECTOR('',#475,1.);
#287=VECTOR('',#476,1.);
#288=VECTOR('',#479,1.);
#289=VECTOR('',#480,1.);
#290=VECTOR('',#483,1.);
#291=VECTOR('',#484,1.);
#292=VECTOR('',#485,1.);
#293=VECTOR('',#486,1.);
#294=VECTOR('',#489,1.);
#295=VECTOR('',#490,1.);
#296=VECTOR('',#491,1.);
#297=VECTOR('',#494,1.);
#298=VECTOR('',#495,1.);
#299=VECTOR('',#496,1.);
#300=VECTOR('',#499,1.);
#301=VECTOR('',#500,1.);
#302=VECTOR('',#501,1.);
#303=VECTOR('',#502,1.);
#304=VECTOR('',#505,1.);
#305=VECTOR('',#506,1.);
#306=VECTOR('',#507,1.);
#307=VECTOR('',#510,1.);
#308=VECTOR('',#511,1.);
#309=VECTOR('',#512,1.);
#310=VECTOR('',#515,1.);
#311=VECTOR('',#516,1.);
#312=VECTOR('',#543,1.);
#313=VECTOR('',#544,1.);
#314=VECTOR('',#547,1.);
#315=VECTOR('',#548,1.);
#316=EDGE_LOOP('',(#44,#45,#46,#47));
#317=EDGE_LOOP('',(#48,#49,#50,#51));
#318=EDGE_LOOP('',(#52,#53,#54,#55));
#319=EDGE_LOOP('',(#56,#57,#58,#59));
#320=EDGE_LOOP('',(#60,#61,#62,#63));
#321=EDGE_LOOP('',(#64,#65,#66,#67));
#322=EDGE_LOOP('',(#68,#69,#70,#71));
#323=EDGE_LOOP('',(#72,#73,#74,#75));
#324=EDGE_LOOP('',(#76,#77,#78,#79));
#325=EDGE_LOOP('',(#80,#81,#82,#83));
#326=EDGE_LOOP('',(#84));
#327=EDGE_LOOP('',(#85));
#328=EDGE_LOOP('',(#86));
#329=EDGE_LOOP('',(#87));
#330=EDGE_LOOP('',(#88));
#331=EDGE_LOOP('',(#89));
#332=EDGE_LOOP('',(#90));
#333=EDGE_LOOP('',(#91));
#334=EDGE_LOOP('',(#92,#93,#94,#95));
#335=EDGE_LOOP('',(#96,#97,#98,#99));
#336=EDGE_LOOP('',(#100,#101,#102,#103));
#337=EDGE_LOOP('',(#104));
#338=EDGE_LOOP('',(#105));
#339=EDGE_LOOP('',(#106));
#340=EDGE_LOOP('',(#107));
#341=EDGE_LOOP('',(#108,#109,#110,#111));
#342=EDGE_LOOP('',(#112,#113,#114,#115,#116,#117,#118,#119));
#343=EDGE_LOOP('',(#120,#121,#122,#123));
#344=EDGE_LOOP('',(#124));
#345=EDGE_LOOP('',(#125));
#346=EDGE_LOOP('',(#126));
#347=EDGE_LOOP('',(#127));
#348=EDGE_LOOP('',(#128,#129,#130,#131));
#349=EDGE_LOOP('',(#132,#133,#134,#135,#136,#137,#138,#139));
#350=EDGE_LOOP('',(#140,#141,#142,#143));
#351=EDGE_LOOP('',(#144,#145,#146,#147));
#352=EDGE_LOOP('',(#148,#149,#150,#151));
#353=EDGE_LOOP('',(#152,#153,#154,#155));
#354=FACE_BOUND('',#316,.T.);
#355=FACE_BOUND('',#317,.T.);
#356=FACE_BOUND('',#318,.T.);
#357=FACE_BOUND('',#319,.T.);
#358=FACE_BOUND('',#320,.T.);
#359=FACE_BOUND('',#321,.T.);
#360=FACE_BOUND('',#322,.T.);
#361=FACE_BOUND('',#323,.T.);
#362=FACE_BOUND('',#324,.T.);
#363=FACE_BOUND('',#325,.T.);
#364=FACE_BOUND('',#326,.T.);
#365=FACE_BOUND('',#327,.T.);
#366=FACE_BOUND('',#328,.T.);
#367=FACE_BOUND('',#329,.T.);
#368=FACE_BOUND('',#330,.T.);
#369=FACE_BOUND('',#331,.T.);
#370=FACE_BOUND('',#332,.T.);
#371=FACE_BOUND('',#333,.T.);
#372=FACE_BOUND('',#334,.T.);
#373=FACE_BOUND('',#335,.T.);
#374=FACE_BOUND('',#336,.T.);
#375=FACE_BOUND('',#337,.T.);
#376=FACE_BOUND('',#338,.T.);
#377=FACE_BOUND('',#339,.T.);
#378=FACE_BOUND('',#340,.T.);
#379=FACE_BOUND('',#341,.T.);
#380=FACE_BOUND('',#342,.T.);
#381=FACE_BOUND('',#343,.T.);
#382=FACE_BOUND('',#344,.T.);
#383=FACE_BOUND('',#345,.T.);
#384=FACE_BOUND('',#346,.T.);
#385=FACE_BOUND('',#347,.T.);
#386=FACE_BOUND('',#348,.T.);
#387=FACE_BOUND('',#349,.T.);
#388=FACE_BOUND('',#350,.T.);
#389=FACE_BOUND('',#351,.T.);
#390=FACE_BOUND('',#352,.T.);
#391=FACE_BOUND('',#353,.T.);
#392=PLANE('',#441);
#393=PLANE('',#442);
#394=PLANE('',#443);
#395=PLANE('',#444);
#396=PLANE('',#445);
#397=PLANE('',#446);
#398=PLANE('',#447);
#399=PLANE('',#448);
#400=PLANE('',#449);
#401=PLANE('',#450);
#402=PLANE('',#463);
#403=PLANE('',#464);
#404=PLANE('',#465);
#405=PLANE('',#466);
#406=ADVANCED_FACE('',(#354),#392,.T.);
#407=ADVANCED_FACE('',(#355),#393,.F.);
#408=ADVANCED_FACE('',(#356),#394,.F.);
#409=ADVANCED_FACE('',(#357),#395,.T.);
#410=ADVANCED_FACE('',(#358),#396,.F.);
#411=ADVANCED_FACE('',(#359),#397,.F.);
#412=ADVANCED_FACE('',(#360),#398,.T.);
#413=ADVANCED_FACE('',(#361),#399,.F.);
#414=ADVANCED_FACE('',(#362),#400,.F.);
#415=ADVANCED_FACE('',(#363),#401,.T.);
#416=ADVANCED_FACE('',(#364,#365),#24,.F.);
#417=ADVANCED_FACE('',(#366,#367),#25,.F.);
#418=ADVANCED_FACE('',(#368,#369),#26,.F.);
#419=ADVANCED_FACE('',(#370,#371),#27,.F.);
#420=ADVANCED_FACE('',(#372),#402,.T.);
#421=ADVANCED_FACE('',(#373),#403,.T.);
#422=ADVANCED_FACE('',(#374,#375,#376,#377,#378,#379,#380),#404,.T.);
#423=ADVANCED_FACE('',(#381,#382,#383,#384,#385,#386,#387),#405,.F.);
#424=ADVANCED_FACE('',(#388),#12,.T.);
#425=ADVANCED_FACE('',(#389),#13,.T.);
#426=ADVANCED_FACE('',(#390),#14,.T.);
#427=ADVANCED_FACE('',(#391),#15,.T.);
#428=CLOSED_SHELL('',(#406,#407,#408,#409,#410,#411,#412,#413,#414,#415,
#416,#417,#418,#419,#420,#421,#422,#423,#424,#425,#426,#427));
#429=STYLED_ITEM('',(#430),#437);
#430=PRESENTATION_STYLE_ASSIGNMENT((#431));
#431=SURFACE_STYLE_USAGE(.BOTH.,#432);
#432=SURFACE_SIDE_STYLE('',(#433));
#433=SURFACE_STYLE_FILL_AREA(#434);
#434=FILL_AREA_STYLE('',(#435));
#435=FILL_AREA_STYLE_COLOUR('',#436);
#436=COLOUR_RGB('',0.647058823529412,0.647058823529412,0.647058823529412);
#437=MANIFOLD_SOLID_BREP('lid',#428);
#438=SHAPE_DEFINITION_REPRESENTATION(#754,#439);
#439=SHAPE_REPRESENTATION('lid',(#440),#749);
#440=AXIS2_PLACEMENT_3D('',#553,#467,#468);
#441=AXIS2_PLACEMENT_3D('',#554,#469,#470);
#442=AXIS2_PLACEMENT_3D('',#569,#473,#474);
#443=AXIS2_PLACEMENT_3D('',#584,#477,#478);
#444=AXIS2_PLACEMENT_3D('',#599,#481,#482);
#445=AXIS2_PLACEMENT_3D('',#608,#487,#488);
#446=AXIS2_PLACEMENT_3D('',#614,#492,#493);
#447=AXIS2_PLACEMENT_3D('',#620,#497,#498);
#448=AXIS2_PLACEMENT_3D('',#629,#503,#504);
#449=AXIS2_PLACEMENT_3D('',#635,#508,#509);
#450=AXIS2_PLACEMENT_3D('',#641,#513,#514);
#451=AXIS2_PLACEMENT_3D('',#644,#517,#518);
#452=AXIS2_PLACEMENT_3D('',#645,#519,#520);
#453=AXIS2_PLACEMENT_3D('',#647,#521,#522);
#454=AXIS2_PLACEMENT_3D('',#649,#523,#524);
#455=AXIS2_PLACEMENT_3D('',#650,#525,#526);
#456=AXIS2_PLACEMENT_3D('',#652,#527,#528);
#457=AXIS2_PLACEMENT_3D('',#654,#529,#530);
#458=AXIS2_PLACEMENT_3D('',#655,#531,#532);
#459=AXIS2_PLACEMENT_3D('',#657,#533,#534);
#460=AXIS2_PLACEMENT_3D('',#659,#535,#536);
#461=AXIS2_PLACEMENT_3D('',#660,#537,#538);
#462=AXIS2_PLACEMENT_3D('',#662,#539,#540);
#463=AXIS2_PLACEMENT_3D('',#664,#541,#542);
#464=AXIS2_PLACEMENT_3D('',#667,#545,#546);
#465=AXIS2_PLACEMENT_3D('',#682,#549,#550);
#466=AXIS2_PLACEMENT_3D('',#699,#551,#552);
#467=DIRECTION('',(0.,0.,1.));
#468=DIRECTION('',(1.,0.,0.));
#469=DIRECTION('',(0.,1.,0.));
#470=DIRECTION('',(0.,0.,1.));
#471=DIRECTION('',(1.,0.,0.));
#472=DIRECTION('',(1.,0.,0.));
#473=DIRECTION('',(1.,0.,0.));
#474=DIRECTION('',(0.,0.,-1.));
#475=DIRECTION('',(0.,-1.,0.));
#476=DIRECTION('',(0.,-1.,0.));
#477=DIRECTION('',(0.,1.,0.));
#478=DIRECTION('',(0.,0.,1.));
#479=DIRECTION('',(1.,0.,0.));
#480=DIRECTION('',(1.,0.,0.));
#481=DIRECTION('',(1.,0.,0.));
#482=DIRECTION('',(0.,0.,-1.));
#483=DIRECTION('',(0.,-1.,0.));
#484=DIRECTION('',(0.,0.,-1.));
#485=DIRECTION('',(0.,-1.,0.));
#486=DIRECTION('',(0.,0.,-1.));
#487=DIRECTION('',(0.,1.,0.));
#488=DIRECTION('',(0.,0.,1.));
#489=DIRECTION('',(1.,0.,0.));
#490=DIRECTION('',(0.,0.,-1.));
#491=DIRECTION('',(1.,0.,0.));
#492=DIRECTION('',(1.,0.,0.));
#493=DIRECTION('',(0.,0.,-1.));
#494=DIRECTION('',(0.,-1.,0.));
#495=DIRECTION('',(0.,0.,-1.));
#496=DIRECTION('',(0.,-1.,0.));
#497=DIRECTION('',(0.,-1.,0.));
#498=DIRECTION('',(0.,0.,-1.));
#499=DIRECTION('',(-1.,0.,0.));
#500=DIRECTION('',(0.,0.,-1.));
#501=DIRECTION('',(-1.,0.,0.));
#502=DIRECTION('',(0.,0.,-1.));
#503=DIRECTION('',(1.,0.,0.));
#504=DIRECTION('',(0.,0.,-1.));
#505=DIRECTION('',(0.,-1.,0.));
#506=DIRECTION('',(0.,0.,-1.));
#507=DIRECTION('',(0.,-1.,0.));
#508=DIRECTION('',(0.,-1.,0.));
#509=DIRECTION('',(0.,0.,-1.));
#510=DIRECTION('',(-1.,0.,0.));
#511=DIRECTION('',(0.,0.,-1.));
#512=DIRECTION('',(-1.,0.,0.));
#513=DIRECTION('',(0.,1.,0.));
#514=DIRECTION('',(0.,0.,1.));
#515=DIRECTION('',(1.,0.,0.));
#516=DIRECTION('',(1.,0.,0.));
#517=DIRECTION('',(0.,0.,-1.));
#518=DIRECTION('',(-1.,0.,0.));
#519=DIRECTION('',(0.,0.,1.));
#520=DIRECTION('',(1.,0.,0.));
#521=DIRECTION('',(0.,0.,1.));
#522=DIRECTION('',(1.,0.,0.));
#523=DIRECTION('',(0.,0.,-1.));
#524=DIRECTION('',(-1.,0.,0.));
#525=DIRECTION('',(0.,0.,1.));
#526=DIRECTION('',(1.,0.,0.));
#527=DIRECTION('',(0.,0.,1.));
#528=DIRECTION('',(1.,0.,0.));
#529=DIRECTION('',(0.,0.,-1.));
#530=DIRECTION('',(-1.,0.,0.));
#531=DIRECTION('',(0.,0.,1.));
#532=DIRECTION('',(1.,0.,0.));
#533=DIRECTION('',(0.,0.,1.));
#534=DIRECTION('',(1.,0.,0.));
#535=DIRECTION('',(0.,0.,-1.));
#536=DIRECTION('',(-1.,0.,0.));
#537=DIRECTION('',(0.,0.,1.));
#538=DIRECTION('',(1.,0.,0.));
#539=DIRECTION('',(0.,0.,1.));
#540=DIRECTION('',(1.,0.,0.));
#541=DIRECTION('',(1.,0.,0.));
#542=DIRECTION('',(0.,0.,-1.));
#543=DIRECTION('',(0.,-1.,0.));
#544=DIRECTION('',(0.,-1.,0.));
#545=DIRECTION('',(1.,0.,0.));
#546=DIRECTION('',(0.,0.,-1.));
#547=DIRECTION('',(0.,-1.,0.));
#548=DIRECTION('',(0.,-1.,0.));
#549=DIRECTION('',(0.,0.,1.));
#550=DIRECTION('',(1.,0.,0.));
#551=DIRECTION('',(0.,0.,1.));
#552=DIRECTION('',(1.,0.,0.));
#553=CARTESIAN_POINT('',(0.,0.,0.));
#554=CARTESIAN_POINT('',(1.38777878078145E-17,0.0565,0.0012));
#555=CARTESIAN_POINT('',(1.38777878078145E-17,0.0565,0.0012));
#556=CARTESIAN_POINT('',(-0.0855,0.0565,0.0012));
#557=CARTESIAN_POINT('',(0.0855,0.0565,0.0012));
#558=CARTESIAN_POINT('',(0.0855,0.0565,0.0012));
#559=CARTESIAN_POINT('',(0.0855,0.0565,0.0008));
#560=CARTESIAN_POINT('',(0.0855,0.0565,0.0004));
#561=CARTESIAN_POINT('',(0.0855,0.0565,0.));
#562=CARTESIAN_POINT('',(0.0855,0.0565,0.));
#563=CARTESIAN_POINT('',(1.38777878078145E-17,0.0565,0.));
#564=CARTESIAN_POINT('',(-0.0855,0.0565,0.));
#565=CARTESIAN_POINT('',(-0.0855,0.0565,0.));
#566=CARTESIAN_POINT('',(-0.0855,0.0565,0.0004));
#567=CARTESIAN_POINT('',(-0.0855,0.0565,0.0008));
#568=CARTESIAN_POINT('',(-0.0855,0.0565,0.0012));
#569=CARTESIAN_POINT('',(-0.0885,-0.021,0.0012));
#570=CARTESIAN_POINT('',(-0.0885,-0.021,0.));
#571=CARTESIAN_POINT('',(-0.0885,0.0535,0.));
#572=CARTESIAN_POINT('',(-0.0885,-0.0955,0.));
#573=CARTESIAN_POINT('',(-0.0885,-0.0955,0.));
#574=CARTESIAN_POINT('',(-0.0885,-0.0955,0.0004));
#575=CARTESIAN_POINT('',(-0.0885,-0.0955,0.0008));
#576=CARTESIAN_POINT('',(-0.0885,-0.0955,0.0012));
#577=CARTESIAN_POINT('',(-0.0885,-0.0955,0.0012));
#578=CARTESIAN_POINT('',(-0.0885,-0.021,0.0012));
#579=CARTESIAN_POINT('',(-0.0885,0.0535,0.0012));
#580=CARTESIAN_POINT('',(-0.0885,0.0535,0.0012));
#581=CARTESIAN_POINT('',(-0.0885,0.0535,0.0008));
#582=CARTESIAN_POINT('',(-0.0885,0.0535,0.0004));
#583=CARTESIAN_POINT('',(-0.0885,0.0535,0.));
#584=CARTESIAN_POINT('',(1.38777878078145E-17,-0.0985,0.0012));
#585=CARTESIAN_POINT('',(1.38777878078145E-17,-0.0985,0.));
#586=CARTESIAN_POINT('',(-0.0855,-0.0985,0.));
#587=CARTESIAN_POINT('',(0.0855,-0.0985,0.));
#588=CARTESIAN_POINT('',(0.0855,-0.0985,0.));
#589=CARTESIAN_POINT('',(0.0855,-0.0985,0.0004));
#590=CARTESIAN_POINT('',(0.0855,-0.0985,0.0008));
#591=CARTESIAN_POINT('',(0.0855,-0.0985,0.0012));
#592=CARTESIAN_POINT('',(0.0855,-0.0985,0.0012));
#593=CARTESIAN_POINT('',(1.38777878078145E-17,-0.0985,0.0012));
#594=CARTESIAN_POINT('',(-0.0855,-0.0985,0.0012));
#595=CARTESIAN_POINT('',(-0.0855,-0.0985,0.0012));
#596=CARTESIAN_POINT('',(-0.0855,-0.0985,0.0008));
#597=CARTESIAN_POINT('',(-0.0855,-0.0985,0.0004));
#598=CARTESIAN_POINT('',(-0.0855,-0.0985,0.));
#599=CARTESIAN_POINT('',(-0.0825,0.,0.0012));
#600=CARTESIAN_POINT('',(-0.0825,0.,0.));
#601=CARTESIAN_POINT('',(-0.0825,0.0505,0.));
#602=CARTESIAN_POINT('',(-0.0825,-0.0505,0.));
#603=CARTESIAN_POINT('',(-0.0825,0.0505,0.0012));
#604=CARTESIAN_POINT('',(-0.0825,0.0505,0.0012));
#605=CARTESIAN_POINT('',(-0.0825,0.,0.0012));
#606=CARTESIAN_POINT('',(-0.0825,-0.0505,0.0012));
#607=CARTESIAN_POINT('',(-0.0825,-0.0505,0.0012));
#608=CARTESIAN_POINT('',(0.,0.0505,0.0012));
#609=CARTESIAN_POINT('',(0.,0.0505,0.));
#610=CARTESIAN_POINT('',(0.0825,0.0505,0.));
#611=CARTESIAN_POINT('',(0.0825,0.0505,0.0012));
#612=CARTESIAN_POINT('',(0.0825,0.0505,0.0012));
#613=CARTESIAN_POINT('',(0.,0.0505,0.0012));
#614=CARTESIAN_POINT('',(0.0825,0.,0.0012));
#615=CARTESIAN_POINT('',(0.0825,0.,0.));
#616=CARTESIAN_POINT('',(0.0825,-0.0505,0.));
#617=CARTESIAN_POINT('',(0.0825,-0.0505,0.0012));
#618=CARTESIAN_POINT('',(0.0825,-0.0505,0.0012));
#619=CARTESIAN_POINT('',(0.0825,0.,0.0012));
#620=CARTESIAN_POINT('',(-0.031875,-0.0745,0.0012));
#621=CARTESIAN_POINT('',(-0.031875,-0.0745,0.));
#622=CARTESIAN_POINT('',(0.00875,-0.0745,0.));
#623=CARTESIAN_POINT('',(-0.0725,-0.0745,0.));
#624=CARTESIAN_POINT('',(0.00875,-0.0745,0.0012));
#625=CARTESIAN_POINT('',(0.00875,-0.0745,0.0012));
#626=CARTESIAN_POINT('',(-0.031875,-0.0745,0.0012));
#627=CARTESIAN_POINT('',(-0.0725,-0.0745,0.0012));
#628=CARTESIAN_POINT('',(-0.0725,-0.0745,0.0012));
#629=CARTESIAN_POINT('',(0.00875,-0.083,0.0012));
#630=CARTESIAN_POINT('',(0.00875,-0.083,0.));
#631=CARTESIAN_POINT('',(0.00875,-0.0915,0.));
#632=CARTESIAN_POINT('',(0.00875,-0.0915,0.0012));
#633=CARTESIAN_POINT('',(0.00875,-0.0915,0.0012));
#634=CARTESIAN_POINT('',(0.00875,-0.083,0.0012));
#635=CARTESIAN_POINT('',(-0.031875,-0.0915,0.0012));
#636=CARTESIAN_POINT('',(-0.031875,-0.0915,0.));
#637=CARTESIAN_POINT('',(-0.0725,-0.0915,0.));
#638=CARTESIAN_POINT('',(-0.0725,-0.0915,0.0012));
#639=CARTESIAN_POINT('',(-0.0725,-0.0915,0.0012));
#640=CARTESIAN_POINT('',(-0.031875,-0.0915,0.0012));
#641=CARTESIAN_POINT('',(0.,-0.0505,0.0012));
#642=CARTESIAN_POINT('',(0.,-0.0505,0.));
#643=CARTESIAN_POINT('',(0.,-0.0505,0.0012));
#644=CARTESIAN_POINT('',(-0.085,0.053,0.0012));
#645=CARTESIAN_POINT('',(-0.085,0.053,0.0012));
#646=CARTESIAN_POINT('',(-0.0829,0.053,0.0012));
#647=CARTESIAN_POINT('',(-0.085,0.053,0.));
#648=CARTESIAN_POINT('',(-0.0829,0.053,0.));
#649=CARTESIAN_POINT('',(-0.085,-0.095,0.0012));
#650=CARTESIAN_POINT('',(-0.085,-0.095,0.0012));
#651=CARTESIAN_POINT('',(-0.0829,-0.095,0.0012));
#652=CARTESIAN_POINT('',(-0.085,-0.095,0.));
#653=CARTESIAN_POINT('',(-0.0829,-0.095,0.));
#654=CARTESIAN_POINT('',(0.085,-0.095,0.0012));
#655=CARTESIAN_POINT('',(0.085,-0.095,0.0012));
#656=CARTESIAN_POINT('',(0.0871,-0.095,0.0012));
#657=CARTESIAN_POINT('',(0.085,-0.095,0.));
#658=CARTESIAN_POINT('',(0.0871,-0.095,0.));
#659=CARTESIAN_POINT('',(0.085,0.053,0.0012));
#660=CARTESIAN_POINT('',(0.085,0.053,0.0012));
#661=CARTESIAN_POINT('',(0.0871,0.053,0.0012));
#662=CARTESIAN_POINT('',(0.085,0.053,0.));
#663=CARTESIAN_POINT('',(0.0871,0.053,0.));
#664=CARTESIAN_POINT('',(-0.0725,-0.083,0.0012));
#665=CARTESIAN_POINT('',(-0.0725,-0.083,0.));
#666=CARTESIAN_POINT('',(-0.0725,-0.083,0.0012));
#667=CARTESIAN_POINT('',(0.0885,-0.021,0.0012));
#668=CARTESIAN_POINT('',(0.0885,-0.021,0.0012));
#669=CARTESIAN_POINT('',(0.0885,0.0535,0.0012));
#670=CARTESIAN_POINT('',(0.0885,-0.0955,0.0012));
#671=CARTESIAN_POINT('',(0.0885,-0.0955,0.0012));
#672=CARTESIAN_POINT('',(0.0885,-0.0955,0.0008));
#673=CARTESIAN_POINT('',(0.0885,-0.0955,0.0004));
#674=CARTESIAN_POINT('',(0.0885,-0.0955,0.));
#675=CARTESIAN_POINT('',(0.0885,-0.0955,0.));
#676=CARTESIAN_POINT('',(0.0885,-0.021,0.));
#677=CARTESIAN_POINT('',(0.0885,0.0535,0.));
#678=CARTESIAN_POINT('',(0.0885,0.0535,0.));
#679=CARTESIAN_POINT('',(0.0885,0.0535,0.0004));
#680=CARTESIAN_POINT('',(0.0885,0.0535,0.0008));
#681=CARTESIAN_POINT('',(0.0885,0.0535,0.0012));
#682=CARTESIAN_POINT('',(1.38777878078145E-17,-0.021,0.0012));
#683=CARTESIAN_POINT('',(0.0855,-0.0985,0.0012));
#684=CARTESIAN_POINT('',(0.0875,-0.0985,0.0012));
#685=CARTESIAN_POINT('',(0.0885,-0.0975,0.0012));
#686=CARTESIAN_POINT('',(0.0885,-0.0955,0.0012));
#687=CARTESIAN_POINT('',(0.0885,0.0535,0.0012));
#688=CARTESIAN_POINT('',(0.0885,0.0555,0.0012));
#689=CARTESIAN_POINT('',(0.0875,0.0565,0.0012));
#690=CARTESIAN_POINT('',(0.0855,0.0565,0.0012));
#691=CARTESIAN_POINT('',(-0.0855,0.0565,0.0012));
#692=CARTESIAN_POINT('',(-0.0875,0.0565,0.0012));
#693=CARTESIAN_POINT('',(-0.0885,0.0555,0.0012));
#694=CARTESIAN_POINT('',(-0.0885,0.0535,0.0012));
#695=CARTESIAN_POINT('',(-0.0885,-0.0955,0.0012));
#696=CARTESIAN_POINT('',(-0.0885,-0.0975,0.0012));
#697=CARTESIAN_POINT('',(-0.0875,-0.0985,0.0012));
#698=CARTESIAN_POINT('',(-0.0855,-0.0985,0.0012));
#699=CARTESIAN_POINT('',(1.38777878078145E-17,-0.021,0.));
#700=CARTESIAN_POINT('',(0.0885,-0.0955,0.));
#701=CARTESIAN_POINT('',(0.0885,-0.0975,0.));
#702=CARTESIAN_POINT('',(0.0875,-0.0985,0.));
#703=CARTESIAN_POINT('',(0.0855,-0.0985,0.));
#704=CARTESIAN_POINT('',(-0.0855,-0.0985,0.));
#705=CARTESIAN_POINT('',(-0.0875,-0.0985,0.));
#706=CARTESIAN_POINT('',(-0.0885,-0.0975,0.));
#707=CARTESIAN_POINT('',(-0.0885,-0.0955,0.));
#708=CARTESIAN_POINT('',(-0.0885,0.0535,0.));
#709=CARTESIAN_POINT('',(-0.0885,0.0555,0.));
#710=CARTESIAN_POINT('',(-0.0875,0.0565,0.));
#711=CARTESIAN_POINT('',(-0.0855,0.0565,0.));
#712=CARTESIAN_POINT('',(0.0855,0.0565,0.));
#713=CARTESIAN_POINT('',(0.0875,0.0565,0.));
#714=CARTESIAN_POINT('',(0.0885,0.0555,0.));
#715=CARTESIAN_POINT('',(0.0885,0.0535,0.));
#716=CARTESIAN_POINT('',(0.0855,-0.0985,-1.55312707904266E-20));
#717=CARTESIAN_POINT('',(0.0855,-0.0985,0.0012));
#718=CARTESIAN_POINT('',(0.0874999999999999,-0.0984999999999999,-7.22801448323641E-20));
#719=CARTESIAN_POINT('',(0.0874999999999999,-0.0984999999999999,0.0012));
#720=CARTESIAN_POINT('',(0.0884999999999998,-0.0974999999999999,2.89120579329466E-19));
#721=CARTESIAN_POINT('',(0.0884999999999998,-0.0974999999999999,0.0012));
#722=CARTESIAN_POINT('',(0.0885,-0.0955,5.31647346287671E-20));
#723=CARTESIAN_POINT('',(0.0885,-0.0955,0.0012));
#724=CARTESIAN_POINT('',(-0.0855,-0.0985,0.0012));
#725=CARTESIAN_POINT('',(-0.0855,-0.0985,0.));
#726=CARTESIAN_POINT('',(-0.0874999999999999,-0.0984999999999999,0.0012));
#727=CARTESIAN_POINT('',(-0.0874999999999999,-0.0984999999999999,2.16840434497101E-19));
#728=CARTESIAN_POINT('',(-0.0884999999999999,-0.0974999999999999,0.0012));
#729=CARTESIAN_POINT('',(-0.0884999999999999,-0.0974999999999999,2.16840434497101E-19));
#730=CARTESIAN_POINT('',(-0.0885,-0.0955,0.0012));
#731=CARTESIAN_POINT('',(-0.0885,-0.0955,0.));
#732=CARTESIAN_POINT('',(0.0855,0.0565,0.0012));
#733=CARTESIAN_POINT('',(0.0855,0.0565,0.));
#734=CARTESIAN_POINT('',(0.0874999999999999,0.0564999999999999,0.0012));
#735=CARTESIAN_POINT('',(0.0874999999999999,0.0564999999999999,-2.16840434497101E-19));
#736=CARTESIAN_POINT('',(0.0884999999999999,0.0555,0.0012));
#737=CARTESIAN_POINT('',(0.0884999999999999,0.0555,-2.16840434497101E-19));
#738=CARTESIAN_POINT('',(0.0885,0.0535,0.0012));
#739=CARTESIAN_POINT('',(0.0885,0.0535,-4.33680868994202E-19));
#740=CARTESIAN_POINT('',(-0.0855,0.0565,-2.32371705287527E-19));
#741=CARTESIAN_POINT('',(-0.0855,0.0565,0.0012));
#742=CARTESIAN_POINT('',(-0.0874999999999999,0.0564999999999999,-2.89120579329469E-19));
#743=CARTESIAN_POINT('',(-0.0874999999999999,0.0564999999999999,0.0012));
#744=CARTESIAN_POINT('',(-0.0884999999999998,0.0555,7.22801448323687E-20));
#745=CARTESIAN_POINT('',(-0.0884999999999998,0.0555,0.0012));
#746=CARTESIAN_POINT('',(-0.0885,0.0535,-1.63675699868336E-19));
#747=CARTESIAN_POINT('',(-0.0885,0.0535,0.0012));
#748=MECHANICAL_DESIGN_GEOMETRIC_PRESENTATION_REPRESENTATION('',(#429),
#749);
#749=(
GEOMETRIC_REPRESENTATION_CONTEXT(3)
GLOBAL_UNCERTAINTY_ASSIGNED_CONTEXT((#750))
GLOBAL_UNIT_ASSIGNED_CONTEXT((#753,#752,#751))
REPRESENTATION_CONTEXT('lid','TOP_LEVEL_ASSEMBLY_PART')
);
#750=UNCERTAINTY_MEASURE_WITH_UNIT(LENGTH_MEASURE(2.E-5),#753,
'DISTANCE_ACCURACY_VALUE','Maximum Tolerance applied to model');
#751=(
NAMED_UNIT(*)
SI_UNIT($,.STERADIAN.)
SOLID_ANGLE_UNIT()
);
#752=(
NAMED_UNIT(*)
PLANE_ANGLE_UNIT()
SI_UNIT($,.RADIAN.)
);
#753=(
LENGTH_UNIT()
NAMED_UNIT(*)
SI_UNIT($,.METRE.)
);
#754=PRODUCT_DEFINITION_SHAPE('','',#755);
#755=PRODUCT_DEFINITION('','',#757,#756);
#756=PRODUCT_DEFINITION_CONTEXT('',#763,'design');
#757=PRODUCT_DEFINITION_FORMATION_WITH_SPECIFIED_SOURCE('','',#759,
 .NOT_KNOWN.);
#758=PRODUCT_RELATED_PRODUCT_CATEGORY('','',(#759));
#759=PRODUCT('lid','lid','lid',(#761));
#760=PRODUCT_CATEGORY('','');
#761=PRODUCT_CONTEXT('',#763,'mechanical');
#762=APPLICATION_PROTOCOL_DEFINITION('international standard',
'ap242_managed_model_based_3d_engineering',2020,#763);
#763=APPLICATION_CONTEXT('managed model based 3d engineering');
ENDSEC;
END-ISO-10303-21;
