ISO-10303-21;
HEADER;
/* Generated by software containing ST-Developer
 * from STEP Tools, Inc. (www.steptools.com) 
 */
/* OPTION: using custom renumber hook */

FILE_DESCRIPTION(
/* description */ ('STEP AP242 Edition 2',
'CAx-IF Rec.Pracs.---Representation and Presentation of Product Manufa
cturing Information (PMI)---4.0---2014-10-13',
'CAx-IF Rec.Pracs.---3D Tessellated Geometry---0.4---2014-09-14','2;1',
'CAx-IF Rec.Pracs.---User Defined Attributes---1.5---2016-08-15'),
/* implementation_level */ '2;1');

FILE_NAME(
/* name */ 'Part Studio 1 - lid',
/* time_stamp */ '2026-05-14T19:26:40Z',
/* author */ (''),
/* organization */ (''),
/* preprocessor_version */ 'ST-DEVELOPER v20',
/* originating_system */ 'ONSHAPE BY PTC INC, 1.214',
/* authorisation */ '  ');

FILE_SCHEMA (('AP242_MANAGED_MODEL_BASED_3D_ENGINEERING_MIM_LF { 1 0 10303 442 3 1 4 }'));
ENDSEC;

DATA;
#10=SHAPE_REPRESENTATION_RELATIONSHIP('','',#527,#11);
#11=ADVANCED_BREP_SHAPE_REPRESENTATION('',(#525),#885);
#12=B_SPLINE_SURFACE_WITH_KNOTS('',3,1,((#852,#853),(#854,#855),(#856,#857),
(#858,#859)),.SURF_OF_LINEAR_EXTRUSION.,.F.,.F.,.F.,(4,4),(2,2),(-1.80419910354929E-15,
1.),(0.,1.),.PIECEWISE_BEZIER_KNOTS.);
#13=B_SPLINE_SURFACE_WITH_KNOTS('',3,1,((#860,#861),(#862,#863),(#864,#865),
(#866,#867)),.SURF_OF_LINEAR_EXTRUSION.,.F.,.F.,.F.,(4,4),(2,2),(-1.82156736156308E-15,
1.),(0.,1.),.PIECEWISE_BEZIER_KNOTS.);
#14=B_SPLINE_SURFACE_WITH_KNOTS('',3,1,((#868,#869),(#870,#871),(#872,#873),
(#874,#875)),.SURF_OF_LINEAR_EXTRUSION.,.F.,.F.,.F.,(4,4),(2,2),(5.43965313997258E-15,
0.999999999999998),(0.,1.),.PIECEWISE_BEZIER_KNOTS.);
#15=B_SPLINE_SURFACE_WITH_KNOTS('',3,1,((#876,#877),(#878,#879),(#880,#881),
(#882,#883)),.SURF_OF_LINEAR_EXTRUSION.,.F.,.F.,.F.,(4,4),(2,2),(3.50408229019385E-15,
1.),(0.,1.),.PIECEWISE_BEZIER_KNOTS.);
#16=CIRCLE('',#544,0.0021);
#17=CIRCLE('',#545,0.0021);
#18=CIRCLE('',#547,0.0021);
#19=CIRCLE('',#548,0.0021);
#20=CIRCLE('',#550,0.0021);
#21=CIRCLE('',#551,0.0021);
#22=CIRCLE('',#553,0.0021);
#23=CIRCLE('',#554,0.0021);
#24=CYLINDRICAL_SURFACE('',#543,0.0021);
#25=CYLINDRICAL_SURFACE('',#546,0.0021);
#26=CYLINDRICAL_SURFACE('',#549,0.0021);
#27=CYLINDRICAL_SURFACE('',#552,0.0021);
#28=B_SPLINE_CURVE_WITH_KNOTS('',3,(#733,#734,#735,#736),.UNSPECIFIED.,
 .F.,.F.,(4,4),(0.,1.),.UNSPECIFIED.);
#29=B_SPLINE_CURVE_WITH_KNOTS('',3,(#740,#741,#742,#743),.UNSPECIFIED.,
 .F.,.F.,(4,4),(0.,1.),.UNSPECIFIED.);
#30=B_SPLINE_CURVE_WITH_KNOTS('',3,(#748,#749,#750,#751),.UNSPECIFIED.,
 .F.,.F.,(4,4),(0.,1.),.UNSPECIFIED.);
#31=B_SPLINE_CURVE_WITH_KNOTS('',3,(#755,#756,#757,#758),.UNSPECIFIED.,
 .F.,.F.,(4,4),(0.,1.),.UNSPECIFIED.);
#32=B_SPLINE_CURVE_WITH_KNOTS('',3,(#763,#764,#765,#766),.UNSPECIFIED.,
 .F.,.F.,(4,4),(0.,1.),.UNSPECIFIED.);
#33=B_SPLINE_CURVE_WITH_KNOTS('',3,(#770,#771,#772,#773),.UNSPECIFIED.,
 .F.,.F.,(4,4),(0.,1.),.UNSPECIFIED.);
#34=B_SPLINE_CURVE_WITH_KNOTS('',3,(#804,#805,#806,#807),.UNSPECIFIED.,
 .F.,.F.,(4,4),(0.,1.),.UNSPECIFIED.);
#35=B_SPLINE_CURVE_WITH_KNOTS('',3,(#811,#812,#813,#814),.UNSPECIFIED.,
 .F.,.F.,(4,4),(0.,1.),.UNSPECIFIED.);
#36=B_SPLINE_CURVE_WITH_KNOTS('',3,(#819,#820,#821,#822),.UNSPECIFIED.,
 .F.,.F.,(4,4),(0.,1.),.UNSPECIFIED.);
#37=B_SPLINE_CURVE_WITH_KNOTS('',3,(#823,#824,#825,#826),.UNSPECIFIED.,
 .F.,.F.,(4,4),(0.,1.),.UNSPECIFIED.);
#38=B_SPLINE_CURVE_WITH_KNOTS('',3,(#827,#828,#829,#830),.UNSPECIFIED.,
 .F.,.F.,(4,4),(0.,1.),.UNSPECIFIED.);
#39=B_SPLINE_CURVE_WITH_KNOTS('',3,(#831,#832,#833,#834),.UNSPECIFIED.,
 .F.,.F.,(4,4),(0.,1.),.UNSPECIFIED.);
#40=B_SPLINE_CURVE_WITH_KNOTS('',3,(#836,#837,#838,#839),.UNSPECIFIED.,
 .F.,.F.,(4,4),(0.,1.),.UNSPECIFIED.);
#41=B_SPLINE_CURVE_WITH_KNOTS('',3,(#840,#841,#842,#843),.UNSPECIFIED.,
 .F.,.F.,(4,4),(0.,1.),.UNSPECIFIED.);
#42=B_SPLINE_CURVE_WITH_KNOTS('',3,(#844,#845,#846,#847),.UNSPECIFIED.,
 .F.,.F.,(4,4),(0.,1.),.UNSPECIFIED.);
#43=B_SPLINE_CURVE_WITH_KNOTS('',3,(#848,#849,#850,#851),.UNSPECIFIED.,
 .F.,.F.,(4,4),(0.,1.),.UNSPECIFIED.);
#44=ORIENTED_EDGE('',*,*,#180,.T.);
#45=ORIENTED_EDGE('',*,*,#181,.F.);
#46=ORIENTED_EDGE('',*,*,#182,.F.);
#47=ORIENTED_EDGE('',*,*,#183,.T.);
#48=ORIENTED_EDGE('',*,*,#184,.T.);
#49=ORIENTED_EDGE('',*,*,#185,.F.);
#50=ORIENTED_EDGE('',*,*,#186,.F.);
#51=ORIENTED_EDGE('',*,*,#181,.T.);
#52=ORIENTED_EDGE('',*,*,#187,.F.);
#53=ORIENTED_EDGE('',*,*,#188,.F.);
#54=ORIENTED_EDGE('',*,*,#189,.T.);
#55=ORIENTED_EDGE('',*,*,#185,.T.);
#56=ORIENTED_EDGE('',*,*,#190,.F.);
#57=ORIENTED_EDGE('',*,*,#191,.F.);
#58=ORIENTED_EDGE('',*,*,#192,.T.);
#59=ORIENTED_EDGE('',*,*,#193,.T.);
#60=ORIENTED_EDGE('',*,*,#194,.T.);
#61=ORIENTED_EDGE('',*,*,#195,.F.);
#62=ORIENTED_EDGE('',*,*,#196,.F.);
#63=ORIENTED_EDGE('',*,*,#191,.T.);
#64=ORIENTED_EDGE('',*,*,#197,.T.);
#65=ORIENTED_EDGE('',*,*,#198,.F.);
#66=ORIENTED_EDGE('',*,*,#199,.F.);
#67=ORIENTED_EDGE('',*,*,#195,.T.);
#68=ORIENTED_EDGE('',*,*,#200,.F.);
#69=ORIENTED_EDGE('',*,*,#201,.F.);
#70=ORIENTED_EDGE('',*,*,#202,.T.);
#71=ORIENTED_EDGE('',*,*,#203,.T.);
#72=ORIENTED_EDGE('',*,*,#204,.F.);
#73=ORIENTED_EDGE('',*,*,#205,.F.);
#74=ORIENTED_EDGE('',*,*,#206,.T.);
#75=ORIENTED_EDGE('',*,*,#201,.T.);
#76=ORIENTED_EDGE('',*,*,#207,.T.);
#77=ORIENTED_EDGE('',*,*,#208,.F.);
#78=ORIENTED_EDGE('',*,*,#209,.F.);
#79=ORIENTED_EDGE('',*,*,#205,.T.);
#80=ORIENTED_EDGE('',*,*,#210,.T.);
#81=ORIENTED_EDGE('',*,*,#211,.T.);
#82=ORIENTED_EDGE('',*,*,#212,.F.);
#83=ORIENTED_EDGE('',*,*,#213,.T.);
#84=ORIENTED_EDGE('',*,*,#214,.T.);
#85=ORIENTED_EDGE('',*,*,#215,.T.);
#86=ORIENTED_EDGE('',*,*,#216,.F.);
#87=ORIENTED_EDGE('',*,*,#217,.T.);
#88=ORIENTED_EDGE('',*,*,#218,.T.);
#89=ORIENTED_EDGE('',*,*,#219,.T.);
#90=ORIENTED_EDGE('',*,*,#220,.F.);
#91=ORIENTED_EDGE('',*,*,#221,.T.);
#92=ORIENTED_EDGE('',*,*,#222,.F.);
#93=ORIENTED_EDGE('',*,*,#193,.F.);
#94=ORIENTED_EDGE('',*,*,#223,.T.);
#95=ORIENTED_EDGE('',*,*,#198,.T.);
#96=ORIENTED_EDGE('',*,*,#224,.T.);
#97=ORIENTED_EDGE('',*,*,#203,.F.);
#98=ORIENTED_EDGE('',*,*,#225,.F.);
#99=ORIENTED_EDGE('',*,*,#208,.T.);
#100=ORIENTED_EDGE('',*,*,#226,.T.);
#101=ORIENTED_EDGE('',*,*,#227,.F.);
#102=ORIENTED_EDGE('',*,*,#228,.F.);
#103=ORIENTED_EDGE('',*,*,#229,.T.);
#104=ORIENTED_EDGE('',*,*,#230,.T.);
#105=ORIENTED_EDGE('',*,*,#231,.F.);
#106=ORIENTED_EDGE('',*,*,#232,.F.);
#107=ORIENTED_EDGE('',*,*,#233,.T.);
#108=ORIENTED_EDGE('',*,*,#234,.T.);
#109=ORIENTED_EDGE('',*,*,#235,.T.);
#110=ORIENTED_EDGE('',*,*,#236,.F.);
#111=ORIENTED_EDGE('',*,*,#237,.T.);
#112=ORIENTED_EDGE('',*,*,#238,.F.);
#113=ORIENTED_EDGE('',*,*,#183,.F.);
#114=ORIENTED_EDGE('',*,*,#239,.T.);
#115=ORIENTED_EDGE('',*,*,#188,.T.);
#116=ORIENTED_EDGE('',*,*,#220,.T.);
#117=ORIENTED_EDGE('',*,*,#240,.T.);
#118=ORIENTED_EDGE('',*,*,#234,.F.);
#119=ORIENTED_EDGE('',*,*,#241,.T.);
#120=ORIENTED_EDGE('',*,*,#210,.F.);
#121=ORIENTED_EDGE('',*,*,#242,.T.);
#122=ORIENTED_EDGE('',*,*,#216,.T.);
#123=ORIENTED_EDGE('',*,*,#243,.T.);
#124=ORIENTED_EDGE('',*,*,#232,.T.);
#125=ORIENTED_EDGE('',*,*,#230,.F.);
#126=ORIENTED_EDGE('',*,*,#228,.T.);
#127=ORIENTED_EDGE('',*,*,#226,.F.);
#128=ORIENTED_EDGE('',*,*,#202,.F.);
#129=ORIENTED_EDGE('',*,*,#206,.F.);
#130=ORIENTED_EDGE('',*,*,#209,.T.);
#131=ORIENTED_EDGE('',*,*,#225,.T.);
#132=ORIENTED_EDGE('',*,*,#192,.F.);
#133=ORIENTED_EDGE('',*,*,#196,.T.);
#134=ORIENTED_EDGE('',*,*,#199,.T.);
#135=ORIENTED_EDGE('',*,*,#223,.F.);
#136=ORIENTED_EDGE('',*,*,#182,.T.);
#137=ORIENTED_EDGE('',*,*,#186,.T.);
#138=ORIENTED_EDGE('',*,*,#189,.F.);
#139=ORIENTED_EDGE('',*,*,#239,.F.);
#140=ORIENTED_EDGE('',*,*,#236,.T.);
#141=ORIENTED_EDGE('',*,*,#244,.T.);
#142=ORIENTED_EDGE('',*,*,#218,.F.);
#143=ORIENTED_EDGE('',*,*,#245,.T.);
#144=ORIENTED_EDGE('',*,*,#214,.F.);
#145=ORIENTED_EDGE('',*,*,#246,.T.);
#146=ORIENTED_EDGE('',*,*,#212,.T.);
#147=ORIENTED_EDGE('',*,*,#247,.T.);
#148=ORIENTED_EDGE('',*,*,#233,.F.);
#149=ORIENTED_EDGE('',*,*,#231,.T.);
#150=ORIENTED_EDGE('',*,*,#229,.F.);
#151=ORIENTED_EDGE('',*,*,#227,.T.);
#152=ORIENTED_EDGE('',*,*,#200,.T.);
#153=ORIENTED_EDGE('',*,*,#224,.F.);
#154=ORIENTED_EDGE('',*,*,#207,.F.);
#155=ORIENTED_EDGE('',*,*,#204,.T.);
#156=ORIENTED_EDGE('',*,*,#190,.T.);
#157=ORIENTED_EDGE('',*,*,#222,.T.);
#158=ORIENTED_EDGE('',*,*,#197,.F.);
#159=ORIENTED_EDGE('',*,*,#194,.F.);
#160=ORIENTED_EDGE('',*,*,#180,.F.);
#161=ORIENTED_EDGE('',*,*,#238,.T.);
#162=ORIENTED_EDGE('',*,*,#187,.T.);
#163=ORIENTED_EDGE('',*,*,#184,.F.);
#164=ORIENTED_EDGE('',*,*,#240,.F.);
#165=ORIENTED_EDGE('',*,*,#219,.F.);
#166=ORIENTED_EDGE('',*,*,#244,.F.);
#167=ORIENTED_EDGE('',*,*,#235,.F.);
#168=ORIENTED_EDGE('',*,*,#241,.F.);
#169=ORIENTED_EDGE('',*,*,#237,.F.);
#170=ORIENTED_EDGE('',*,*,#247,.F.);
#171=ORIENTED_EDGE('',*,*,#211,.F.);
#172=ORIENTED_EDGE('',*,*,#243,.F.);
#173=ORIENTED_EDGE('',*,*,#215,.F.);
#174=ORIENTED_EDGE('',*,*,#245,.F.);
#175=ORIENTED_EDGE('',*,*,#221,.F.);
#176=ORIENTED_EDGE('',*,*,#242,.F.);
#177=ORIENTED_EDGE('',*,*,#213,.F.);
#178=ORIENTED_EDGE('',*,*,#246,.F.);
#179=ORIENTED_EDGE('',*,*,#217,.F.);
#180=EDGE_CURVE('',#248,#249,#296,.T.);
#181=EDGE_CURVE('',#250,#249,#297,.T.);
#182=EDGE_CURVE('',#251,#250,#298,.T.);
#183=EDGE_CURVE('',#251,#248,#299,.T.);
#184=EDGE_CURVE('',#249,#252,#300,.T.);
#185=EDGE_CURVE('',#253,#252,#301,.T.);
#186=EDGE_CURVE('',#250,#253,#302,.T.);
#187=EDGE_CURVE('',#254,#252,#303,.T.);
#188=EDGE_CURVE('',#255,#254,#304,.T.);
#189=EDGE_CURVE('',#255,#253,#305,.T.);
#190=EDGE_CURVE('',#256,#257,#306,.T.);
#191=EDGE_CURVE('',#258,#256,#307,.T.);
#192=EDGE_CURVE('',#258,#259,#308,.T.);
#193=EDGE_CURVE('',#259,#257,#309,.T.);
#194=EDGE_CURVE('',#256,#260,#310,.T.);
#195=EDGE_CURVE('',#261,#260,#311,.T.);
#196=EDGE_CURVE('',#258,#261,#312,.T.);
#197=EDGE_CURVE('',#260,#262,#313,.T.);
#198=EDGE_CURVE('',#263,#262,#314,.T.);
#199=EDGE_CURVE('',#261,#263,#315,.T.);
#200=EDGE_CURVE('',#264,#265,#316,.T.);
#201=EDGE_CURVE('',#266,#264,#317,.T.);
#202=EDGE_CURVE('',#266,#267,#318,.T.);
#203=EDGE_CURVE('',#267,#265,#319,.T.);
#204=EDGE_CURVE('',#268,#264,#320,.T.);
#205=EDGE_CURVE('',#269,#268,#321,.T.);
#206=EDGE_CURVE('',#269,#266,#322,.T.);
#207=EDGE_CURVE('',#268,#270,#323,.T.);
#208=EDGE_CURVE('',#271,#270,#324,.T.);
#209=EDGE_CURVE('',#269,#271,#325,.T.);
#210=EDGE_CURVE('',#272,#273,#326,.T.);
#211=EDGE_CURVE('',#273,#274,#28,.T.);
#212=EDGE_CURVE('',#275,#274,#327,.T.);
#213=EDGE_CURVE('',#275,#272,#29,.T.);
#214=EDGE_CURVE('',#276,#277,#328,.T.);
#215=EDGE_CURVE('',#277,#278,#30,.T.);
#216=EDGE_CURVE('',#279,#278,#329,.T.);
#217=EDGE_CURVE('',#279,#276,#31,.T.);
#218=EDGE_CURVE('',#280,#281,#330,.T.);
#219=EDGE_CURVE('',#281,#282,#32,.T.);
#220=EDGE_CURVE('',#283,#282,#331,.T.);
#221=EDGE_CURVE('',#283,#280,#33,.T.);
#222=EDGE_CURVE('',#257,#262,#332,.T.);
#223=EDGE_CURVE('',#259,#263,#333,.T.);
#224=EDGE_CURVE('',#270,#265,#334,.T.);
#225=EDGE_CURVE('',#271,#267,#335,.T.);
#226=EDGE_CURVE('',#284,#284,#16,.T.);
#227=EDGE_CURVE('',#285,#285,#17,.T.);
#228=EDGE_CURVE('',#286,#286,#18,.T.);
#229=EDGE_CURVE('',#287,#287,#19,.T.);
#230=EDGE_CURVE('',#288,#288,#20,.T.);
#231=EDGE_CURVE('',#289,#289,#21,.T.);
#232=EDGE_CURVE('',#290,#290,#22,.T.);
#233=EDGE_CURVE('',#291,#291,#23,.T.);
#234=EDGE_CURVE('',#292,#293,#336,.T.);
#235=EDGE_CURVE('',#293,#294,#34,.T.);
#236=EDGE_CURVE('',#295,#294,#337,.T.);
#237=EDGE_CURVE('',#295,#292,#35,.T.);
#238=EDGE_CURVE('',#248,#254,#338,.T.);
#239=EDGE_CURVE('',#251,#255,#339,.T.);
#240=EDGE_CURVE('',#282,#293,#36,.T.);
#241=EDGE_CURVE('',#292,#273,#37,.T.);
#242=EDGE_CURVE('',#272,#279,#38,.T.);
#243=EDGE_CURVE('',#278,#283,#39,.T.);
#244=EDGE_CURVE('',#294,#281,#40,.T.);
#245=EDGE_CURVE('',#280,#277,#41,.T.);
#246=EDGE_CURVE('',#276,#275,#42,.T.);
#247=EDGE_CURVE('',#274,#295,#43,.T.);
#248=VERTEX_POINT('',#668);
#249=VERTEX_POINT('',#669);
#250=VERTEX_POINT('',#671);
#251=VERTEX_POINT('',#673);
#252=VERTEX_POINT('',#677);
#253=VERTEX_POINT('',#679);
#254=VERTEX_POINT('',#683);
#255=VERTEX_POINT('',#685);
#256=VERTEX_POINT('',#689);
#257=VERTEX_POINT('',#690);
#258=VERTEX_POINT('',#692);
#259=VERTEX_POINT('',#694);
#260=VERTEX_POINT('',#698);
#261=VERTEX_POINT('',#700);
#262=VERTEX_POINT('',#704);
#263=VERTEX_POINT('',#706);
#264=VERTEX_POINT('',#710);
#265=VERTEX_POINT('',#711);
#266=VERTEX_POINT('',#713);
#267=VERTEX_POINT('',#715);
#268=VERTEX_POINT('',#719);
#269=VERTEX_POINT('',#721);
#270=VERTEX_POINT('',#725);
#271=VERTEX_POINT('',#727);
#272=VERTEX_POINT('',#731);
#273=VERTEX_POINT('',#732);
#274=VERTEX_POINT('',#737);
#275=VERTEX_POINT('',#739);
#276=VERTEX_POINT('',#746);
#277=VERTEX_POINT('',#747);
#278=VERTEX_POINT('',#752);
#279=VERTEX_POINT('',#754);
#280=VERTEX_POINT('',#761);
#281=VERTEX_POINT('',#762);
#282=VERTEX_POINT('',#767);
#283=VERTEX_POINT('',#769);
#284=VERTEX_POINT('',#782);
#285=VERTEX_POINT('',#784);
#286=VERTEX_POINT('',#787);
#287=VERTEX_POINT('',#789);
#288=VERTEX_POINT('',#792);
#289=VERTEX_POINT('',#794);
#290=VERTEX_POINT('',#797);
#291=VERTEX_POINT('',#799);
#292=VERTEX_POINT('',#802);
#293=VERTEX_POINT('',#803);
#294=VERTEX_POINT('',#808);
#295=VERTEX_POINT('',#810);
#296=LINE('',#667,#340);
#297=LINE('',#670,#341);
#298=LINE('',#672,#342);
#299=LINE('',#674,#343);
#300=LINE('',#676,#344);
#301=LINE('',#678,#345);
#302=LINE('',#680,#346);
#303=LINE('',#682,#347);
#304=LINE('',#684,#348);
#305=LINE('',#686,#349);
#306=LINE('',#688,#350);
#307=LINE('',#691,#351);
#308=LINE('',#693,#352);
#309=LINE('',#695,#353);
#310=LINE('',#697,#354);
#311=LINE('',#699,#355);
#312=LINE('',#701,#356);
#313=LINE('',#703,#357);
#314=LINE('',#705,#358);
#315=LINE('',#707,#359);
#316=LINE('',#709,#360);
#317=LINE('',#712,#361);
#318=LINE('',#714,#362);
#319=LINE('',#716,#363);
#320=LINE('',#718,#364);
#321=LINE('',#720,#365);
#322=LINE('',#722,#366);
#323=LINE('',#724,#367);
#324=LINE('',#726,#368);
#325=LINE('',#728,#369);
#326=LINE('',#730,#370);
#327=LINE('',#738,#371);
#328=LINE('',#745,#372);
#329=LINE('',#753,#373);
#330=LINE('',#760,#374);
#331=LINE('',#768,#375);
#332=LINE('',#775,#376);
#333=LINE('',#776,#377);
#334=LINE('',#778,#378);
#335=LINE('',#779,#379);
#336=LINE('',#801,#380);
#337=LINE('',#809,#381);
#338=LINE('',#816,#382);
#339=LINE('',#817,#383);
#340=VECTOR('',#563,1.);
#341=VECTOR('',#564,1.);
#342=VECTOR('',#565,1.);
#343=VECTOR('',#566,1.);
#344=VECTOR('',#569,1.);
#345=VECTOR('',#570,1.);
#346=VECTOR('',#571,1.);
#347=VECTOR('',#574,1.);
#348=VECTOR('',#575,1.);
#349=VECTOR('',#576,1.);
#350=VECTOR('',#579,1.);
#351=VECTOR('',#580,1.);
#352=VECTOR('',#581,1.);
#353=VECTOR('',#582,1.);
#354=VECTOR('',#585,1.);
#355=VECTOR('',#586,1.);
#356=VECTOR('',#587,1.);
#357=VECTOR('',#590,1.);
#358=VECTOR('',#591,1.);
#359=VECTOR('',#592,1.);
#360=VECTOR('',#595,1.);
#361=VECTOR('',#596,1.);
#362=VECTOR('',#597,1.);
#363=VECTOR('',#598,1.);
#364=VECTOR('',#601,1.);
#365=VECTOR('',#602,1.);
#366=VECTOR('',#603,1.);
#367=VECTOR('',#606,1.);
#368=VECTOR('',#607,1.);
#369=VECTOR('',#608,1.);
#370=VECTOR('',#611,1.);
#371=VECTOR('',#612,1.);
#372=VECTOR('',#615,1.);
#373=VECTOR('',#616,1.);
#374=VECTOR('',#619,1.);
#375=VECTOR('',#620,1.);
#376=VECTOR('',#623,1.);
#377=VECTOR('',#624,1.);
#378=VECTOR('',#627,1.);
#379=VECTOR('',#628,1.);
#380=VECTOR('',#655,1.);
#381=VECTOR('',#656,1.);
#382=VECTOR('',#659,1.);
#383=VECTOR('',#660,1.);
#384=EDGE_LOOP('',(#44,#45,#46,#47));
#385=EDGE_LOOP('',(#48,#49,#50,#51));
#386=EDGE_LOOP('',(#52,#53,#54,#55));
#387=EDGE_LOOP('',(#56,#57,#58,#59));
#388=EDGE_LOOP('',(#60,#61,#62,#63));
#389=EDGE_LOOP('',(#64,#65,#66,#67));
#390=EDGE_LOOP('',(#68,#69,#70,#71));
#391=EDGE_LOOP('',(#72,#73,#74,#75));
#392=EDGE_LOOP('',(#76,#77,#78,#79));
#393=EDGE_LOOP('',(#80,#81,#82,#83));
#394=EDGE_LOOP('',(#84,#85,#86,#87));
#395=EDGE_LOOP('',(#88,#89,#90,#91));
#396=EDGE_LOOP('',(#92,#93,#94,#95));
#397=EDGE_LOOP('',(#96,#97,#98,#99));
#398=EDGE_LOOP('',(#100));
#399=EDGE_LOOP('',(#101));
#400=EDGE_LOOP('',(#102));
#401=EDGE_LOOP('',(#103));
#402=EDGE_LOOP('',(#104));
#403=EDGE_LOOP('',(#105));
#404=EDGE_LOOP('',(#106));
#405=EDGE_LOOP('',(#107));
#406=EDGE_LOOP('',(#108,#109,#110,#111));
#407=EDGE_LOOP('',(#112,#113,#114,#115));
#408=EDGE_LOOP('',(#116,#117,#118,#119,#120,#121,#122,#123));
#409=EDGE_LOOP('',(#124));
#410=EDGE_LOOP('',(#125));
#411=EDGE_LOOP('',(#126));
#412=EDGE_LOOP('',(#127));
#413=EDGE_LOOP('',(#128,#129,#130,#131));
#414=EDGE_LOOP('',(#132,#133,#134,#135));
#415=EDGE_LOOP('',(#136,#137,#138,#139));
#416=EDGE_LOOP('',(#140,#141,#142,#143,#144,#145,#146,#147));
#417=EDGE_LOOP('',(#148));
#418=EDGE_LOOP('',(#149));
#419=EDGE_LOOP('',(#150));
#420=EDGE_LOOP('',(#151));
#421=EDGE_LOOP('',(#152,#153,#154,#155));
#422=EDGE_LOOP('',(#156,#157,#158,#159));
#423=EDGE_LOOP('',(#160,#161,#162,#163));
#424=EDGE_LOOP('',(#164,#165,#166,#167));
#425=EDGE_LOOP('',(#168,#169,#170,#171));
#426=EDGE_LOOP('',(#172,#173,#174,#175));
#427=EDGE_LOOP('',(#176,#177,#178,#179));
#428=FACE_BOUND('',#384,.T.);
#429=FACE_BOUND('',#385,.T.);
#430=FACE_BOUND('',#386,.T.);
#431=FACE_BOUND('',#387,.T.);
#432=FACE_BOUND('',#388,.T.);
#433=FACE_BOUND('',#389,.T.);
#434=FACE_BOUND('',#390,.T.);
#435=FACE_BOUND('',#391,.T.);
#436=FACE_BOUND('',#392,.T.);
#437=FACE_BOUND('',#393,.T.);
#438=FACE_BOUND('',#394,.T.);
#439=FACE_BOUND('',#395,.T.);
#440=FACE_BOUND('',#396,.T.);
#441=FACE_BOUND('',#397,.T.);
#442=FACE_BOUND('',#398,.T.);
#443=FACE_BOUND('',#399,.T.);
#444=FACE_BOUND('',#400,.T.);
#445=FACE_BOUND('',#401,.T.);
#446=FACE_BOUND('',#402,.T.);
#447=FACE_BOUND('',#403,.T.);
#448=FACE_BOUND('',#404,.T.);
#449=FACE_BOUND('',#405,.T.);
#450=FACE_BOUND('',#406,.T.);
#451=FACE_BOUND('',#407,.T.);
#452=FACE_BOUND('',#408,.T.);
#453=FACE_BOUND('',#409,.T.);
#454=FACE_BOUND('',#410,.T.);
#455=FACE_BOUND('',#411,.T.);
#456=FACE_BOUND('',#412,.T.);
#457=FACE_BOUND('',#413,.T.);
#458=FACE_BOUND('',#414,.T.);
#459=FACE_BOUND('',#415,.T.);
#460=FACE_BOUND('',#416,.T.);
#461=FACE_BOUND('',#417,.T.);
#462=FACE_BOUND('',#418,.T.);
#463=FACE_BOUND('',#419,.T.);
#464=FACE_BOUND('',#420,.T.);
#465=FACE_BOUND('',#421,.T.);
#466=FACE_BOUND('',#422,.T.);
#467=FACE_BOUND('',#423,.T.);
#468=FACE_BOUND('',#424,.T.);
#469=FACE_BOUND('',#425,.T.);
#470=FACE_BOUND('',#426,.T.);
#471=FACE_BOUND('',#427,.T.);
#472=PLANE('',#529);
#473=PLANE('',#530);
#474=PLANE('',#531);
#475=PLANE('',#532);
#476=PLANE('',#533);
#477=PLANE('',#534);
#478=PLANE('',#535);
#479=PLANE('',#536);
#480=PLANE('',#537);
#481=PLANE('',#538);
#482=PLANE('',#539);
#483=PLANE('',#540);
#484=PLANE('',#541);
#485=PLANE('',#542);
#486=PLANE('',#555);
#487=PLANE('',#556);
#488=PLANE('',#557);
#489=PLANE('',#558);
#490=ADVANCED_FACE('',(#428),#472,.F.);
#491=ADVANCED_FACE('',(#429),#473,.F.);
#492=ADVANCED_FACE('',(#430),#474,.T.);
#493=ADVANCED_FACE('',(#431),#475,.T.);
#494=ADVANCED_FACE('',(#432),#476,.F.);
#495=ADVANCED_FACE('',(#433),#477,.F.);
#496=ADVANCED_FACE('',(#434),#478,.T.);
#497=ADVANCED_FACE('',(#435),#479,.T.);
#498=ADVANCED_FACE('',(#436),#480,.F.);
#499=ADVANCED_FACE('',(#437),#481,.T.);
#500=ADVANCED_FACE('',(#438),#482,.F.);
#501=ADVANCED_FACE('',(#439),#483,.F.);
#502=ADVANCED_FACE('',(#440),#484,.T.);
#503=ADVANCED_FACE('',(#441),#485,.F.);
#504=ADVANCED_FACE('',(#442,#443),#24,.F.);
#505=ADVANCED_FACE('',(#444,#445),#25,.F.);
#506=ADVANCED_FACE('',(#446,#447),#26,.F.);
#507=ADVANCED_FACE('',(#448,#449),#27,.F.);
#508=ADVANCED_FACE('',(#450),#486,.T.);
#509=ADVANCED_FACE('',(#451),#487,.T.);
#510=ADVANCED_FACE('',(#452,#453,#454,#455,#456,#457,#458,#459),#488,.T.);
#511=ADVANCED_FACE('',(#460,#461,#462,#463,#464,#465,#466,#467),#489,.F.);
#512=ADVANCED_FACE('',(#468),#12,.T.);
#513=ADVANCED_FACE('',(#469),#13,.T.);
#514=ADVANCED_FACE('',(#470),#14,.T.);
#515=ADVANCED_FACE('',(#471),#15,.T.);
#516=CLOSED_SHELL('',(#490,#491,#492,#493,#494,#495,#496,#497,#498,#499,
#500,#501,#502,#503,#504,#505,#506,#507,#508,#509,#510,#511,#512,#513,#514,
#515));
#517=STYLED_ITEM('',(#518),#525);
#518=PRESENTATION_STYLE_ASSIGNMENT((#519));
#519=SURFACE_STYLE_USAGE(.BOTH.,#520);
#520=SURFACE_SIDE_STYLE('',(#521));
#521=SURFACE_STYLE_FILL_AREA(#522);
#522=FILL_AREA_STYLE('',(#523));
#523=FILL_AREA_STYLE_COLOUR('',#524);
#524=COLOUR_RGB('',0.647058823529412,0.647058823529412,0.647058823529412);
#525=MANIFOLD_SOLID_BREP('lid',#516);
#526=SHAPE_DEFINITION_REPRESENTATION(#890,#527);
#527=SHAPE_REPRESENTATION('lid',(#528),#885);
#528=AXIS2_PLACEMENT_3D('',#665,#559,#560);
#529=AXIS2_PLACEMENT_3D('',#666,#561,#562);
#530=AXIS2_PLACEMENT_3D('',#675,#567,#568);
#531=AXIS2_PLACEMENT_3D('',#681,#572,#573);
#532=AXIS2_PLACEMENT_3D('',#687,#577,#578);
#533=AXIS2_PLACEMENT_3D('',#696,#583,#584);
#534=AXIS2_PLACEMENT_3D('',#702,#588,#589);
#535=AXIS2_PLACEMENT_3D('',#708,#593,#594);
#536=AXIS2_PLACEMENT_3D('',#717,#599,#600);
#537=AXIS2_PLACEMENT_3D('',#723,#604,#605);
#538=AXIS2_PLACEMENT_3D('',#729,#609,#610);
#539=AXIS2_PLACEMENT_3D('',#744,#613,#614);
#540=AXIS2_PLACEMENT_3D('',#759,#617,#618);
#541=AXIS2_PLACEMENT_3D('',#774,#621,#622);
#542=AXIS2_PLACEMENT_3D('',#777,#625,#626);
#543=AXIS2_PLACEMENT_3D('',#780,#629,#630);
#544=AXIS2_PLACEMENT_3D('',#781,#631,#632);
#545=AXIS2_PLACEMENT_3D('',#783,#633,#634);
#546=AXIS2_PLACEMENT_3D('',#785,#635,#636);
#547=AXIS2_PLACEMENT_3D('',#786,#637,#638);
#548=AXIS2_PLACEMENT_3D('',#788,#639,#640);
#549=AXIS2_PLACEMENT_3D('',#790,#641,#642);
#550=AXIS2_PLACEMENT_3D('',#791,#643,#644);
#551=AXIS2_PLACEMENT_3D('',#793,#645,#646);
#552=AXIS2_PLACEMENT_3D('',#795,#647,#648);
#553=AXIS2_PLACEMENT_3D('',#796,#649,#650);
#554=AXIS2_PLACEMENT_3D('',#798,#651,#652);
#555=AXIS2_PLACEMENT_3D('',#800,#653,#654);
#556=AXIS2_PLACEMENT_3D('',#815,#657,#658);
#557=AXIS2_PLACEMENT_3D('',#818,#661,#662);
#558=AXIS2_PLACEMENT_3D('',#835,#663,#664);
#559=DIRECTION('',(0.,0.,1.));
#560=DIRECTION('',(1.,0.,0.));
#561=DIRECTION('',(-6.83214169000096E-16,1.,0.));
#562=DIRECTION('',(-1.,-6.83214169000096E-16,0.));
#563=DIRECTION('',(1.,6.83214169000096E-16,0.));
#564=DIRECTION('',(0.,0.,-1.));
#565=DIRECTION('',(1.,6.83214169000096E-16,0.));
#566=DIRECTION('',(0.,0.,-1.));
#567=DIRECTION('',(1.,0.,0.));
#568=DIRECTION('',(0.,0.,-1.));
#569=DIRECTION('',(0.,-1.,0.));
#570=DIRECTION('',(0.,0.,-1.));
#571=DIRECTION('',(0.,-1.,0.));
#572=DIRECTION('',(-6.83214169000096E-16,1.,0.));
#573=DIRECTION('',(-1.,-6.83214169000096E-16,0.));
#574=DIRECTION('',(1.,6.83214169000096E-16,0.));
#575=DIRECTION('',(0.,0.,-1.));
#576=DIRECTION('',(1.,6.83214169000096E-16,0.));
#577=DIRECTION('',(0.,1.,0.));
#578=DIRECTION('',(0.,0.,1.));
#579=DIRECTION('',(1.,0.,0.));
#580=DIRECTION('',(0.,0.,-1.));
#581=DIRECTION('',(1.,0.,0.));
#582=DIRECTION('',(0.,0.,-1.));
#583=DIRECTION('',(-1.,0.,0.));
#584=DIRECTION('',(0.,0.,1.));
#585=DIRECTION('',(0.,1.,0.));
#586=DIRECTION('',(0.,0.,-1.));
#587=DIRECTION('',(0.,1.,0.));
#588=DIRECTION('',(0.,1.,0.));
#589=DIRECTION('',(0.,0.,1.));
#590=DIRECTION('',(1.,0.,0.));
#591=DIRECTION('',(0.,0.,-1.));
#592=DIRECTION('',(1.,0.,0.));
#593=DIRECTION('',(0.,1.,0.));
#594=DIRECTION('',(0.,0.,1.));
#595=DIRECTION('',(1.,0.,0.));
#596=DIRECTION('',(0.,0.,-1.));
#597=DIRECTION('',(1.,0.,0.));
#598=DIRECTION('',(0.,0.,-1.));
#599=DIRECTION('',(1.,0.,0.));
#600=DIRECTION('',(0.,0.,-1.));
#601=DIRECTION('',(0.,-1.,0.));
#602=DIRECTION('',(0.,0.,-1.));
#603=DIRECTION('',(0.,-1.,0.));
#604=DIRECTION('',(0.,1.,0.));
#605=DIRECTION('',(0.,0.,1.));
#606=DIRECTION('',(1.,0.,0.));
#607=DIRECTION('',(0.,0.,-1.));
#608=DIRECTION('',(1.,0.,0.));
#609=DIRECTION('',(-1.,-4.47670574445628E-16,0.));
#610=DIRECTION('',(4.47670574445628E-16,-1.,0.));
#611=DIRECTION('',(-4.47670574445628E-16,1.,0.));
#612=DIRECTION('',(-4.47670574445628E-16,1.,0.));
#613=DIRECTION('',(0.,1.,0.));
#614=DIRECTION('',(0.,0.,1.));
#615=DIRECTION('',(1.,0.,0.));
#616=DIRECTION('',(1.,0.,0.));
#617=DIRECTION('',(-1.,-4.47670574445628E-16,0.));
#618=DIRECTION('',(4.47670574445628E-16,-1.,0.));
#619=DIRECTION('',(-4.47670574445628E-16,1.,0.));
#620=DIRECTION('',(-4.47670574445628E-16,1.,0.));
#621=DIRECTION('',(-1.,0.,0.));
#622=DIRECTION('',(0.,0.,1.));
#623=DIRECTION('',(0.,1.,0.));
#624=DIRECTION('',(0.,1.,0.));
#625=DIRECTION('',(1.,0.,0.));
#626=DIRECTION('',(0.,0.,-1.));
#627=DIRECTION('',(0.,-1.,0.));
#628=DIRECTION('',(0.,-1.,0.));
#629=DIRECTION('',(0.,0.,-1.));
#630=DIRECTION('',(-1.,0.,0.));
#631=DIRECTION('',(0.,0.,1.));
#632=DIRECTION('',(1.,0.,0.));
#633=DIRECTION('',(0.,0.,1.));
#634=DIRECTION('',(1.,0.,0.));
#635=DIRECTION('',(0.,0.,-1.));
#636=DIRECTION('',(-1.,0.,0.));
#637=DIRECTION('',(0.,0.,-1.));
#638=DIRECTION('',(1.,0.,0.));
#639=DIRECTION('',(0.,0.,-1.));
#640=DIRECTION('',(1.,0.,0.));
#641=DIRECTION('',(0.,0.,-1.));
#642=DIRECTION('',(-1.,0.,0.));
#643=DIRECTION('',(0.,0.,1.));
#644=DIRECTION('',(1.,0.,0.));
#645=DIRECTION('',(0.,0.,1.));
#646=DIRECTION('',(1.,0.,0.));
#647=DIRECTION('',(0.,0.,-1.));
#648=DIRECTION('',(-1.,0.,0.));
#649=DIRECTION('',(0.,0.,-1.));
#650=DIRECTION('',(1.,0.,0.));
#651=DIRECTION('',(0.,0.,-1.));
#652=DIRECTION('',(1.,0.,0.));
#653=DIRECTION('',(0.,1.,0.));
#654=DIRECTION('',(0.,0.,1.));
#655=DIRECTION('',(1.,0.,0.));
#656=DIRECTION('',(1.,0.,0.));
#657=DIRECTION('',(1.,0.,0.));
#658=DIRECTION('',(0.,0.,-1.));
#659=DIRECTION('',(0.,-1.,0.));
#660=DIRECTION('',(0.,-1.,0.));
#661=DIRECTION('',(0.,0.,1.));
#662=DIRECTION('',(1.,0.,0.));
#663=DIRECTION('',(0.,0.,1.));
#664=DIRECTION('',(1.,0.,0.));
#665=CARTESIAN_POINT('',(0.,0.,0.));
#666=CARTESIAN_POINT('',(-0.031875,-0.0745,0.0016));
#667=CARTESIAN_POINT('',(-0.031875,-0.0745,0.));
#668=CARTESIAN_POINT('',(-0.0725,-0.0745,0.));
#669=CARTESIAN_POINT('',(0.00875,-0.0745,0.));
#670=CARTESIAN_POINT('',(0.00875,-0.0745,0.0016));
#671=CARTESIAN_POINT('',(0.00875,-0.0745,0.0016));
#672=CARTESIAN_POINT('',(-0.031875,-0.0745,0.0016));
#673=CARTESIAN_POINT('',(-0.0725,-0.0745,0.0016));
#674=CARTESIAN_POINT('',(-0.0725,-0.0745,0.0016));
#675=CARTESIAN_POINT('',(0.00875,-0.0909166407864999,0.0016));
#676=CARTESIAN_POINT('',(0.00875,-0.0909166407864999,0.));
#677=CARTESIAN_POINT('',(0.00875,-0.0915,0.));
#678=CARTESIAN_POINT('',(0.00875,-0.0915,0.0016));
#679=CARTESIAN_POINT('',(0.00875,-0.0915,0.0016));
#680=CARTESIAN_POINT('',(0.00875,-0.0909166407864999,0.0016));
#681=CARTESIAN_POINT('',(-0.031875,-0.0915,0.0016));
#682=CARTESIAN_POINT('',(-0.031875,-0.0915,0.));
#683=CARTESIAN_POINT('',(-0.0725,-0.0915,0.));
#684=CARTESIAN_POINT('',(-0.0725,-0.0915,0.0016));
#685=CARTESIAN_POINT('',(-0.0725,-0.0915,0.0016));
#686=CARTESIAN_POINT('',(-0.031875,-0.0915,0.0016));
#687=CARTESIAN_POINT('',(-0.053,-0.0685,0.0016));
#688=CARTESIAN_POINT('',(-0.053,-0.0685,0.));
#689=CARTESIAN_POINT('',(-0.0545,-0.0685,0.));
#690=CARTESIAN_POINT('',(-0.0515,-0.0685,0.));
#691=CARTESIAN_POINT('',(-0.0545,-0.0685,0.0016));
#692=CARTESIAN_POINT('',(-0.0545,-0.0685,0.0016));
#693=CARTESIAN_POINT('',(-0.053,-0.0685,0.0016));
#694=CARTESIAN_POINT('',(-0.0515,-0.0685,0.0016));
#695=CARTESIAN_POINT('',(-0.0515,-0.0685,0.0016));
#696=CARTESIAN_POINT('',(-0.0545,-0.067,0.0016));
#697=CARTESIAN_POINT('',(-0.0545,-0.067,0.));
#698=CARTESIAN_POINT('',(-0.0545,-0.0655,0.));
#699=CARTESIAN_POINT('',(-0.0545,-0.0655,0.0016));
#700=CARTESIAN_POINT('',(-0.0545,-0.0655,0.0016));
#701=CARTESIAN_POINT('',(-0.0545,-0.067,0.0016));
#702=CARTESIAN_POINT('',(-0.053,-0.0655,0.0016));
#703=CARTESIAN_POINT('',(-0.053,-0.0655,0.));
#704=CARTESIAN_POINT('',(-0.0515,-0.0655,0.));
#705=CARTESIAN_POINT('',(-0.0515,-0.0655,0.0016));
#706=CARTESIAN_POINT('',(-0.0515,-0.0655,0.0016));
#707=CARTESIAN_POINT('',(-0.053,-0.0655,0.0016));
#708=CARTESIAN_POINT('',(0.0456874515496597,-0.0425,0.0016));
#709=CARTESIAN_POINT('',(0.0456874515496597,-0.0425,0.));
#710=CARTESIAN_POINT('',(-0.08,-0.0425,0.));
#711=CARTESIAN_POINT('',(0.077,-0.0425,0.));
#712=CARTESIAN_POINT('',(-0.08,-0.0425,0.0016));
#713=CARTESIAN_POINT('',(-0.08,-0.0425,0.0016));
#714=CARTESIAN_POINT('',(0.0456874515496597,-0.0425,0.0016));
#715=CARTESIAN_POINT('',(0.077,-0.0425,0.0016));
#716=CARTESIAN_POINT('',(0.077,-0.0425,0.0016));
#717=CARTESIAN_POINT('',(-0.08,0.00301201915172134,0.0016));
#718=CARTESIAN_POINT('',(-0.08,0.00301201915172134,0.));
#719=CARTESIAN_POINT('',(-0.08,0.0472,0.));
#720=CARTESIAN_POINT('',(-0.08,0.0472,0.0016));
#721=CARTESIAN_POINT('',(-0.08,0.0472,0.0016));
#722=CARTESIAN_POINT('',(-0.08,0.00301201915172134,0.0016));
#723=CARTESIAN_POINT('',(-0.0015,0.0472,0.0016));
#724=CARTESIAN_POINT('',(-0.0015,0.0472,0.));
#725=CARTESIAN_POINT('',(0.077,0.0472,0.));
#726=CARTESIAN_POINT('',(0.077,0.0472,0.0016));
#727=CARTESIAN_POINT('',(0.077,0.0472,0.0016));
#728=CARTESIAN_POINT('',(-0.0015,0.0472,0.0016));
#729=CARTESIAN_POINT('',(-0.0885,-0.021,0.0016));
#730=CARTESIAN_POINT('',(-0.0885,-0.021,0.0016));
#731=CARTESIAN_POINT('',(-0.0885,-0.0955,0.0016));
#732=CARTESIAN_POINT('',(-0.0885,0.0535,0.0016));
#733=CARTESIAN_POINT('',(-0.0885,0.0535,0.0016));
#734=CARTESIAN_POINT('',(-0.0885,0.0535,0.00106666666666667));
#735=CARTESIAN_POINT('',(-0.0885,0.0535,0.000533333333333333));
#736=CARTESIAN_POINT('',(-0.0885,0.0535,0.));
#737=CARTESIAN_POINT('',(-0.0885,0.0535,0.));
#738=CARTESIAN_POINT('',(-0.0885,-0.021,0.));
#739=CARTESIAN_POINT('',(-0.0885,-0.0955,0.));
#740=CARTESIAN_POINT('',(-0.0885,-0.0955,0.));
#741=CARTESIAN_POINT('',(-0.0885,-0.0955,0.000533333333333333));
#742=CARTESIAN_POINT('',(-0.0885,-0.0955,0.00106666666666667));
#743=CARTESIAN_POINT('',(-0.0885,-0.0955,0.0016));
#744=CARTESIAN_POINT('',(2.77555756156289E-17,-0.0985,0.0016));
#745=CARTESIAN_POINT('',(2.77555756156289E-17,-0.0985,0.));
#746=CARTESIAN_POINT('',(-0.0855,-0.0985,0.));
#747=CARTESIAN_POINT('',(0.0855,-0.0985,0.));
#748=CARTESIAN_POINT('',(0.0855,-0.0985,0.));
#749=CARTESIAN_POINT('',(0.0855,-0.0985,0.000533333333333333));
#750=CARTESIAN_POINT('',(0.0855,-0.0985,0.00106666666666667));
#751=CARTESIAN_POINT('',(0.0855,-0.0985,0.0016));
#752=CARTESIAN_POINT('',(0.0855,-0.0985,0.0016));
#753=CARTESIAN_POINT('',(2.77555756156289E-17,-0.0985,0.0016));
#754=CARTESIAN_POINT('',(-0.0855,-0.0985,0.0016));
#755=CARTESIAN_POINT('',(-0.0855,-0.0985,0.0016));
#756=CARTESIAN_POINT('',(-0.0855,-0.0985,0.00106666666666667));
#757=CARTESIAN_POINT('',(-0.0855,-0.0985,0.000533333333333333));
#758=CARTESIAN_POINT('',(-0.0855,-0.0985,0.));
#759=CARTESIAN_POINT('',(0.0885,-0.021,0.0016));
#760=CARTESIAN_POINT('',(0.0885,-0.021,0.));
#761=CARTESIAN_POINT('',(0.0885,-0.0955,0.));
#762=CARTESIAN_POINT('',(0.0885,0.0535,0.));
#763=CARTESIAN_POINT('',(0.0885,0.0535,0.));
#764=CARTESIAN_POINT('',(0.0885,0.0535,0.000533333333333333));
#765=CARTESIAN_POINT('',(0.0885,0.0535,0.00106666666666667));
#766=CARTESIAN_POINT('',(0.0885,0.0535,0.0016));
#767=CARTESIAN_POINT('',(0.0885,0.0535,0.0016));
#768=CARTESIAN_POINT('',(0.0885,-0.021,0.0016));
#769=CARTESIAN_POINT('',(0.0885,-0.0955,0.0016));
#770=CARTESIAN_POINT('',(0.0885,-0.0955,0.0016));
#771=CARTESIAN_POINT('',(0.0885,-0.0955,0.00106666666666667));
#772=CARTESIAN_POINT('',(0.0885,-0.0955,0.000533333333333333));
#773=CARTESIAN_POINT('',(0.0885,-0.0955,0.));
#774=CARTESIAN_POINT('',(-0.0515,-0.067,0.0016));
#775=CARTESIAN_POINT('',(-0.0515,-0.067,0.));
#776=CARTESIAN_POINT('',(-0.0515,-0.067,0.0016));
#777=CARTESIAN_POINT('',(0.077,0.00235,0.0016));
#778=CARTESIAN_POINT('',(0.077,0.00235,0.));
#779=CARTESIAN_POINT('',(0.077,0.00235,0.0016));
#780=CARTESIAN_POINT('',(-0.085,0.053,0.0016));
#781=CARTESIAN_POINT('',(-0.085,0.053,0.0016));
#782=CARTESIAN_POINT('',(-0.0829,0.053,0.0016));
#783=CARTESIAN_POINT('',(-0.085,0.053,0.));
#784=CARTESIAN_POINT('',(-0.0829,0.053,0.));
#785=CARTESIAN_POINT('',(-0.085,-0.095,0.0016));
#786=CARTESIAN_POINT('',(-0.085,-0.095,0.0016));
#787=CARTESIAN_POINT('',(-0.0829,-0.095,0.0016));
#788=CARTESIAN_POINT('',(-0.085,-0.095,0.));
#789=CARTESIAN_POINT('',(-0.0829,-0.095,0.));
#790=CARTESIAN_POINT('',(0.085,-0.095,0.0016));
#791=CARTESIAN_POINT('',(0.085,-0.095,0.0016));
#792=CARTESIAN_POINT('',(0.0871,-0.095,0.0016));
#793=CARTESIAN_POINT('',(0.085,-0.095,0.));
#794=CARTESIAN_POINT('',(0.0871,-0.095,0.));
#795=CARTESIAN_POINT('',(0.085,0.053,0.0016));
#796=CARTESIAN_POINT('',(0.085,0.053,0.0016));
#797=CARTESIAN_POINT('',(0.0871,0.053,0.0016));
#798=CARTESIAN_POINT('',(0.085,0.053,0.));
#799=CARTESIAN_POINT('',(0.0871,0.053,0.));
#800=CARTESIAN_POINT('',(-1.38777878078145E-17,0.0565,0.0016));
#801=CARTESIAN_POINT('',(-1.38777878078145E-17,0.0565,0.0016));
#802=CARTESIAN_POINT('',(-0.0855,0.0565,0.0016));
#803=CARTESIAN_POINT('',(0.0855,0.0565,0.0016));
#804=CARTESIAN_POINT('',(0.0855,0.0565,0.0016));
#805=CARTESIAN_POINT('',(0.0855,0.0565,0.00106666666666667));
#806=CARTESIAN_POINT('',(0.0855,0.0565,0.000533333333333333));
#807=CARTESIAN_POINT('',(0.0855,0.0565,0.));
#808=CARTESIAN_POINT('',(0.0855,0.0565,0.));
#809=CARTESIAN_POINT('',(-1.38777878078145E-17,0.0565,0.));
#810=CARTESIAN_POINT('',(-0.0855,0.0565,0.));
#811=CARTESIAN_POINT('',(-0.0855,0.0565,0.));
#812=CARTESIAN_POINT('',(-0.0855,0.0565,0.000533333333333333));
#813=CARTESIAN_POINT('',(-0.0855,0.0565,0.00106666666666667));
#814=CARTESIAN_POINT('',(-0.0855,0.0565,0.0016));
#815=CARTESIAN_POINT('',(-0.0725,-0.083,0.0016));
#816=CARTESIAN_POINT('',(-0.0725,-0.083,0.));
#817=CARTESIAN_POINT('',(-0.0725,-0.083,0.0016));
#818=CARTESIAN_POINT('',(1.38777878078145E-17,-0.021,0.0016));
#819=CARTESIAN_POINT('',(0.0885,0.0535,0.0016));
#820=CARTESIAN_POINT('',(0.0885,0.0555,0.0016));
#821=CARTESIAN_POINT('',(0.0875,0.0565,0.0016));
#822=CARTESIAN_POINT('',(0.0855,0.0565,0.0016));
#823=CARTESIAN_POINT('',(-0.0855,0.0565,0.0016));
#824=CARTESIAN_POINT('',(-0.0875,0.0565,0.0016));
#825=CARTESIAN_POINT('',(-0.0885,0.0555,0.0016));
#826=CARTESIAN_POINT('',(-0.0885,0.0535,0.0016));
#827=CARTESIAN_POINT('',(-0.0885,-0.0955,0.0016));
#828=CARTESIAN_POINT('',(-0.0885,-0.0975,0.0016));
#829=CARTESIAN_POINT('',(-0.0875,-0.0985,0.0016));
#830=CARTESIAN_POINT('',(-0.0855,-0.0985,0.0016));
#831=CARTESIAN_POINT('',(0.0855,-0.0985,0.0016));
#832=CARTESIAN_POINT('',(0.0875,-0.0985,0.0016));
#833=CARTESIAN_POINT('',(0.0885,-0.0975,0.0016));
#834=CARTESIAN_POINT('',(0.0885,-0.0955,0.0016));
#835=CARTESIAN_POINT('',(1.38777878078145E-17,-0.021,0.));
#836=CARTESIAN_POINT('',(0.0855,0.0565,0.));
#837=CARTESIAN_POINT('',(0.0875,0.0565,0.));
#838=CARTESIAN_POINT('',(0.0885,0.0555,0.));
#839=CARTESIAN_POINT('',(0.0885,0.0535,0.));
#840=CARTESIAN_POINT('',(0.0885,-0.0955,0.));
#841=CARTESIAN_POINT('',(0.0885,-0.0975,0.));
#842=CARTESIAN_POINT('',(0.0875,-0.0985,0.));
#843=CARTESIAN_POINT('',(0.0855,-0.0985,0.));
#844=CARTESIAN_POINT('',(-0.0855,-0.0985,0.));
#845=CARTESIAN_POINT('',(-0.0875,-0.0985,0.));
#846=CARTESIAN_POINT('',(-0.0885,-0.0975,0.));
#847=CARTESIAN_POINT('',(-0.0885,-0.0955,0.));
#848=CARTESIAN_POINT('',(-0.0885,0.0535,0.));
#849=CARTESIAN_POINT('',(-0.0885,0.0555,0.));
#850=CARTESIAN_POINT('',(-0.0875,0.0565,0.));
#851=CARTESIAN_POINT('',(-0.0855,0.0565,0.));
#852=CARTESIAN_POINT('',(0.0885,0.0535,-1.01849294991063E-19));
#853=CARTESIAN_POINT('',(0.0885,0.0535,0.0016));
#854=CARTESIAN_POINT('',(0.0884999999999998,0.0555,-3.6140072416186E-20));
#855=CARTESIAN_POINT('',(0.0884999999999998,0.0555,0.0016));
#856=CARTESIAN_POINT('',(0.0874999999999999,0.0564999999999999,6.8666137590749E-19));
#857=CARTESIAN_POINT('',(0.0874999999999999,0.0564999999999999,0.0016));
#858=CARTESIAN_POINT('',(0.0855,0.0565,-5.40607694820629E-20));
#859=CARTESIAN_POINT('',(0.0855,0.0565,0.0016));
#860=CARTESIAN_POINT('',(-0.0885,0.0535,0.0016));
#861=CARTESIAN_POINT('',(-0.0885,0.0535,-2.16840434497101E-19));
#862=CARTESIAN_POINT('',(-0.0884999999999999,0.0555,0.0016));
#863=CARTESIAN_POINT('',(-0.0884999999999999,0.0555,-4.33680868994202E-19));
#864=CARTESIAN_POINT('',(-0.0874999999999999,0.0564999999999999,0.0016));
#865=CARTESIAN_POINT('',(-0.0874999999999999,0.0564999999999999,1.30104260698261E-18));
#866=CARTESIAN_POINT('',(-0.0855,0.0565,0.0016));
#867=CARTESIAN_POINT('',(-0.0855,0.0565,0.));
#868=CARTESIAN_POINT('',(0.0885,-0.0955,0.0016));
#869=CARTESIAN_POINT('',(0.0885,-0.0955,0.));
#870=CARTESIAN_POINT('',(0.0884999999999998,-0.0974999999999999,0.0016));
#871=CARTESIAN_POINT('',(0.0884999999999998,-0.0974999999999999,-8.67361737988404E-19));
#872=CARTESIAN_POINT('',(0.0874999999999999,-0.0984999999999999,0.0016));
#873=CARTESIAN_POINT('',(0.0874999999999999,-0.0984999999999999,0.));
#874=CARTESIAN_POINT('',(0.0855,-0.0985,0.0016));
#875=CARTESIAN_POINT('',(0.0855,-0.0985,2.16840434497101E-19));
#876=CARTESIAN_POINT('',(-0.0885,-0.0955,-1.01849294991062E-19));
#877=CARTESIAN_POINT('',(-0.0885,-0.0955,0.0016));
#878=CARTESIAN_POINT('',(-0.0884999999999998,-0.0974999999999999,-3.61400724161782E-20));
#879=CARTESIAN_POINT('',(-0.0884999999999998,-0.0974999999999999,0.0016));
#880=CARTESIAN_POINT('',(-0.0874999999999999,-0.0985,6.86661375907489E-19));
#881=CARTESIAN_POINT('',(-0.0874999999999999,-0.0985,0.0016));
#882=CARTESIAN_POINT('',(-0.0855,-0.0985,-5.40607694820674E-20));
#883=CARTESIAN_POINT('',(-0.0855,-0.0985,0.0016));
#884=MECHANICAL_DESIGN_GEOMETRIC_PRESENTATION_REPRESENTATION('',(#517),
#885);
#885=(
GEOMETRIC_REPRESENTATION_CONTEXT(3)
GLOBAL_UNCERTAINTY_ASSIGNED_CONTEXT((#886))
GLOBAL_UNIT_ASSIGNED_CONTEXT((#889,#888,#887))
REPRESENTATION_CONTEXT('lid','TOP_LEVEL_ASSEMBLY_PART')
);
#886=UNCERTAINTY_MEASURE_WITH_UNIT(LENGTH_MEASURE(2.E-5),#889,
'DISTANCE_ACCURACY_VALUE','Maximum Tolerance applied to model');
#887=(
NAMED_UNIT(*)
SI_UNIT($,.STERADIAN.)
SOLID_ANGLE_UNIT()
);
#888=(
NAMED_UNIT(*)
PLANE_ANGLE_UNIT()
SI_UNIT($,.RADIAN.)
);
#889=(
LENGTH_UNIT()
NAMED_UNIT(*)
SI_UNIT($,.METRE.)
);
#890=PRODUCT_DEFINITION_SHAPE('','',#891);
#891=PRODUCT_DEFINITION('','',#893,#892);
#892=PRODUCT_DEFINITION_CONTEXT('',#899,'design');
#893=PRODUCT_DEFINITION_FORMATION_WITH_SPECIFIED_SOURCE('','',#895,
 .NOT_KNOWN.);
#894=PRODUCT_RELATED_PRODUCT_CATEGORY('','',(#895));
#895=PRODUCT('lid','lid','lid',(#897));
#896=PRODUCT_CATEGORY('','');
#897=PRODUCT_CONTEXT('',#899,'mechanical');
#898=APPLICATION_PROTOCOL_DEFINITION('international standard',
'ap242_managed_model_based_3d_engineering',2020,#899);
#899=APPLICATION_CONTEXT('managed model based 3d engineering');
ENDSEC;
END-ISO-10303-21;
